<?xml version="1.0" encoding="utf-8"?>
<!-- Generator: Adobe Illustrator 26.3.1, SVG Export Plug-In . SVG Version: 6.00 Build 0)  -->
<svg version="1.1" id="Capa_1" xmlns="http://www.w3.org/2000/svg" xmlns:xlink="http://www.w3.org/1999/xlink" x="0px" y="0px"
	 viewBox="0 0 286 294" style="enable-background:new 0 0 286 294;" xml:space="preserve">
<style type="text/css">
	.st0{fill:#FFFFFF;}
	.st1{fill:#666666;}
	.st2{fill:#75BDE0;}
	.st3{fill:url(#SVGID_1_);}
	.st4{fill:url(#SVGID_00000070800212153663022900000004075643575703710122_);}
	.st5{fill:url(#SVGID_00000054224426348250126990000014735522980066437045_);}
	.st6{fill:url(#SVGID_00000009592626256500312440000013505160173931229849_);}
	.st7{fill:url(#SVGID_00000062891541679223650010000011384056430919764639_);}
	.st8{fill:url(#SVGID_00000119088991248738144220000006597133728191462334_);}
	.st9{fill:url(#SVGID_00000142172238551546909900000012704155305241625500_);}
	.st10{fill:url(#SVGID_00000147207666880171286200000015917307893133635725_);}
	.st11{fill:#0A0D0E;}
	.st12{fill:#74D8F7;}
	.st13{fill:#4D8799;}
	.st14{fill:#0E96CC;}
	.st15{fill:#34AACC;}
	.st16{fill:#2E8094;}
	.st17{fill:#5E91A1;}
	.st18{fill:#090B0D;}
	.st19{fill:#0E0E0E;}
	.st20{fill:#C8CBCF;}
	.st21{fill:#5C5F6F;}
	.st22{fill:#5D5F70;}
	.st23{fill:#5BB9B8;}
	.st24{fill:#F89B9B;}
	.st25{fill:#8C8E90;}
	.st26{fill:#8C8E8F;}
	.st27{fill:#8B8E90;}
	.st28{fill:#8C8D8F;}
	.st29{fill:#8B8D8F;}
	.st30{fill:#C6C9CB;}
	.st31{fill:#C6C9CA;}
	.st32{fill:#C5C8CA;}
	.st33{fill:#C2C5C7;}
	.st34{fill:#C3C6C8;}
</style>
<g>
	<path class="st0" d="M2364.5,508.8l-176.1,0.3c-8.6,0-15.5-6.9-15.5-15.5l-0.3-188.4c0-8.6,6.9-15.5,15.5-15.5l176.1-0.3
		c8.6,0,15.5,6.9,15.5,15.5l0.3,188.4C2380,501.9,2373,508.8,2364.5,508.8z"/>
	<g>
		<path class="st1" d="M2276.6,527.4c-22.4,0-44.9,0.1-67.3,0.1c-16.2,0-28.4-7.1-36.3-21.3c-3.8-6.8-4.6-14.3-4.6-21.8
			c-0.1-25.5-0.1-51-0.2-76.5c0-3.9,0.3-4.2,4.1-4.2c3,0,5.9,0,8.9,0c4.3,0,4.5,0.2,4.5,4.4c0,11-0.1,22-0.1,33
			c0,14.6,0,29.2,0.1,43.8c0,6.5,1.2,12.7,5.8,17.7c4.9,5.3,11,7.7,18.1,7.6c19.9,0,39.8-0.1,59.7-0.1c24.4,0,48.9-0.4,73.3,0.1
			c14,0.2,26.8-10.6,24.8-27.7c-0.3-2.5-0.3-5.1-0.2-7.6c0.1-20.6,0.2-41.3,0.3-61.9c0-1.5,0-3-0.2-4.4c-0.5-4.5,0-5.1,4.3-5.2
			c3.3,0,6.6,0.1,9.8,0c2.6-0.1,3.5,1,3.5,3.6c-0.1,9.9,0,19.9,0,29.8c0,14.7,0.1,29.4,0,44.1c0,5.1,0,10.2-1,15.2
			c-3.6,18.2-19.1,31.1-37.6,31.2C2322.9,527.3,2299.7,527.2,2276.6,527.4C2276.6,527.3,2276.6,527.3,2276.6,527.4z"/>
		<path class="st2" d="M2276.2,297.3c-13.1,0-26.2,0.1-39.3,0.1c-11.8,0-12.4-0.7-12.4-13.4c0-3-0.1-6,0.1-9c0.4-5.1,2-6.6,6.6-6.8
			c2.7-0.1,5.5-0.3,8.2-0.5c7.3-0.6,12.7-4.5,16.5-11.2c1.4-2.5,2.6-5,4-7.5c2.6-4.6,6.4-6.9,11.3-7c2.7-0.1,5.5,0.1,8.2-0.1
			c6.3-0.4,10.7,2.7,13.9,8.3c1.6,2.8,3.2,5.7,5,8.4c4.1,6.3,9.9,9.1,16.8,9.5c2.4,0.1,4.9,0,7.3,0.1c2.9,0.1,4.8,1.6,5.1,4.9
			c0.6,6.2,0.5,12.4,0.1,18.6c-0.2,3.1-1.9,5-5,5.2c-1.7,0.1-3.4,0.3-5.1,0.4C2303.9,297.3,2290.1,297.3,2276.2,297.3z"/>
		<path class="st1" d="M2384.6,344.9c0,10.2,0,20.3,0.1,30.5c0,2.9-0.9,4-3.8,3.9c-3.5-0.2-7-0.1-10.5,0c-2.4,0.1-3.3-0.7-3.3-3.3
			c0-20.6-0.2-41.3-0.4-61.9c-0.1-11.6-7.2-19.9-18.5-22.1c-3.1-0.6-6.3-0.4-9.5-0.3c-2.2,0-3.4-0.7-3.3-3.1c0.1-3.8,0-7.6,0-11.4
			c0-1.7,0.5-2.8,2.5-2.9c10.8-0.5,21.1,1.1,30.2,7.6c11.3,8.2,16.1,19.6,16.4,33.1C2384.8,325,2384.6,334.9,2384.6,344.9
			C2384.6,344.9,2384.6,344.9,2384.6,344.9z"/>
		<path class="st1" d="M2168,343.1c0.3-9.4-0.6-21,0.4-32.7c1.6-19.4,18.2-35.2,37.7-35.9c2.7-0.1,5.5,0,8.2-0.1
			c1.9,0,2.7,0.8,2.7,2.7c0,4.2,0,8.5,0.1,12.7c0,1.7-0.6,2.1-2.3,2.1c-3.5-0.1-7-0.2-10.4,0.4c-11.3,1.9-18.1,9.6-18.6,21.1
			c-0.9,20.3-0.2,40.6-0.4,60.9c0,5.2,0,5.2-5.3,5.2c-2.9,0-5.7-0.1-8.6,0c-2.6,0.1-3.5-0.9-3.5-3.5
			C2168.1,365.8,2168.1,355.5,2168,343.1z"/>
		<g>
			<g>
				<path class="st2" d="M2296.8,358.6l-2.4,0c-1.8,0-3.2-1.4-3.2-3.2l0-28c0-1.8,1.4-3.2,3.2-3.2l2.4,0c1.8,0,3.2,1.4,3.2,3.2l0,28
					C2300,357.1,2298.6,358.6,2296.8,358.6z"/>
				<path class="st2" d="M2278.4,342.6l0-2.4c0-1.8,1.4-3.2,3.2-3.2l28,0c1.8,0,3.2,1.4,3.2,3.2l0,2.4c0,1.8-1.4,3.2-3.2,3.2l-28,0
					C2279.8,345.8,2278.4,344.4,2278.4,342.6z"/>
			</g>
		</g>
		<g>
			<g>
				
					<linearGradient id="SVGID_1_" gradientUnits="userSpaceOnUse" x1="2412.002" y1="202.0496" x2="2412.002" y2="114.2172" gradientTransform="matrix(1 -1.586149e-03 1.586149e-03 1 -135.1457 219.7832)">
					<stop  offset="5.327789e-09" style="stop-color:#F89B9B"/>
					<stop  offset="0.214" style="stop-color:#F8A39B"/>
					<stop  offset="1" style="stop-color:#F8BC9B"/>
				</linearGradient>
				<path class="st3" d="M2163,391.3c0.1-2.5,2.2-4.6,4.8-4.9c12.1-1.1,24.3-0.9,36.4,0.4c3.6,0.4,5.3-0.1,6.7-2.4
					c9.3-16.2,18.8-32.4,28.2-48.6c0.4-0.8,0.9-1.5,1.4-2.2c1.9-2.7,4.6-3.8,7.9-3.2c3.4,0.6,5.1,2.7,5.6,5.5
					c1.6,9.6,3.1,19.2,4.6,28.8c1.6,10.1,3.2,20.1,4.8,30.2c0.4,0,0.3,0,0.7,0.1c2.2-5.9,4.4-11.8,6.4-17.8c0.9-2.5,2.3-4.5,5.4-5
					c3.4-0.6,6.1,0.5,8.1,3c2.6,3.2,5.3,6.4,7.8,9.7c1.2,1.5,2.1,2,3.6,0.3c6.4-6.9,13-13.8,19.4-20.7c4.6-5,10.3-4.7,13.8,0.9
					c4.6,7.2,9.3,14.4,13.9,21.7c0.9,1.4,1.6,2.1,3.3,0.8c1.6-1.2,3.6-1.1,5.5-1.1c11.6,0,23.3-0.1,34.9,0c2.6,0,4.8,2,4.9,4.5l0,0
					c0.2,2.8-2.1,5.1-4.9,5.1c-10.4,0.1-20.7,0-31.1,0c-2,0-3.4,0.6-4.5,2.1c-4.4,5.6-10.3,5.2-14-0.8c-4.5-7.2-9.1-14.3-13.8-21.4
					c-1.9-3-2.1-3-4.7-0.2c-5.9,6.2-11.8,12.5-17.6,18.8c-5.9,6.4-11.1,5.5-16.6-3c-0.9-1.5-2.2-2.7-3.5-3.9
					c-0.5-0.5-0.7-1.5-1.7-1.3c-0.8,0.2-0.8,1-1,1.6c-2.6,7.3-5.2,14.6-7.7,21.9c-0.4,1-0.7,2-1.1,3c-1.3,3.3-4,5.1-7.3,4.9
					c-3.7-0.2-6-2-6.8-5.7c-1-4.7-1.6-9.5-2.4-14.3c-0.1-0.7-0.2-1.3-0.3-2c-2.5-15.9-5-31.7-8.1-47.8c-2.3,3.9-4.6,7.9-6.9,11.8
					c-6.3,10.8-12.6,21.6-18.9,32.5c-1.9,3.3-5.1,4.1-8.8,4.1c-13.8,0-27.6,0.1-41.4,0C2165.3,396.7,2162.9,394.2,2163,391.3
					L2163,391.3z"/>
				
					<linearGradient id="SVGID_00000139984583038431460430000000124095007106709391_" gradientUnits="userSpaceOnUse" x1="2535.7109" y1="189.6659" x2="2535.7109" y2="160.453" gradientTransform="matrix(1 -1.586149e-03 1.586149e-03 1 -135.1457 219.7832)">
					<stop  offset="5.327789e-09" style="stop-color:#F89B9B"/>
					<stop  offset="0.214" style="stop-color:#F8A39B"/>
					<stop  offset="1" style="stop-color:#F8BC9B"/>
				</linearGradient>
				<path style="fill:url(#SVGID_00000139984583038431460430000000124095007106709391_);" d="M2400.8,376.2
					c-8.1,0-14.6,6.6-14.6,14.6c0,8.1,6.6,14.6,14.6,14.6s14.6-6.6,14.6-14.6C2415.4,382.7,2408.9,376.2,2400.8,376.2z
					 M2401.1,399.2c-4.8,0.1-8.5-3.4-8.5-8.1c-0.1-4.6,3.7-8.6,8.2-8.6c4.5,0,8.3,3.8,8.3,8.4
					C2409.2,395.5,2405.7,399.1,2401.1,399.2z"/>
				
					<linearGradient id="SVGID_00000035499757332235016890000011808499819250746541_" gradientUnits="userSpaceOnUse" x1="2287.854" y1="190.5914" x2="2287.854" y2="161.3786" gradientTransform="matrix(1 -1.586149e-03 1.586149e-03 1 -135.1457 219.7832)">
					<stop  offset="5.327789e-09" style="stop-color:#F89B9B"/>
					<stop  offset="0.214" style="stop-color:#F8A39B"/>
					<stop  offset="1" style="stop-color:#F8BC9B"/>
				</linearGradient>
				<path style="fill:url(#SVGID_00000035499757332235016890000011808499819250746541_);" d="M2153,377.5c-8.1,0-14.6,6.6-14.6,14.6
					c0,8.1,6.6,14.6,14.6,14.6c8.1,0,14.6-6.6,14.6-14.6C2167.6,384,2161,377.5,2153,377.5z M2153.3,400.5c-4.8,0.1-8.5-3.4-8.5-8.1
					c-0.1-4.6,3.7-8.6,8.2-8.6c4.5,0,8.3,3.8,8.3,8.4C2161.3,396.8,2157.9,400.4,2153.3,400.5z"/>
			</g>
		</g>
		<g>
			<path class="st2" d="M2220.5,484.3c-0.6,0.1-1.2,0.2-1.8,0.2c-0.6,0-1.2,0.1-1.8,0.1c-0.5,0-1.1,0-1.8-0.1
				c-0.6,0-1.2-0.1-1.8-0.2l-0.1-42.2l0.4-0.4l6.7,0l0,3.2c0,1.6,0,3.3,0,4.9c0,1.7,0,3.3,0,4.9L2220.5,484.3z M2238.6,441.7
				c0.1,0.4,0.2,0.9,0.3,1.4c0.1,0.5,0.1,1,0.1,1.4c0,1.1-0.3,2-1,2.5c-0.7,0.5-1.6,0.8-3,0.8l-9,0c-1.7,0-3.2,0-4.6,0
				c-1.4,0-2.7-0.1-3.9-0.1l0-5.9L2238.6,441.7z M2235.3,459.9c0.1,0.4,0.2,0.9,0.3,1.5c0.1,0.6,0.1,1,0.1,1.4c0,0.4,0,0.9-0.1,1.4
				c-0.1,0.6-0.1,1.1-0.3,1.5l-12.4,0c-0.8,0-1.6,0-2.6,0c-0.9,0-1.8,0-2.6,0l0-5.8c0.8,0,1.6,0,2.6,0c0.9,0,1.8,0,2.6,0
				L2235.3,459.9z"/>
			<path class="st2" d="M2242.3,441.7c0.5-0.1,1.1-0.2,1.8-0.2c0.7,0,1.2-0.1,1.7-0.1c0.5,0,1.1,0,1.8,0.1c0.7,0,1.3,0.1,1.8,0.2
				l0.1,42.6c-0.5,0.1-1.1,0.2-1.8,0.2c-0.7,0-1.3,0.1-1.8,0.1c-0.5,0-1.1,0-1.7-0.1c-0.7,0-1.3-0.1-1.8-0.2L2242.3,441.7z"/>
			
				<linearGradient id="SVGID_00000067212774043334012230000005380605316482260386_" gradientUnits="userSpaceOnUse" x1="2407.3369" y1="268.5142" x2="2407.3369" y2="225.3351" gradientTransform="matrix(1 -1.586149e-03 1.586149e-03 1 -135.1457 219.7832)">
				<stop  offset="5.327789e-09" style="stop-color:#F89B9B"/>
				<stop  offset="0.214" style="stop-color:#F8A39B"/>
				<stop  offset="1" style="stop-color:#F8BC9B"/>
			</linearGradient>
			<path style="fill:url(#SVGID_00000067212774043334012230000005380605316482260386_);" d="M2255,441.7c0.8-0.1,1.6-0.2,2.6-0.3
				c0.9,0,1.7-0.1,2.3-0.1c0.6,0,1.3,0,2.1,0.1c0.8,0,1.6,0.1,2.4,0.3l5.6,18.9c0.1,0.5,0.3,1.2,0.6,2.1c0.2,0.9,0.5,1.9,0.8,2.9
				c0.3,1,0.5,2,0.7,3c0.2,0.9,0.3,1.6,0.4,2.1l0.4,0c0.1-0.5,0.2-1.2,0.4-2.1c0.2-0.9,0.4-1.9,0.7-3c0.3-1,0.5-2,0.7-2.9
				c0.2-0.9,0.4-1.6,0.6-2.1l5.5-18.9c0.8-0.1,1.6-0.2,2.4-0.3c0.8,0,1.5-0.1,2.1-0.1c0.6,0,1.3,0,2.2,0.1c0.9,0,1.8,0.1,2.6,0.3
				l3.4,42.4c-0.5,0.1-1.1,0.2-1.8,0.3c-0.7,0.1-1.3,0.1-1.9,0.1c-0.5,0-1.1,0-1.6-0.1c-0.5,0-1-0.1-1.6-0.2l-1.4-22
				c-0.1-1.2-0.1-2.5-0.2-4.1c-0.1-1.5-0.1-3.1-0.2-4.6c-0.1-1.6-0.1-3-0.1-4.2l-0.4,0l-8.1,28.4c-0.5,0.1-1.1,0.2-1.8,0.2
				c-0.7,0.1-1.3,0.1-1.8,0.1c-0.5,0-1.1,0-1.8-0.1c-0.7-0.1-1.3-0.1-1.8-0.2l-8.2-28.4l-0.3,0c0,1.2-0.1,2.6-0.1,4.2
				c0,1.6-0.1,3.1-0.2,4.6c-0.1,1.5-0.1,2.9-0.2,4.1l-1.4,22c-0.5,0.1-1,0.1-1.6,0.2c-0.5,0-1.1,0.1-1.7,0.1c-0.6,0-1.2,0-1.8-0.1
				c-0.6-0.1-1.2-0.2-1.7-0.3L2255,441.7z"/>
			<path class="st2" d="M2296.3,442.2l0.4-0.4l6.5,0l0,5.9c0,0.9,0,1.6,0,2.2c0,0.6,0,1.3,0,2.1l0,23.2c0,0.6,0,1.1,0,1.6
				c0,0.5,0,1.1,0,1.7l0,5.9l-2.9,0c-1.3,0-2.3-0.4-3-1.2c-0.7-0.8-1.1-1.8-1.1-3.2L2296.3,442.2z M2322,441.8
				c0.1,0.5,0.2,1,0.2,1.5c0,0.5,0,0.9,0,1.3c0,0.4,0,0.9-0.1,1.5c-0.1,0.6-0.2,1.2-0.4,1.7l-14.5,0c-0.5,0-1.1,0-1.9,0
				c-0.8,0-1.6,0-2.4,0c-0.8,0-1.5,0-2.1-0.1l0-5.9L2322,441.8z M2318.6,459.9c0.1,0.5,0.2,1,0.3,1.5c0.1,0.6,0.1,1,0.1,1.4
				c0,0.4,0,0.9-0.1,1.4c-0.1,0.5-0.2,1-0.3,1.5l-11.4,0c-0.5,0-1.1,0-1.9,0c-0.8,0-1.6,0-2.4,0c-0.8,0-1.5,0-2.1,0l0-5.7
				c0.6,0,1.3,0,2.1,0c0.8,0,1.6,0,2.4,0c0.8,0,1.4,0,1.9,0L2318.6,459.9z M2323.4,478.4c0,2.1-0.3,3.7-1,4.6
				c-0.7,1-1.9,1.4-3.7,1.4l-17.8,0l0-5.8c1-0.1,2.1-0.1,3.1-0.2c1-0.1,2.2-0.1,3.5-0.1L2323.4,478.4z"/>
			<path class="st2" d="M2334.7,484.4l-3,0c-1.2,0-2.2-0.4-3-1.1c-0.8-0.8-1.2-1.8-1.2-3.3l-0.1-38.2l0.4-0.4l2.7,0
				c1.5,0,2.5,0.4,3.1,1.1c0.6,0.7,0.9,1.9,0.9,3.5L2334.7,484.4z M2352.4,478.2c0,2.4-0.4,4-1.1,4.9c-0.7,0.9-2,1.3-3.7,1.3
				l-15.9,0l-3.7-5.2c2-0.3,4.1-0.6,6.3-0.7c2.2-0.2,4.2-0.2,5.9-0.2L2352.4,478.2z"/>
		</g>
	</g>
</g>
<g>
	<path class="st0" d="M1477.5,673.8l-176.1,0.3c-8.6,0-15.5-6.9-15.5-15.5l-0.3-188.4c0-8.6,6.9-15.5,15.5-15.5l176.1-0.3
		c8.6,0,15.5,6.9,15.5,15.5l0.3,188.4C1493,666.9,1486.1,673.8,1477.5,673.8z"/>
	<g>
		<path class="st1" d="M1389.7,692.4c-22.4,0-44.9,0.1-67.3,0.1c-16.2,0-28.4-7.1-36.3-21.3c-3.8-6.8-4.6-14.3-4.6-21.8
			c-0.1-25.5-0.1-51-0.2-76.5c0-3.9,0.3-4.2,4.1-4.2c3,0,5.9,0,8.9,0c4.3,0,4.5,0.2,4.5,4.4c0,11-0.1,22-0.1,33
			c0,14.6,0,29.2,0.1,43.8c0,6.5,1.2,12.7,5.8,17.7c4.9,5.3,11,7.7,18.1,7.6c19.9,0,39.8-0.1,59.7-0.1c24.4,0,48.9-0.4,73.3,0.1
			c14,0.2,26.8-10.6,24.8-27.7c-0.3-2.5-0.3-5.1-0.2-7.6c0.1-20.6,0.2-41.3,0.3-61.9c0-1.5,0-3-0.2-4.4c-0.5-4.5,0-5.1,4.3-5.2
			c3.3,0,6.6,0.1,9.8,0c2.6-0.1,3.5,1,3.5,3.6c-0.1,9.9,0,19.9,0,29.8c0,14.7,0.1,29.4,0,44.1c0,5.1,0,10.2-1,15.2
			c-3.6,18.2-19.1,31.1-37.6,31.2C1436,692.3,1412.8,692.2,1389.7,692.4C1389.7,692.3,1389.7,692.3,1389.7,692.4z"/>
		<path class="st2" d="M1389.3,462.3c-13.1,0-26.2,0.1-39.3,0.1c-11.8,0-12.4-0.7-12.4-13.4c0-3-0.1-6,0.1-9c0.4-5.1,2-6.6,6.6-6.8
			c2.7-0.1,5.5-0.3,8.2-0.5c7.3-0.6,12.7-4.5,16.5-11.2c1.4-2.5,2.6-5,4-7.5c2.6-4.6,6.4-6.9,11.3-7c2.7-0.1,5.5,0.1,8.2-0.1
			c6.3-0.4,10.7,2.7,13.9,8.3c1.6,2.8,3.2,5.7,5,8.4c4.1,6.3,9.9,9.1,16.8,9.5c2.4,0.1,4.9,0,7.3,0.1c2.9,0.1,4.8,1.6,5.1,4.9
			c0.6,6.2,0.5,12.4,0.1,18.6c-0.2,3.1-1.9,5-5,5.2c-1.7,0.1-3.4,0.3-5.1,0.4C1417,462.3,1403.2,462.3,1389.3,462.3z"/>
		<path class="st1" d="M1497.7,509.9c0,10.2,0,20.3,0.1,30.5c0,2.9-0.9,4-3.8,3.9c-3.5-0.2-7-0.1-10.5,0c-2.4,0.1-3.3-0.7-3.3-3.3
			c0-20.6-0.2-41.3-0.4-61.9c-0.1-11.6-7.2-19.9-18.5-22.1c-3.1-0.6-6.3-0.4-9.5-0.3c-2.2,0-3.4-0.7-3.3-3.1c0.1-3.8,0-7.6,0-11.4
			c0-1.7,0.5-2.8,2.5-2.9c10.8-0.5,21.1,1.1,30.2,7.6c11.3,8.2,16.1,19.6,16.4,33.1C1497.9,490,1497.7,499.9,1497.7,509.9
			C1497.7,509.9,1497.7,509.9,1497.7,509.9z"/>
		<path class="st1" d="M1281.1,508.1c0.3-9.4-0.6-21,0.4-32.7c1.6-19.4,18.2-35.2,37.7-35.9c2.7-0.1,5.5,0,8.2-0.1
			c1.9,0,2.7,0.8,2.7,2.7c0,4.2,0,8.5,0.1,12.7c0,1.7-0.6,2.1-2.3,2.1c-3.5-0.1-7-0.2-10.4,0.4c-11.3,1.9-18.1,9.6-18.6,21.1
			c-0.9,20.3-0.2,40.6-0.4,60.9c0,5.2,0,5.2-5.3,5.2c-2.9,0-5.7-0.1-8.6,0c-2.6,0.1-3.5-0.9-3.5-3.5
			C1281.2,530.8,1281.1,520.5,1281.1,508.1z"/>
		<g>
			<g>
				<path class="st2" d="M1409.9,523.6l-2.4,0c-1.8,0-3.2-1.4-3.2-3.2l0-28c0-1.8,1.4-3.2,3.2-3.2l2.4,0c1.8,0,3.2,1.4,3.2,3.2l0,28
					C1413.1,522.1,1411.7,523.6,1409.9,523.6z"/>
				<path class="st2" d="M1391.4,507.6l0-2.4c0-1.8,1.4-3.2,3.2-3.2l28,0c1.8,0,3.2,1.4,3.2,3.2l0,2.4c0,1.8-1.4,3.2-3.2,3.2l-28,0
					C1392.9,510.8,1391.4,509.4,1391.4,507.6z"/>
			</g>
		</g>
		<g>
			<g>
				
					<linearGradient id="SVGID_00000087412494186602122590000015727516269022750633_" gradientUnits="userSpaceOnUse" x1="1524.8274" y1="365.6424" x2="1524.8274" y2="277.81" gradientTransform="matrix(1 -1.586149e-03 1.586149e-03 1 -135.1457 219.7832)">
					<stop  offset="5.327789e-09" style="stop-color:#F89B9B"/>
					<stop  offset="0.214" style="stop-color:#F8A39B"/>
					<stop  offset="1" style="stop-color:#F8BC9B"/>
				</linearGradient>
				<path style="fill:url(#SVGID_00000087412494186602122590000015727516269022750633_);" d="M1276.1,556.3c0.1-2.5,2.2-4.6,4.8-4.9
					c12.1-1.1,24.3-0.9,36.4,0.4c3.6,0.4,5.3-0.1,6.7-2.4c9.3-16.2,18.8-32.4,28.2-48.6c0.4-0.8,0.9-1.5,1.4-2.2
					c1.9-2.7,4.6-3.8,7.9-3.2c3.4,0.6,5.1,2.7,5.6,5.5c1.6,9.6,3.1,19.2,4.6,28.8c1.6,10.1,3.2,20.1,4.8,30.2c0.4,0,0.3,0,0.7,0.1
					c2.2-5.9,4.4-11.8,6.4-17.8c0.9-2.5,2.3-4.5,5.4-5c3.4-0.6,6.1,0.5,8.1,3c2.6,3.2,5.3,6.4,7.8,9.7c1.2,1.5,2.1,2,3.6,0.3
					c6.4-6.9,13-13.8,19.4-20.7c4.6-5,10.3-4.7,13.8,0.9c4.6,7.2,9.3,14.4,13.9,21.7c0.9,1.4,1.6,2.1,3.3,0.8
					c1.6-1.2,3.6-1.1,5.5-1.1c11.6,0,23.3-0.1,34.9,0c2.6,0,4.8,2,4.9,4.5l0,0c0.2,2.8-2.1,5.1-4.9,5.1c-10.4,0.1-20.7,0-31.1,0
					c-2,0-3.4,0.6-4.5,2.1c-4.4,5.6-10.3,5.2-14-0.8c-4.5-7.2-9.1-14.3-13.8-21.4c-1.9-3-2.1-3-4.7-0.2
					c-5.9,6.2-11.8,12.5-17.6,18.8c-5.9,6.4-11.1,5.5-16.6-3c-0.9-1.5-2.2-2.7-3.5-3.9c-0.5-0.5-0.7-1.5-1.7-1.3
					c-0.8,0.2-0.8,1-1,1.6c-2.6,7.3-5.2,14.6-7.7,21.9c-0.4,1-0.7,2-1.1,3c-1.3,3.3-4,5.1-7.3,4.9c-3.7-0.2-6-2-6.8-5.7
					c-1-4.7-1.6-9.5-2.4-14.3c-0.1-0.7-0.2-1.3-0.3-2c-2.5-15.9-5-31.7-8.1-47.8c-2.3,3.9-4.6,7.9-6.9,11.8
					c-6.3,10.8-12.6,21.6-18.9,32.5c-1.9,3.3-5.1,4.1-8.8,4.1c-13.8,0-27.6,0.1-41.4,0C1278.3,561.7,1275.9,559.2,1276.1,556.3
					L1276.1,556.3z"/>
				
					<linearGradient id="SVGID_00000156549176450273369110000012319339572271227320_" gradientUnits="userSpaceOnUse" x1="1648.5363" y1="353.2587" x2="1648.5363" y2="324.0458" gradientTransform="matrix(1 -1.586149e-03 1.586149e-03 1 -135.1457 219.7832)">
					<stop  offset="5.327789e-09" style="stop-color:#F89B9B"/>
					<stop  offset="0.214" style="stop-color:#F8A39B"/>
					<stop  offset="1" style="stop-color:#F8BC9B"/>
				</linearGradient>
				<path style="fill:url(#SVGID_00000156549176450273369110000012319339572271227320_);" d="M1513.9,541.2
					c-8.1,0-14.6,6.6-14.6,14.6c0,8.1,6.6,14.6,14.6,14.6c8.1,0,14.6-6.6,14.6-14.6C1528.5,547.7,1522,541.2,1513.9,541.2z
					 M1514.2,564.2c-4.8,0.1-8.5-3.4-8.5-8.1c-0.1-4.6,3.7-8.6,8.2-8.6c4.5,0,8.3,3.8,8.3,8.4
					C1522.3,560.5,1518.8,564.1,1514.2,564.2z"/>
				
					<linearGradient id="SVGID_00000136381000230887799820000007579672291628764800_" gradientUnits="userSpaceOnUse" x1="1400.6793" y1="354.1843" x2="1400.6793" y2="324.9714" gradientTransform="matrix(1 -1.586149e-03 1.586149e-03 1 -135.1457 219.7832)">
					<stop  offset="5.327789e-09" style="stop-color:#F89B9B"/>
					<stop  offset="0.214" style="stop-color:#F8A39B"/>
					<stop  offset="1" style="stop-color:#F8BC9B"/>
				</linearGradient>
				<path style="fill:url(#SVGID_00000136381000230887799820000007579672291628764800_);" d="M1266,542.5c-8.1,0-14.6,6.6-14.6,14.6
					c0,8.1,6.6,14.6,14.6,14.6c8.1,0,14.6-6.6,14.6-14.6C1280.7,549,1274.1,542.5,1266,542.5z M1266.3,565.5
					c-4.8,0.1-8.5-3.4-8.5-8.1c-0.1-4.6,3.7-8.6,8.2-8.6c4.5,0,8.3,3.8,8.3,8.4C1274.4,561.8,1271,565.4,1266.3,565.5z"/>
			</g>
		</g>
		<g>
			<path class="st2" d="M1333.5,649.3c-0.6,0.1-1.2,0.2-1.8,0.2c-0.6,0-1.2,0.1-1.8,0.1c-0.5,0-1.1,0-1.8-0.1
				c-0.6,0-1.2-0.1-1.8-0.2l-0.1-42.2l0.4-0.4l6.7,0l0,3.2c0,1.6,0,3.3,0,4.9c0,1.7,0,3.3,0,4.9L1333.5,649.3z M1351.7,606.7
				c0.1,0.4,0.2,0.9,0.3,1.4c0.1,0.5,0.1,1,0.1,1.4c0,1.1-0.3,2-1,2.5c-0.7,0.5-1.6,0.8-3,0.8l-9,0c-1.7,0-3.2,0-4.6,0
				c-1.4,0-2.7-0.1-3.9-0.1l0-5.9L1351.7,606.7z M1348.4,624.9c0.1,0.4,0.2,0.9,0.3,1.5c0.1,0.6,0.1,1,0.1,1.4c0,0.4,0,0.9-0.1,1.4
				c-0.1,0.6-0.1,1.1-0.3,1.5l-12.4,0c-0.8,0-1.6,0-2.6,0c-0.9,0-1.8,0-2.6,0l0-5.8c0.8,0,1.6,0,2.6,0c0.9,0,1.8,0,2.6,0
				L1348.4,624.9z"/>
			<path class="st2" d="M1355.4,606.7c0.5-0.1,1.1-0.2,1.8-0.2c0.7,0,1.2-0.1,1.7-0.1c0.5,0,1.1,0,1.8,0.1c0.7,0,1.3,0.1,1.8,0.2
				l0.1,42.6c-0.5,0.1-1.1,0.2-1.8,0.2c-0.7,0-1.3,0.1-1.8,0.1c-0.5,0-1.1,0-1.7-0.1c-0.7,0-1.3-0.1-1.8-0.2L1355.4,606.7z"/>
			
				<linearGradient id="SVGID_00000163779921134691334070000014266141757224091777_" gradientUnits="userSpaceOnUse" x1="1520.1624" y1="432.107" x2="1520.1624" y2="388.9279" gradientTransform="matrix(1 -1.586149e-03 1.586149e-03 1 -135.1457 219.7832)">
				<stop  offset="5.327789e-09" style="stop-color:#F89B9B"/>
				<stop  offset="0.214" style="stop-color:#F8A39B"/>
				<stop  offset="1" style="stop-color:#F8BC9B"/>
			</linearGradient>
			<path style="fill:url(#SVGID_00000163779921134691334070000014266141757224091777_);" d="M1368.1,606.7c0.8-0.1,1.6-0.2,2.6-0.3
				c0.9,0,1.7-0.1,2.3-0.1c0.6,0,1.3,0,2.1,0.1c0.8,0,1.6,0.1,2.4,0.3l5.6,18.9c0.1,0.5,0.3,1.2,0.6,2.1c0.2,0.9,0.5,1.9,0.8,2.9
				c0.3,1,0.5,2,0.7,3c0.2,0.9,0.3,1.6,0.4,2.1l0.4,0c0.1-0.5,0.2-1.2,0.4-2.1c0.2-0.9,0.4-1.9,0.7-3c0.3-1,0.5-2,0.7-2.9
				c0.2-0.9,0.4-1.6,0.6-2.1l5.5-18.9c0.8-0.1,1.6-0.2,2.4-0.3c0.8,0,1.5-0.1,2.1-0.1c0.6,0,1.3,0,2.2,0.1c0.9,0,1.8,0.1,2.6,0.3
				l3.4,42.4c-0.5,0.1-1.1,0.2-1.8,0.3c-0.7,0.1-1.3,0.1-1.9,0.1c-0.5,0-1.1,0-1.6-0.1c-0.5,0-1-0.1-1.6-0.2l-1.4-22
				c-0.1-1.2-0.1-2.5-0.2-4.1c-0.1-1.5-0.1-3.1-0.2-4.6c-0.1-1.6-0.1-3-0.1-4.2l-0.4,0l-8.1,28.4c-0.5,0.1-1.1,0.2-1.8,0.2
				c-0.7,0.1-1.3,0.1-1.8,0.1c-0.5,0-1.1,0-1.8-0.1c-0.7-0.1-1.3-0.1-1.8-0.2l-8.2-28.4l-0.3,0c0,1.2-0.1,2.6-0.1,4.2
				c0,1.6-0.1,3.1-0.2,4.6c-0.1,1.5-0.1,2.9-0.2,4.1l-1.4,22c-0.5,0.1-1,0.1-1.6,0.2c-0.5,0-1.1,0.1-1.7,0.1c-0.6,0-1.2,0-1.8-0.1
				c-0.6-0.1-1.2-0.2-1.7-0.3L1368.1,606.7z"/>
			<path class="st2" d="M1409.4,607.2l0.4-0.4l6.5,0l0,5.9c0,0.9,0,1.6,0,2.2c0,0.6,0,1.3,0,2.1l0,23.2c0,0.6,0,1.1,0,1.6
				c0,0.5,0,1.1,0,1.7l0,5.9l-2.9,0c-1.3,0-2.3-0.4-3-1.2c-0.7-0.8-1.1-1.8-1.1-3.2L1409.4,607.2z M1435.1,606.8
				c0.1,0.5,0.2,1,0.2,1.5c0,0.5,0,0.9,0,1.3c0,0.4,0,0.9-0.1,1.5c-0.1,0.6-0.2,1.2-0.4,1.7l-14.5,0c-0.5,0-1.1,0-1.9,0
				c-0.8,0-1.6,0-2.4,0c-0.8,0-1.5,0-2.1-0.1l0-5.9L1435.1,606.8z M1431.7,624.9c0.1,0.5,0.2,1,0.3,1.5c0.1,0.6,0.1,1,0.1,1.4
				c0,0.4,0,0.9-0.1,1.4c-0.1,0.5-0.2,1-0.3,1.5l-11.4,0c-0.5,0-1.1,0-1.9,0c-0.8,0-1.6,0-2.4,0c-0.8,0-1.5,0-2.1,0l0-5.7
				c0.6,0,1.3,0,2.1,0c0.8,0,1.6,0,2.4,0c0.8,0,1.4,0,1.9,0L1431.7,624.9z M1436.5,643.4c0,2.1-0.3,3.7-1,4.6
				c-0.7,1-1.9,1.4-3.7,1.4l-17.8,0l0-5.8c1-0.1,2.1-0.1,3.1-0.2c1-0.1,2.2-0.1,3.5-0.1L1436.5,643.4z"/>
			<path class="st2" d="M1447.8,649.4l-3,0c-1.2,0-2.2-0.4-3-1.1c-0.8-0.8-1.2-1.8-1.2-3.3l-0.1-38.2l0.4-0.4l2.7,0
				c1.5,0,2.5,0.4,3.1,1.1c0.6,0.7,0.9,1.9,0.9,3.5L1447.8,649.4z M1465.5,643.2c0,2.4-0.4,4-1.1,4.9s-2,1.3-3.7,1.3l-15.9,0
				l-3.7-5.2c2-0.3,4.1-0.6,6.3-0.7c2.2-0.2,4.2-0.2,5.9-0.2L1465.5,643.2z"/>
		</g>
	</g>
</g>
<path class="st11" d="M42.1,159.5c0-35.5,0-71,0-106.5c0-6.4,0.5-6.9,6.8-6.9c1,0,2,0,3,0c3.2-0.1,7,0.9,9.3-0.5
	c2.3-1.5,0.6-5.5,0.8-8.5c0.2-3.1,2.1-4.1,4.7-3.8c2.9,0.3,3.6-0.9,3.6-3.6c0-7.7,0.2-7.8,7.8-7.8c53.3,0,106.6,0,160,0
	c6.7,0,6.9,0.3,6.9,7.2c0,34.2,0,68.3,0,102.5c0,6.5-0.2,6.8-6.7,6.8c-1,0-2,0.1-3,0c-3.5-0.6-4.4,0.9-4.4,4.3
	c0.1,32.7,0.1,65.3,0.1,98c0,6.9-0.3,7.3-7.4,7.3c-5.8,0-11.7,0.1-17.5-0.1c-2.7-0.1-3.4,0.8-3.3,3.4c0.2,5.2,0,10.3,0.1,15.5
	c0.1,3.7-1.3,5.4-5.3,5.4c-50-0.1-100-0.1-150,0c-4.6,0-5.5-2.2-5.5-6.2C42.1,230.5,42.1,195,42.1,159.5z M224,134
	c0.2-0.3,0.2-0.6,0.2-0.9c0.3-0.3,0.6-0.7,0.9-1c0.5-0.3,1-0.5,1.5-0.8c0.8,0,1.6,0,2.4,0c9,0.7,9,0.7,9-8.1
	c0-29.5-0.1-58.9,0.1-88.4c0-4.4-0.9-5.8-5.6-5.8C182.4,29.1,132.5,29,82.5,29c-1.2,0-2.3,0-3.5,0c-1.2,0-1.8,0.6-1.8,1.8
	c0,1.2,0,2.4,1.8,2.2c2.2,0.1,4.3,0.2,6.5,0.2c41.8,0,83.6,0,125.3,0c6.1,0,6.9,0.8,6.9,6.9c0,64.3,0,128.5,0,192.8
	c0,2,0.2,4-0.8,5.9c-4,2.8-8.7,0.4-12.9,1.9c5.1,0.3,10.2,0.3,15.3,0.2c1.4,0,3.4,1,4.3-1.2c0-0.6,0-1.1,0.1-1.7
	c0.1-1.2,0.3-2.3,0.3-3.5C224,201.1,224,167.5,224,134z M55,53.2c-1.6,0-3.3,0.1-4.9,0.1c-0.6-0.2-0.9,0.1-0.8,0.7
	c0,3.6,0,7.2-0.1,10.9c-0.1,0.7-0.3,1.3-0.3,2c0.1,64.6,0.2,129.3,0.1,193.9c0,3.9,1.7,4.2,4.8,4.2c25.2-0.1,50.3,0,75.5,0
	c20.7,0,41.3-0.1,62,0.1c3.5,0,4.8-0.9,4.5-4.5c-0.3-3.6-0.3-7.3-0.3-11c0.1-63.6,0.1-127.3,0.3-190.9c0-4.4-1.1-5.6-5.5-5.6
	c-40.3,0.1-80.6,0-120.9-0.1C64.6,53,59.8,53.2,55,53.2z M210.2,136.5c0-30.3-0.1-60.7,0.1-91c0-3.8-0.8-5-4.8-5
	c-27.5,0.2-55,0.1-82.5,0.1c-16.7,0-33.3,0-50,0c-2.2,0-4.3-0.4-4.1,3.1c0.2,4,3.1,2.3,4.8,2.3c40.3,0.1,80.7,0.1,121,0.1
	c8.1,0,8.1,0,8.1,8c0,58,0,116,0,174c0,2.4-1.1,5.1,3.5,5.2c4.8,0.1,3.9-2.7,3.9-5.4C210.2,197.5,210.2,167,210.2,136.5z"/>
<path class="st12" d="M49.2,65c0-3.6,0-7.2,0.1-10.9c0.3-0.2,0.5-0.5,0.8-0.7c1.6,0,3.3-0.1,4.9-0.1c1.7,1.2,3.6,0.7,5.3,0.7
	c26.8,0,53.6,0,80.4,0c2.9,0,5.2,0.7,7.7,2.7c7.6,6.2,13.2,13.9,18.7,21.9c10.8,15.9,16.9,33.6,17.8,52.7
	c1.7,34.9-10.5,64.4-36.3,88c-26.6,24.3-57.9,32.6-93.1,27.8c-4.1-0.6-5.6-2.3-5.6-6.8C50,183.7,50,127.2,49.9,70.8
	C49.9,68.8,50.5,66.8,49.2,65z M122.3,206c26.5,0,47.8-21.1,47.8-47.4c0.1-26.3-21.2-47.7-47.6-47.7c-26.4,0-47.8,21.1-48,47.4
	C74.4,184.4,96.1,206,122.3,206z"/>
<path class="st13" d="M49.2,65c1.3,1.8,0.7,3.9,0.7,5.8c0,56.5,0.1,112.9-0.1,169.4c0,4.5,1.5,6.2,5.6,6.8
	c35.3,4.8,66.6-3.5,93.1-27.8c25.9-23.7,38-53.2,36.3-88c-0.9-19.1-7-36.8-17.8-52.7c-5.4-8-11.1-15.7-18.7-21.9
	c-2.4-2-4.7-2.7-7.7-2.7c-26.8,0.1-53.6,0-80.4,0c-1.8,0-3.7,0.5-5.3-0.7c4.8-0.1,9.6-0.3,14.5-0.2c40.3,0,80.6,0.2,120.9,0.1
	c4.4,0,5.5,1.2,5.5,5.6c-0.2,63.6-0.2,127.3-0.3,190.9c0,3.7-0.1,7.3,0.3,11c0.3,3.5-1,4.5-4.5,4.5c-20.7-0.1-41.3-0.1-62-0.1
	c-25.2,0-50.3,0-75.5,0c-3.1,0-4.8-0.3-4.8-4.2c0-64.6-0.1-129.3-0.1-193.9C49,66.3,49.1,65.6,49.2,65z"/>
<path class="st14" d="M223.7,238.1c0,0.6,0,1.1-0.1,1.7c-2.3,0-4.8,1.2-6.8-0.9c1-1.8,0.8-3.9,0.8-5.9c0-64.3,0-128.5,0-192.8
	c0-6.1-0.8-6.9-6.9-6.9c-41.8,0-83.6,0-125.3,0c-2.2,0-4.3-0.1-6.5-0.2c-0.2-4.3,3.1-3,5.3-3c47.9-0.1,95.9,0,143.8,0
	c8.9,0,8.9,0,8.9,8.8c0,27.3,0,54.6,0,81.9c0,7.8,0,7.8-7.3,9.8c-0.3,0.1-0.4,0.5-0.7,0.7c-0.8,0-1.6,0-2.4,0
	c-0.5,0.3-1,0.5-1.5,0.8c-0.3,0.3-0.6,0.7-0.9,1c-0.3,0.4-0.7,0.7-1,1.1c0,33.4,0,66.7-0.1,100.1C223,235.5,222.8,236.9,223.7,238.1
	z"/>
<path class="st15" d="M229,131.2c0.2-0.2,0.4-0.6,0.7-0.7c7.3-2.1,7.3-2,7.3-9.8c0-27.3,0-54.6,0-81.9c0-8.8,0-8.8-8.9-8.8
	c-47.9,0-95.9,0-143.8,0c-2.2,0-5.5-1.3-5.3,3c-1.8,0.2-1.8-1-1.8-2.2c0-1.2,0.7-1.8,1.8-1.8c1.2,0,2.3,0,3.5,0
	c49.9,0,99.9,0.1,149.8-0.1c4.7,0,5.7,1.4,5.6,5.8c-0.2,29.5-0.1,58.9-0.1,88.4C237.9,131.9,237.9,131.9,229,131.2z"/>
<path class="st16" d="M223.7,238.1c-0.9-1.2-0.7-2.5-0.7-3.8c0-33.4,0-66.7,0.1-100.1c0.3-0.1,0.6-0.1,0.9-0.1
	c0,33.5,0,67.1,0,100.6C224,235.8,223.8,236.9,223.7,238.1z"/>
<path class="st16" d="M216.9,238.9c2,2.1,4.5,0.9,6.8,0.9c-0.9,2.2-2.8,1.1-4.3,1.2c-5.1,0.1-10.2,0.1-15.3-0.2
	C208.2,239.3,212.9,241.6,216.9,238.9z"/>
<path class="st17" d="M50.1,53.3c-0.3,0.2-0.5,0.5-0.8,0.7C49.2,53.4,49.4,53.2,50.1,53.3z"/>
<path class="st15" d="M225,132c0.5-0.3,1-0.5,1.5-0.8C226,131.5,225.5,131.7,225,132z"/>
<path class="st15" d="M224,134c-0.3,0-0.6,0.1-0.9,0.1c0.3-0.4,0.7-0.7,1-1.1C224.2,133.4,224.1,133.7,224,134z"/>
<path class="st18" d="M122.3,206c-26.2,0-47.9-21.6-47.7-47.7c0.2-26.3,21.6-47.4,48-47.4c26.3,0,47.6,21.4,47.6,47.7
	C170.1,184.9,148.7,206,122.3,206z M82,158.2c-0.1,22.6,17.9,40.7,40.5,40.7c22.3,0,40.5-18.1,40.5-40.2c0-22.4-17.9-40.5-40.1-40.6
	C100.1,117.9,82.1,135.7,82,158.2z"/>
<path class="st19" d="M149.6,158.3c0,10.4,0,10.7-10.7,10.3c-5.1-0.2-6.3,1.2-6.2,6.2c0.4,10.7,0.1,10.7-10.9,10.7
	c-1.3,0-2.7-0.1-4,0c-4.3,0.3-5.8-1.8-5.8-6c0-10.6-0.1-10.8-10.7-10.7c-4.5,0-6.2-1.6-6.2-6.1c-0.1-13.9-0.2-14,13.7-14.5
	c2.6-0.1,3.7-0.7,3.3-3.4c0-0.2,0-0.3,0-0.5c0.6-4-2.1-9.4,1.5-11.8c4.6-3,10.7-1,16.1-1c2.5,0,3.1,2.1,3.1,4.3c0,3,0.2,6,0,9
	c-0.2,2.7,0.9,3.6,3.4,3.3c1-0.1,2,0,3,0C149.6,148.2,149.6,148.2,149.6,158.3z M109.8,161.8c1,0,2,0.1,3,0c4.8-0.6,6.8,1.4,6.3,6.2
	c-0.2,2.3,0.1,4.7-0.1,7c-0.2,2.6,0.8,3.5,3.4,3.5c2.4,0,3.1-0.9,3.2-3.2c0.2-4.1-1.8-9.1,1-12.1c3.1-3.3,8.2-1.1,12.4-1.3
	c2.8-0.1,3.3-1.3,3.3-3.7c0-2.4-0.9-3.1-3.3-3.1c-4.1-0.1-9,1.7-12.1-1c-3.4-3-1.2-8.2-1.4-12.4c-0.1-2.5-0.8-3.5-3.4-3.5
	c-2.8,0-3.3,1.3-3.2,3.7c0.1,2.8,0,5.7,0,8.5c0.1,3.3-1.3,4.9-4.8,4.8c-3.2-0.1-6.3,0.1-9.5,0c-2.3-0.1-2.8,1.1-2.8,3.1
	c0.1,1.9-0.1,3.8,2.7,3.7C106.5,161.7,108.2,161.8,109.8,161.8z"/>
<path class="st14" d="M109.8,161.8c-1.7,0-3.3-0.1-5,0c-2.8,0.1-2.6-1.8-2.7-3.7c-0.1-2,0.5-3.1,2.8-3.1c3.2,0.1,6.3-0.1,9.5,0
	c3.4,0.1,4.8-1.5,4.8-4.8c-0.1-2.8,0.1-5.7,0-8.5c-0.1-2.4,0.4-3.7,3.2-3.7c2.7,0,3.3,1,3.4,3.5c0.2,4.2-2,9.4,1.4,12.4
	c3.1,2.7,8,0.8,12.1,1c2.3,0.1,3.3,0.7,3.3,3.1c0,2.4-0.5,3.5-3.3,3.7c-4.2,0.2-9.4-2-12.4,1.3c-2.8,3-0.8,8-1,12.1
	c-0.1,2.3-0.9,3.2-3.2,3.2c-2.6,0.1-3.6-0.9-3.4-3.5c0.2-2.3-0.2-4.7,0.1-7c0.5-4.8-1.6-6.8-6.3-6.2
	C111.9,161.9,110.8,161.8,109.8,161.8z"/>
<path d="M1735.1-264.9c-2.4,3.9-6.4,4.6-10.4,4.7c-44.8,0.1-89.5,0.1-134.3,0c-2.1,0-4.3-0.6-6.4-0.9c-5.9-3.8-8-9.1-8-16.1
	c0.2-37.8,0.1-75.6,0.1-113.5c0-11.7,5.1-16.8,16.7-16.8c1,0,2-0.1,3,0c3.7,0.4,5.3-0.7,5.4-4.9c0.2-6,4.4-10.5,9.5-11.3
	c4.6-0.8,9.4,2.4,11.9,7.9c1,8.8,1,8.8,10.1,8.8c18.7,0,37.5,0.1,56.2,0.1c-5.4,3.5-11.2,1.8-16.9,1.4c-14-1-28-0.3-41.9-0.3
	c-0.5,0-1,0.3-1.4,0.5c-5.5,2.6-6.4,2.4-7.7-4.9c-0.2-1.1,0.2-2.4-0.1-3.5c-0.8-3.3-2.5-6.1-5.8-7.6c-3.1-1.4-4.7,0-5.7,2.7
	c-0.1,0.3-0.8,0.6-1.3,0.6c-4.5,0.5-5,3.8-5.2,7.2c-0.2,4.2-2.5,5.9-6.5,5.8c-1.2,0-2.3,0.1-3.5,0c-10-1-15.3,4.8-15.2,15.3
	c0.4,37.7,0.2,75.3,0.2,113c0,9.5,5.4,14.7,15,14.7c34.5,0,69,0.2,103.5-0.1c12.8-0.1,25.9,2.6,38.3-3.1L1735.1-264.9z"/>
<path d="M1738.4-397.9c0.2,2.8,0.5,5.6,0.5,8.4c0,37.7,0,75.5,0,113.2c0,4.3-0.4,8.3-3.9,11.3c0,0-0.3-0.3-0.3-0.3
	c3.6-8.8,2-17.9,2.2-27c0.2-11,0-22,0-33c0-22.1-0.3-44.3,0.1-66.4c0.1-7.6-4.7-14.6-13.8-13.5c-2.6,0.3-5.3,0.1-8,0
	c-2.4-0.1-4.6-1-4.9-3.4c-0.4-3.4-2.2-6.2-3.4-9.2c-1.6-3.8-6.1-5.2-9.5-3c-4.6,3-6.7,7.4-7.5,12.6c-0.2-0.4-0.4-0.7-0.5-1.1
	c0.5-3.4,0-7.2,2.5-10c2.9-3.3,6.3-5.5,11-4.2c5.1,1.3,8.8,5.2,8.9,10.7c0,4.5,2,5.5,5.8,5.2c1.7-0.1,3.3,0,5-0.1
	C1730-407.9,1735.5-405,1738.4-397.9z"/>
<path d="M1689-406.9c0.3-0.4,0.7-0.7,1-1.1c0.8-5.2,2.9-9.6,7.5-12.6c3.4-2.3,8-0.9,9.5,3c1.2,3,3,5.8,3.4,9.2
	c0.3,2.4,2.5,3.3,4.9,3.4c2.7,0.1,5.4,0.3,8,0c9-1.1,13.9,6,13.8,13.5c-0.4,22.1-0.1,44.3-0.1,66.4c0,11,0.2,22,0,33
	c-0.2,9,1.4,18.2-2.2,27c-12.4,5.7-25.5,3-38.3,3.1c-34.5,0.4-69,0.1-103.5,0.1c-9.7,0-15-5.3-15-14.7c0-37.7,0.2-75.3-0.2-113
	c-0.1-10.5,5.2-16.4,15.2-15.3c1.2,0.1,2.3,0,3.5,0c4,0.1,6.3-1.6,6.5-5.8c0.2-3.4,0.7-6.8,5.2-7.2c0.5,0,1.2-0.3,1.3-0.6
	c1.1-2.8,2.7-4.2,5.7-2.7c3.3,1.5,5,4.3,5.8,7.6c0.3,1.1-0.1,2.4,0.1,3.5c1.3,7.3,2.2,7.5,7.7,4.9c0.4-0.2,0.9-0.5,1.4-0.5
	c14,0,28-0.6,41.9,0.3C1677.8-405.1,1683.6-403.4,1689-406.9z M1731.1-397.1c-0.3-1.7-1.3-2.8-3.1-3c-2.9-1.6-6-0.7-9.1-0.6
	c-0.9,0-1.9,0-2.8,0c-1,0-2,0-3,0c-2.1,1-1.1,2.9-1.1,4.4c-0.2,4.4,0.2,8.9-0.9,13.2c-0.2,0.2-0.2,0.4-0.2,0.6
	c-0.3,0.5-0.6,0.9-1,1.4c-3.6,4.1-7.9,6.1-13.3,3.8c-5.3-2.3-6.9-6.8-6.8-12.2c0.1-2.2-0.2-4.3,0.1-6.5c0.5-4.1-1.3-5.1-5.1-5
	c-16.3,0.2-32.6,0.1-48.9,0.1c-12.5,0-12.5,0-12.8,12.2c-0.2,7.2-4.7,12.3-11,12.4c-5.9,0.1-10.9-5.4-11.1-12.4c-0.1-3,0-6,0-9
	c0-1.1,0.2-2.3-1.1-3.1c-3.2-1.8-13.4,0.5-16,3.5c-2.4,6.6-0.7,13.4-1,20.1c0,1.7,0,3.3,0,5c0.4,3.3,3.1,2,4.7,2
	c46.6,0.1,93.2,0.1,139.9,0c1.6,0,3.4,0.7,4.6-1c1.5-7,0.3-14.1,0.6-21.1C1732.8-393.9,1732.6-395.7,1731.1-397.1L1731.1-397.1z
	 M1617.1-407c1.4-1.6,1.4-3.3,0-4.9c-0.9-2.9-2.1-5.6-5.8-4.9c-3.6,0.7-3.6,3.9-3.6,6.8c0,6.8,0,13.7,0,20.5c0,3.2,0.2,6.5,4.3,6.6
	c4.4,0.2,4.8-3.2,4.9-6.6C1616.9-395.4,1617-401.2,1617.1-407z M1657.6-364c-23.3,0-46.6,0-69.9,0c-3.1,0-4.8,0.4-4.8,4.3
	c0.1,28.3,0.1,56.6,0.1,84.9c0,5.2,2.7,7.8,7.9,7.8c44.1,0,88.3,0,132.4,0c6.7,0,8.7-2,8.7-8.5c0-27.8-0.1-55.6,0.1-83.4
	c0-3.9-1-5.1-5-5.1C1703.9-363.9,1680.8-364,1657.6-364z M1705.3-399.5C1705.3-399.5,1705.3-399.5,1705.3-399.5
	c-0.1-4.2,0.1-8.3-0.1-12.5c-0.1-2.7-1.2-5-4.5-4.9c-3.1,0.1-4.5,2.2-4.5,4.9c-0.1,8-0.1,16,0,24c0,2.9,1.4,5.3,4.8,5.2
	c3.2-0.1,4.2-2.5,4.3-5.2C1705.4-391.9,1705.3-395.7,1705.3-399.5z"/>
<path class="st20" d="M1657.6-364c23.1,0,46.3,0.1,69.4-0.1c4,0,5,1.2,5,5.1c-0.1,27.8-0.1,55.6-0.1,83.4c0,6.6-2,8.5-8.7,8.5
	c-44.1,0-88.3,0-132.4,0c-5.2,0-7.9-2.6-7.9-7.8c0-28.3,0-56.6-0.1-84.9c0-3.8,1.7-4.3,4.8-4.3C1611-363.9,1634.3-364,1657.6-364z
	 M1711-346.4c0-1,0-2,0-3c0-9.2-0.3-9.5-9.6-9.5c-12.5,0-12.5,0-12.5,12.7c0,11.3,0,11.3,11.2,11.3C1711-335,1711-335,1711-346.4z
	 M1654.1-284.9c-0.2-10.4,2.6-12.3-12-11.9c-1.5,0-3,0-4.5,0c-3.4,0-5.4,1.7-5.5,5.1c-0.2,4.6-0.2,9.3,0,13.9c0.2,2.9,1.7,5,5.1,4.8
	c1.7-0.1,3.3,0,5,0C1654.7-272.9,1654.2-272.3,1654.1-284.9z M1632-316c0,1.7,0,3.3,0,5c0.1,5.9,1.2,7.1,6.9,7.1
	c3.1,0,6.3-0.1,9.4,0c3.9,0.1,5.8-1.6,5.8-5.6c0-3.8-0.1-7.6,0.4-11.4c0.6-4.5-1.8-6.8-6.2-6.9c-3.3-0.1-6.6,0-9.9,0
	c-4.3,0-6.4,2.1-6.4,6.4C1632-319.7,1632-317.9,1632-316z M1660.9-316.3c0,1.8,0,3.7,0,5.5c0,5.9,0.9,6.7,6.6,6.8
	c3.2,0,6.3-0.2,9.5,0c4.1,0.3,5.9-1.8,6-5.5c0.1-4.3,0.1-8.7,0-13c-0.1-3.6-2.1-5.4-5.7-5.4c-1.5,0-3,0-4.5,0
	C1660.9-327.9,1660.9-327.9,1660.9-316.3z M1660.9-285.2c0,1.8,0,3.7,0,5.5c0,5.8,0.9,6.7,6.6,6.8c3.3,0,6.7-0.1,10,0
	c3.6,0.1,5.3-1.9,5.4-5.1c0.2-4.5,0.1-9,0-13.5c-0.1-3.4-1.9-5.2-5.3-5.4c-1.7-0.1-3.3,0-5,0
	C1660.9-296.9,1660.9-296.9,1660.9-285.2z M1660.9-346.9c-0.1,12.3-0.9,11.9,11.9,12c11.8,0,10.1-0.8,10.1-13.8
	c0-9.7-0.5-10.1-10.1-10.2C1658.4-359.2,1661-357.3,1660.9-346.9z M1654.1-346.9c-0.1-10.3,2.5-12.3-12-12c-1.5,0-3,0-4.5,0
	c-3.3,0.1-5.4,1.9-5.5,5.2c-0.2,4.6-0.2,9.3,0,13.9c0.2,3,1.8,4.9,5.2,4.8c1.7-0.1,3.3,0,5,0
	C1654.9-334.8,1654.2-334.5,1654.1-346.9z M1711.1-315.7c0.1-12.7,0.6-12.3-12.2-12.2c-1.5,0-3-0.1-4.5,0c-3.5,0.2-5.6,1.7-5.4,5.6
	c0.1,3.6,0,7.3,0,11c0,6.7,0.7,7.4,7.5,7.4c1,0,2,0,3,0C1711.1-304,1711.1-304,1711.1-315.7z M1626-315.7c0-1.5,0-3,0-4.5
	c-0.1-6.6-1.2-7.7-7.9-7.7c-2.7,0-5.3,0-8,0c-4.1-0.1-6.2,1.9-6.2,6c0,3.8,0.2,7.7,0,11.5c-0.2,4.7,1.7,6.9,6.5,6.5
	c1.3-0.1,2.7,0,4,0C1626-304,1626-304,1626-315.7z M1711-284.5c0-1.2,0-2.3,0-3.5c0-8.5-0.5-9-9.1-9c-13,0-13,0-13,13.2
	c0,10.7,0,10.7,10.7,10.7C1711-273,1711-273,1711-284.5z M1604-285.2c0,2,0.1,4,0,6c-0.3,4.4,1.7,6.5,6.2,6.3c3.7-0.2,7.3,0,11-0.1
	c3.2,0,4.9-1.8,4.9-5c0-4.5,0-9,0-13.5c0-3.4-1.9-5.2-5.2-5.4c-1.7-0.1-3.3,0-5,0C1604-296.9,1604-296.9,1604-285.2z"/>
<path class="st14" d="M1713.1-400.6c1,0,2,0,3,0c0.9,0.8,1.9,0.8,2.8,0c3.1-0.1,6.2-1,9.1,0.6c0.1,2,1.1,3,3.1,3c0,0,0,0,0,0
	c0,8.7,0,17.4-0.1,26.1c-47.3,0-94.5,0-141.8,0c-2.2,0-4.3,0.2-6.3-1c0-1.7,0-3.3,0-5c1.5-1.1,1-2.7,1.1-4.1c0-5.3,0-10.7,0-16
	c2.5-3,12.8-5.3,16-3.5c1.3,0.7,1.1,1.9,1.1,3.1c0,3,0,6,0,9c0.2,7,5.2,12.5,11.1,12.4c6.3-0.1,10.8-5.2,11-12.4
	c0.3-12.2,0.3-12.2,12.8-12.2c16.3,0,32.6,0.1,48.9-0.1c3.8,0,5.6,1,5.1,5c-0.3,2.1,0,4.3-0.1,6.5c-0.2,5.4,1.4,9.9,6.8,12.2
	c5.4,2.3,9.7,0.3,13.3-3.8c0.3-0.5,0.6-0.9,1-1.4c-0.1-0.2,0-0.4,0.2-0.6c2.4-0.3,2-2.2,2-3.8C1713-391.4,1713-396,1713.1-400.6z"/>
<path class="st21" d="M1617.1-407c-0.1,5.8-0.1,11.7-0.2,17.5c-0.1,3.4-0.5,6.8-4.9,6.6c-4-0.2-4.3-3.5-4.3-6.6c0-6.8,0-13.7,0-20.5
	c0-2.9,0-6,3.6-6.8c3.7-0.7,4.9,2,5.8,4.9C1617.1-410.3,1617.1-408.7,1617.1-407z"/>
<path class="st22" d="M1705.3-399.5c0,3.8,0.1,7.7,0,11.5c-0.1,2.7-1.1,5.1-4.3,5.2c-3.4,0.1-4.8-2.2-4.8-5.2c-0.1-8-0.1-16,0-24
	c0-2.8,1.5-4.9,4.5-4.9c3.2-0.1,4.3,2.3,4.5,4.9C1705.4-407.9,1705.2-403.7,1705.3-399.5C1705.3-399.5,1705.3-399.5,1705.3-399.5z"
	/>
<path class="st14" d="M1582.9-372c2,1.2,4.2,1,6.3,1c47.3,0,94.5,0,141.8,0c0.4,0,0.7,0,1.1,0c-1.2,1.7-3.1,1-4.6,1
	c-46.6,0-93.2,0-139.9,0C1586-370.1,1583.4-368.7,1582.9-372z"/>
<path class="st14" d="M1732.1-371c-0.4,0-0.7,0-1.1,0c0-8.7,0-17.4,0.1-26.1c1.5,1.3,1.7,3.1,1.6,5
	C1732.4-385.1,1733.6-378,1732.1-371z"/>
<path class="st14" d="M1713.1-400.6c0,4.6,0,9.2-0.1,13.8c0,1.6,0.5,3.5-2,3.8c1.2-4.4,0.8-8.8,0.9-13.2
	C1712-397.7,1711-399.6,1713.1-400.6z"/>
<path class="st14" d="M1583.9-397.1c0,5.3,0.1,10.7,0,16c0,1.4,0.4,3.1-1.1,4.1C1583.2-383.7,1581.5-390.5,1583.9-397.1z"/>
<path class="st14" d="M1731.1-397.1c-2,0-3-1-3.1-3C1729.8-399.8,1730.7-398.7,1731.1-397.1z"/>
<path class="st14" d="M1718.9-400.6c-0.9,0.8-1.9,0.8-2.8,0C1717-400.6,1718-400.6,1718.9-400.6z"/>
<path class="st23" d="M1710.8-382.4c-0.3,0.5-0.6,0.9-1,1.4C1710.2-381.5,1710.5-382,1710.8-382.4z"/>
<path class="st24" d="M1711-346.4c0,11.5,0,11.5-10.9,11.5c-11.2,0-11.2,0-11.2-11.3c0-12.7,0-12.7,12.5-12.7c9.3,0,9.6,0.3,9.6,9.5
	C1711-348.4,1711-347.4,1711-346.4z"/>
<path class="st24" d="M1654.1-284.9c0.1,12.6,0.5,12.1-11.9,12c-1.7,0-3.3-0.1-5,0c-3.4,0.1-5-1.9-5.1-4.8c-0.3-4.6-0.2-9.3,0-13.9
	c0.1-3.4,2.1-5.1,5.5-5.1c1.5,0,3,0,4.5,0C1656.7-297.2,1653.9-295.3,1654.1-284.9z"/>
<path class="st25" d="M1632-316c0-1.8,0-3.6,0-5.5c0-4.3,2.1-6.4,6.4-6.4c3.3,0,6.6-0.1,9.9,0c4.5,0.1,6.9,2.5,6.2,6.9
	c-0.6,3.8-0.5,7.6-0.4,11.4c0,4.1-1.9,5.7-5.8,5.6c-3.1-0.1-6.3,0-9.4,0c-5.7,0-6.8-1.2-6.9-7.1C1632-312.7,1632-314.4,1632-316z
	 M1647.9-315.3c0.2-3.2,0.7-6-4.2-5.9c-4.2,0-5.1,1.5-4.9,5.2c0.2,3.2-0.5,6.1,4.6,6.1C1647.9-310,1648.4-312,1647.9-315.3z"/>
<path class="st26" d="M1660.9-316.3c0-11.6,0-11.6,11.8-11.6c1.5,0,3,0,4.5,0c3.6,0,5.6,1.8,5.7,5.4c0.1,4.3,0.1,8.7,0,13
	c-0.1,3.8-1.9,5.8-6,5.5c-3.1-0.2-6.3,0-9.5,0c-5.7-0.1-6.5-0.9-6.6-6.8C1660.9-312.6,1660.9-314.4,1660.9-316.3z M1675.9-316
	c0.8-3.4-0.1-5.1-4.4-5.3c-5.2-0.2-4.4,3-4.5,6.1c-0.1,3.2,0,5.2,4.3,5.2C1676.1-309.9,1676.5-312.1,1675.9-316z"/>
<path class="st26" d="M1660.9-285.2c0-11.7,0-11.7,11.8-11.7c1.7,0,3.3-0.1,5,0c3.4,0.2,5.2,2,5.3,5.4c0.1,4.5,0.2,9,0,13.5
	c-0.2,3.2-1.8,5.2-5.4,5.1c-3.3-0.1-6.7,0-10,0c-5.7-0.1-6.6-1-6.6-6.8C1660.9-281.6,1660.9-283.4,1660.9-285.2z M1667.1-284.9
	c-0.4,3.4-0.4,6.1,4.5,6c4.1-0.1,4.7-1.8,4.4-5.1c-0.2-3,0.9-6.3-4.4-6.2C1667.3-290.2,1666.5-288.5,1667.1-284.9z"/>
<path class="st26" d="M1660.9-346.9c0.1-10.4-2.5-12.3,12-12.1c9.6,0.2,10.1,0.5,10.1,10.2c0,13,1.7,13.8-10.1,13.8
	C1660-335,1660.8-334.6,1660.9-346.9z M1667.1-346.4c-0.5,3.3-0.1,5.4,4.4,5.5c4.5,0,4.6-2.2,4.6-5.5c0-3.5,0-5.8-4.8-5.8
	C1666.5-352.2,1666.9-349.6,1667.1-346.4z"/>
<path class="st25" d="M1654.1-346.9c0.1,12.5,0.8,12.1-11.8,12c-1.7,0-3.3-0.1-5,0c-3.4,0.2-5-1.8-5.2-4.8c-0.3-4.6-0.2-9.3,0-13.9
	c0.1-3.3,2.2-5.1,5.5-5.2c1.5-0.1,3,0,4.5,0C1656.6-359.3,1654-357.3,1654.1-346.9z M1647.9-346.4c0.5-3.3,0.5-5.9-4.5-5.8
	c-4,0.1-4.8,1.6-4.5,5.1c0.3,3-0.9,6.3,4.4,6.2C1647.5-341,1648.6-342.6,1647.9-346.4z"/>
<path class="st26" d="M1711.1-315.7c0,11.7,0,11.7-11.6,11.8c-1,0-2,0-3,0c-6.8,0-7.5-0.7-7.5-7.4c0-3.7,0.1-7.3,0-11
	c-0.1-3.9,2-5.4,5.4-5.6c1.5-0.1,3,0,4.5,0C1711.7-328.1,1711.2-328.5,1711.1-315.7z M1704.8-315.8c1-4.2-0.8-5.3-5-5.4
	c-4.3-0.1-4.9,1.8-4.8,5.3c0.1,3.5,0.1,6,4.9,6C1704.5-310,1705.5-311.9,1704.8-315.8z"/>
<path class="st27" d="M1626-315.7c0,11.7,0,11.7-11.7,11.7c-1.3,0-2.7-0.1-4,0c-4.8,0.4-6.7-1.8-6.5-6.5c0.2-3.8,0-7.6,0-11.5
	c0-4.1,2-6.1,6.2-6c2.7,0.1,5.3,0,8,0c6.7,0,7.9,1.2,7.9,7.7C1626-318.7,1626-317.2,1626-315.7z M1619.8-315.9
	c0.7-3.7-0.4-5.3-4.7-5.3c-4.3,0-5.4,1.4-5.2,5.5c0.1,3.7,0.5,5.9,5.1,5.8C1619.7-310,1620.3-312.2,1619.8-315.9z"/>
<path class="st28" d="M1711-284.5c0,11.5,0,11.5-11.4,11.5c-10.7,0-10.7,0-10.7-10.7c0-13.2,0-13.2,13-13.2c8.6,0,9.1,0.5,9.1,9
	C1711.1-286.8,1711-285.6,1711-284.5z M1704.8-284.7c0.8-3.9-0.4-5.6-4.8-5.6c-4.5,0-5.1,1.8-5,5.6c0,3.8,0.7,5.7,5.2,5.7
	C1704.8-278.9,1705.5-281,1704.8-284.7z"/>
<path class="st29" d="M1604-285.2c0-11.7,0-11.7,11.8-11.7c1.7,0,3.3-0.1,5,0c3.4,0.2,5.2,2,5.2,5.4c0,4.5,0,9,0,13.5
	c0,3.2-1.7,5-4.9,5c-3.7,0-7.3-0.1-11,0.1c-4.5,0.2-6.4-1.9-6.2-6.3C1604.1-281.2,1604-283.2,1604-285.2z M1619.8-284.7
	c0.3-3.5,0.3-6.2-4.6-6.3c-4.9-0.1-5.4,2.3-5.3,6.1c0.1,3.6,0.2,6,5,5.9C1619.5-279,1620.4-281.1,1619.8-284.7z"/>
<path class="st30" d="M1647.9-315.3c0.5,3.3,0,5.3-4.5,5.4c-5.1,0.1-4.4-2.9-4.6-6.1c-0.2-3.7,0.7-5.2,4.9-5.2
	C1648.6-321.3,1648.1-318.5,1647.9-315.3z"/>
<path class="st31" d="M1675.9-316c0.6,3.9,0.1,6.1-4.6,6c-4.3-0.1-4.5-2.1-4.3-5.2c0.1-3.1-0.7-6.2,4.5-6.1
	C1675.9-321.1,1676.7-319.4,1675.9-316z"/>
<path class="st32" d="M1667.1-284.9c-0.6-3.6,0.2-5.3,4.6-5.4c5.3-0.1,4.2,3.1,4.4,6.2c0.2,3.3-0.3,5-4.4,5.1
	C1666.7-278.8,1666.7-281.5,1667.1-284.9z"/>
<path class="st32" d="M1667.1-346.4c-0.2-3.2-0.6-5.8,4.2-5.8c4.8,0,4.9,2.3,4.8,5.8c0,3.3-0.1,5.5-4.6,5.5
	C1666.9-340.9,1666.6-343.1,1667.1-346.4z"/>
<path class="st30" d="M1647.9-346.4c0.7,3.8-0.3,5.4-4.6,5.5c-5.3,0.1-4.2-3.2-4.4-6.2c-0.3-3.4,0.5-5,4.5-5.1
	C1648.4-352.4,1648.4-349.7,1647.9-346.4z"/>
<path class="st33" d="M1704.8-315.8c0.7,3.9-0.4,5.8-4.9,5.9c-4.8,0.1-4.9-2.4-4.9-6c-0.1-3.6,0.5-5.4,4.8-5.3
	C1704-321.1,1705.8-320,1704.8-315.8z"/>
<path class="st34" d="M1619.8-315.9c0.5,3.7-0.1,6-4.8,6c-4.6,0-4.9-2.2-5.1-5.8c-0.2-4,0.9-5.5,5.2-5.5
	C1619.4-321.2,1620.5-319.6,1619.8-315.9z"/>
<path class="st34" d="M1704.8-284.7c0.6,3.7,0,5.8-4.7,5.7c-4.5-0.1-5.1-2-5.2-5.7c0-3.8,0.5-5.6,5-5.6
	C1704.5-290.2,1705.6-288.6,1704.8-284.7z"/>
<path class="st34" d="M1619.8-284.7c0.6,3.7-0.3,5.7-4.9,5.8c-4.8,0.1-4.9-2.4-5-5.9c-0.1-3.9,0.4-6.2,5.3-6.1
	C1620.2-290.9,1620.2-288.2,1619.8-284.7z"/>
</svg>
