<?xml version="1.0" encoding="utf-8"?>
<!-- Generator: Adobe Illustrator 26.3.1, SVG Export Plug-In . SVG Version: 6.00 Build 0)  -->
<svg version="1.1" id="Capa_1" xmlns="http://www.w3.org/2000/svg" xmlns:xlink="http://www.w3.org/1999/xlink" x="0px" y="0px"
	 viewBox="0 0 286 294" style="enable-background:new 0 0 286 294;" xml:space="preserve">
<style type="text/css">
	.st0{fill:#FFFFFF;}
	.st1{fill:#666666;}
	.st2{fill:#75BDE0;}
	.st3{fill:url(#SVGID_1_);}
	.st4{fill:url(#SVGID_00000121259351073705936350000017921834906507659648_);}
	.st5{fill:url(#SVGID_00000042708548770738405260000004437349230279107255_);}
	.st6{fill:url(#SVGID_00000038374221362933046610000004316086972703969438_);}
	.st7{fill:url(#SVGID_00000173140895906795686500000009981081999473761937_);}
	.st8{fill:url(#SVGID_00000132056865439919602680000001058481210193826453_);}
	.st9{fill:url(#SVGID_00000010275216053577926450000000960252105387193241_);}
	.st10{fill:url(#SVGID_00000080190746175643783530000004161305942216280230_);}
	.st11{fill:#0A0D0E;}
	.st12{fill:#74D8F7;}
	.st13{fill:#4D8799;}
	.st14{fill:#0E96CC;}
	.st15{fill:#34AACC;}
	.st16{fill:#2E8094;}
	.st17{fill:#5E91A1;}
	.st18{fill:#090B0D;}
	.st19{fill:#0E0E0E;}
	.st20{fill:#5C5F6F;}
	.st21{fill:#5D5F70;}
	.st22{fill:#5BB9B8;}
	.st23{fill:#F89B9B;}
	.st24{fill:#8C8E90;}
	.st25{fill:#8C8E8F;}
	.st26{fill:#8B8E90;}
	.st27{fill:#8C8D8F;}
	.st28{fill:#8B8D8F;}
	.st29{fill:#C6C9CB;}
	.st30{fill:#C6C9CA;}
	.st31{fill:#C5C8CA;}
	.st32{fill:#C2C5C7;}
	.st33{fill:#C3C6C8;}
	.st34{fill:#030202;}
	.st35{fill:#FDDDCD;}
	.st36{fill:#894343;}
	.st37{fill:#6B2C2C;}
	.st38{fill:#FCDDCD;}
	.st39{fill:#DB7979;}
	.st40{fill:#0E84A8;}
	.st41{fill:#FDCCBD;}
	.st42{fill:#F6C7B9;}
	.st43{fill:#F1C4B6;}
	.st44{fill:#F4C5B7;}
	.st45{fill:#050404;}
	.st46{fill:#070605;}
	.st47{fill:#020303;}
	.st48{fill:#E8F7F8;}
	.st49{fill:#C5EAED;}
	.st50{fill:#C4E8EB;}
</style>
<g>
	<path class="st0" d="M2364.5,508.8l-176.1,0.3c-8.6,0-15.5-6.9-15.5-15.5l-0.3-188.4c0-8.6,6.9-15.5,15.5-15.5l176.1-0.3
		c8.6,0,15.5,6.9,15.5,15.5l0.3,188.4C2380,501.9,2373,508.8,2364.5,508.8z"/>
	<g>
		<path class="st1" d="M2276.6,527.4c-22.4,0-44.9,0.1-67.3,0.1c-16.2,0-28.4-7.1-36.3-21.3c-3.8-6.8-4.6-14.3-4.6-21.8
			c-0.1-25.5-0.1-51-0.2-76.5c0-3.9,0.3-4.2,4.1-4.2c3,0,5.9,0,8.9,0c4.3,0,4.5,0.2,4.5,4.4c0,11-0.1,22-0.1,33
			c0,14.6,0,29.2,0.1,43.8c0,6.5,1.2,12.7,5.8,17.7c4.9,5.3,11,7.7,18.1,7.6c19.9,0,39.8-0.1,59.7-0.1c24.4,0,48.9-0.4,73.3,0.1
			c14,0.2,26.8-10.6,24.8-27.7c-0.3-2.5-0.3-5.1-0.2-7.6c0.1-20.6,0.2-41.3,0.3-61.9c0-1.5,0-3-0.2-4.4c-0.5-4.5,0-5.1,4.3-5.2
			c3.3,0,6.6,0.1,9.8,0c2.6-0.1,3.5,1,3.5,3.6c-0.1,9.9,0,19.9,0,29.8c0,14.7,0.1,29.4,0,44.1c0,5.1,0,10.2-1,15.2
			c-3.6,18.2-19.1,31.1-37.6,31.2C2322.9,527.3,2299.7,527.2,2276.6,527.4C2276.6,527.3,2276.6,527.3,2276.6,527.4z"/>
		<path class="st2" d="M2276.2,297.3c-13.1,0-26.2,0.1-39.3,0.1c-11.8,0-12.4-0.7-12.4-13.4c0-3-0.1-6,0.1-9c0.4-5.1,2-6.6,6.6-6.8
			c2.7-0.1,5.5-0.3,8.2-0.5c7.3-0.6,12.7-4.5,16.5-11.2c1.4-2.5,2.6-5,4-7.5c2.6-4.6,6.4-6.9,11.3-7c2.7-0.1,5.5,0.1,8.2-0.1
			c6.3-0.4,10.7,2.7,13.9,8.3c1.6,2.8,3.2,5.7,5,8.4c4.1,6.3,9.9,9.1,16.8,9.5c2.4,0.1,4.9,0,7.3,0.1c2.9,0.1,4.8,1.6,5.1,4.9
			c0.6,6.2,0.5,12.4,0.1,18.6c-0.2,3.1-1.9,5-5,5.2c-1.7,0.1-3.4,0.3-5.1,0.4C2303.9,297.3,2290.1,297.3,2276.2,297.3z"/>
		<path class="st1" d="M2384.6,344.9c0,10.2,0,20.3,0.1,30.5c0,2.9-0.9,4-3.8,3.9c-3.5-0.2-7-0.1-10.5,0c-2.4,0.1-3.3-0.7-3.3-3.3
			c0-20.6-0.2-41.3-0.4-61.9c-0.1-11.6-7.2-19.9-18.5-22.1c-3.1-0.6-6.3-0.4-9.5-0.3c-2.2,0-3.4-0.7-3.3-3.1c0.1-3.8,0-7.6,0-11.4
			c0-1.7,0.5-2.8,2.5-2.9c10.8-0.5,21.1,1.1,30.2,7.6c11.3,8.2,16.1,19.6,16.4,33.1C2384.8,325,2384.6,334.9,2384.6,344.9
			C2384.6,344.9,2384.6,344.9,2384.6,344.9z"/>
		<path class="st1" d="M2168,343.1c0.3-9.4-0.6-21,0.4-32.7c1.6-19.4,18.2-35.2,37.7-35.9c2.7-0.1,5.5,0,8.2-0.1
			c1.9,0,2.7,0.8,2.7,2.7c0,4.2,0,8.5,0.1,12.7c0,1.7-0.6,2.1-2.3,2.1c-3.5-0.1-7-0.2-10.4,0.4c-11.3,1.9-18.1,9.6-18.6,21.1
			c-0.9,20.3-0.2,40.6-0.4,60.9c0,5.2,0,5.2-5.3,5.2c-2.9,0-5.7-0.1-8.6,0c-2.6,0.1-3.5-0.9-3.5-3.5
			C2168.1,365.8,2168.1,355.5,2168,343.1z"/>
		<g>
			<g>
				<path class="st2" d="M2296.8,358.6l-2.4,0c-1.8,0-3.2-1.4-3.2-3.2l0-28c0-1.8,1.4-3.2,3.2-3.2l2.4,0c1.8,0,3.2,1.4,3.2,3.2l0,28
					C2300,357.1,2298.6,358.6,2296.8,358.6z"/>
				<path class="st2" d="M2278.4,342.6l0-2.4c0-1.8,1.4-3.2,3.2-3.2l28,0c1.8,0,3.2,1.4,3.2,3.2l0,2.4c0,1.8-1.4,3.2-3.2,3.2l-28,0
					C2279.8,345.8,2278.4,344.4,2278.4,342.6z"/>
			</g>
		</g>
		<g>
			<g>
				
					<linearGradient id="SVGID_1_" gradientUnits="userSpaceOnUse" x1="2412.002" y1="202.0496" x2="2412.002" y2="114.2172" gradientTransform="matrix(1 -1.586149e-03 1.586149e-03 1 -135.1457 219.7832)">
					<stop  offset="5.327789e-09" style="stop-color:#F89B9B"/>
					<stop  offset="0.214" style="stop-color:#F8A39B"/>
					<stop  offset="1" style="stop-color:#F8BC9B"/>
				</linearGradient>
				<path class="st3" d="M2163,391.3c0.1-2.5,2.2-4.6,4.8-4.9c12.1-1.1,24.3-0.9,36.4,0.4c3.6,0.4,5.3-0.1,6.7-2.4
					c9.3-16.2,18.8-32.4,28.2-48.6c0.4-0.8,0.9-1.5,1.4-2.2c1.9-2.7,4.6-3.8,7.9-3.2c3.4,0.6,5.1,2.7,5.6,5.5
					c1.6,9.6,3.1,19.2,4.6,28.8c1.6,10.1,3.2,20.1,4.8,30.2c0.4,0,0.3,0,0.7,0.1c2.2-5.9,4.4-11.8,6.4-17.8c0.9-2.5,2.3-4.5,5.4-5
					c3.4-0.6,6.1,0.5,8.1,3c2.6,3.2,5.3,6.4,7.8,9.7c1.2,1.5,2.1,2,3.6,0.3c6.4-6.9,13-13.8,19.4-20.7c4.6-5,10.3-4.7,13.8,0.9
					c4.6,7.2,9.3,14.4,13.9,21.7c0.9,1.4,1.6,2.1,3.3,0.8c1.6-1.2,3.6-1.1,5.5-1.1c11.6,0,23.3-0.1,34.9,0c2.6,0,4.8,2,4.9,4.5l0,0
					c0.2,2.8-2.1,5.1-4.9,5.1c-10.4,0.1-20.7,0-31.1,0c-2,0-3.4,0.6-4.5,2.1c-4.4,5.6-10.3,5.2-14-0.8c-4.5-7.2-9.1-14.3-13.8-21.4
					c-1.9-3-2.1-3-4.7-0.2c-5.9,6.2-11.8,12.5-17.6,18.8c-5.9,6.4-11.1,5.5-16.6-3c-0.9-1.5-2.2-2.7-3.5-3.9
					c-0.5-0.5-0.7-1.5-1.7-1.3c-0.8,0.2-0.8,1-1,1.6c-2.6,7.3-5.2,14.6-7.7,21.9c-0.4,1-0.7,2-1.1,3c-1.3,3.3-4,5.1-7.3,4.9
					c-3.7-0.2-6-2-6.8-5.7c-1-4.7-1.6-9.5-2.4-14.3c-0.1-0.7-0.2-1.3-0.3-2c-2.5-15.9-5-31.7-8.1-47.8c-2.3,3.9-4.6,7.9-6.9,11.8
					c-6.3,10.8-12.6,21.6-18.9,32.5c-1.9,3.3-5.1,4.1-8.8,4.1c-13.8,0-27.6,0.1-41.4,0C2165.3,396.7,2162.9,394.2,2163,391.3
					L2163,391.3z"/>
				
					<linearGradient id="SVGID_00000073716660313599337430000000203148763227664781_" gradientUnits="userSpaceOnUse" x1="2535.7109" y1="189.6659" x2="2535.7109" y2="160.453" gradientTransform="matrix(1 -1.586149e-03 1.586149e-03 1 -135.1457 219.7832)">
					<stop  offset="5.327789e-09" style="stop-color:#F89B9B"/>
					<stop  offset="0.214" style="stop-color:#F8A39B"/>
					<stop  offset="1" style="stop-color:#F8BC9B"/>
				</linearGradient>
				<path style="fill:url(#SVGID_00000073716660313599337430000000203148763227664781_);" d="M2400.8,376.2
					c-8.1,0-14.6,6.6-14.6,14.6c0,8.1,6.6,14.6,14.6,14.6s14.6-6.6,14.6-14.6C2415.4,382.7,2408.9,376.2,2400.8,376.2z
					 M2401.1,399.2c-4.8,0.1-8.5-3.4-8.5-8.1c-0.1-4.6,3.7-8.6,8.2-8.6c4.5,0,8.3,3.8,8.3,8.4
					C2409.2,395.5,2405.7,399.1,2401.1,399.2z"/>
				
					<linearGradient id="SVGID_00000078044639500022591700000008335406910684938410_" gradientUnits="userSpaceOnUse" x1="2287.854" y1="190.5914" x2="2287.854" y2="161.3786" gradientTransform="matrix(1 -1.586149e-03 1.586149e-03 1 -135.1457 219.7832)">
					<stop  offset="5.327789e-09" style="stop-color:#F89B9B"/>
					<stop  offset="0.214" style="stop-color:#F8A39B"/>
					<stop  offset="1" style="stop-color:#F8BC9B"/>
				</linearGradient>
				<path style="fill:url(#SVGID_00000078044639500022591700000008335406910684938410_);" d="M2153,377.5c-8.1,0-14.6,6.6-14.6,14.6
					c0,8.1,6.6,14.6,14.6,14.6c8.1,0,14.6-6.6,14.6-14.6C2167.6,384,2161,377.5,2153,377.5z M2153.3,400.5c-4.8,0.1-8.5-3.4-8.5-8.1
					c-0.1-4.6,3.7-8.6,8.2-8.6c4.5,0,8.3,3.8,8.3,8.4C2161.3,396.8,2157.9,400.4,2153.3,400.5z"/>
			</g>
		</g>
		<g>
			<path class="st2" d="M2220.5,484.3c-0.6,0.1-1.2,0.2-1.8,0.2c-0.6,0-1.2,0.1-1.8,0.1c-0.5,0-1.1,0-1.8-0.1
				c-0.6,0-1.2-0.1-1.8-0.2l-0.1-42.2l0.4-0.4l6.7,0l0,3.2c0,1.6,0,3.3,0,4.9c0,1.7,0,3.3,0,4.9L2220.5,484.3z M2238.6,441.7
				c0.1,0.4,0.2,0.9,0.3,1.4c0.1,0.5,0.1,1,0.1,1.4c0,1.1-0.3,2-1,2.5c-0.7,0.5-1.6,0.8-3,0.8l-9,0c-1.7,0-3.2,0-4.6,0
				c-1.4,0-2.7-0.1-3.9-0.1l0-5.9L2238.6,441.7z M2235.3,459.9c0.1,0.4,0.2,0.9,0.3,1.5c0.1,0.6,0.1,1,0.1,1.4c0,0.4,0,0.9-0.1,1.4
				c-0.1,0.6-0.1,1.1-0.3,1.5l-12.4,0c-0.8,0-1.6,0-2.6,0c-0.9,0-1.8,0-2.6,0l0-5.8c0.8,0,1.6,0,2.6,0c0.9,0,1.8,0,2.6,0
				L2235.3,459.9z"/>
			<path class="st2" d="M2242.3,441.7c0.5-0.1,1.1-0.2,1.8-0.2c0.7,0,1.2-0.1,1.7-0.1c0.5,0,1.1,0,1.8,0.1c0.7,0,1.3,0.1,1.8,0.2
				l0.1,42.6c-0.5,0.1-1.1,0.2-1.8,0.2c-0.7,0-1.3,0.1-1.8,0.1c-0.5,0-1.1,0-1.7-0.1c-0.7,0-1.3-0.1-1.8-0.2L2242.3,441.7z"/>
			
				<linearGradient id="SVGID_00000016762193509189606300000001344792079950353316_" gradientUnits="userSpaceOnUse" x1="2407.3369" y1="268.5142" x2="2407.3369" y2="225.3351" gradientTransform="matrix(1 -1.586149e-03 1.586149e-03 1 -135.1457 219.7832)">
				<stop  offset="5.327789e-09" style="stop-color:#F89B9B"/>
				<stop  offset="0.214" style="stop-color:#F8A39B"/>
				<stop  offset="1" style="stop-color:#F8BC9B"/>
			</linearGradient>
			<path style="fill:url(#SVGID_00000016762193509189606300000001344792079950353316_);" d="M2255,441.7c0.8-0.1,1.6-0.2,2.6-0.3
				c0.9,0,1.7-0.1,2.3-0.1c0.6,0,1.3,0,2.1,0.1c0.8,0,1.6,0.1,2.4,0.3l5.6,18.9c0.1,0.5,0.3,1.2,0.6,2.1c0.2,0.9,0.5,1.9,0.8,2.9
				c0.3,1,0.5,2,0.7,3c0.2,0.9,0.3,1.6,0.4,2.1l0.4,0c0.1-0.5,0.2-1.2,0.4-2.1c0.2-0.9,0.4-1.9,0.7-3c0.3-1,0.5-2,0.7-2.9
				c0.2-0.9,0.4-1.6,0.6-2.1l5.5-18.9c0.8-0.1,1.6-0.2,2.4-0.3c0.8,0,1.5-0.1,2.1-0.1c0.6,0,1.3,0,2.2,0.1c0.9,0,1.8,0.1,2.6,0.3
				l3.4,42.4c-0.5,0.1-1.1,0.2-1.8,0.3c-0.7,0.1-1.3,0.1-1.9,0.1c-0.5,0-1.1,0-1.6-0.1c-0.5,0-1-0.1-1.6-0.2l-1.4-22
				c-0.1-1.2-0.1-2.5-0.2-4.1c-0.1-1.5-0.1-3.1-0.2-4.6c-0.1-1.6-0.1-3-0.1-4.2l-0.4,0l-8.1,28.4c-0.5,0.1-1.1,0.2-1.8,0.2
				c-0.7,0.1-1.3,0.1-1.8,0.1c-0.5,0-1.1,0-1.8-0.1c-0.7-0.1-1.3-0.1-1.8-0.2l-8.2-28.4l-0.3,0c0,1.2-0.1,2.6-0.1,4.2
				c0,1.6-0.1,3.1-0.2,4.6c-0.1,1.5-0.1,2.9-0.2,4.1l-1.4,22c-0.5,0.1-1,0.1-1.6,0.2c-0.5,0-1.1,0.1-1.7,0.1c-0.6,0-1.2,0-1.8-0.1
				c-0.6-0.1-1.2-0.2-1.7-0.3L2255,441.7z"/>
			<path class="st2" d="M2296.3,442.2l0.4-0.4l6.5,0l0,5.9c0,0.9,0,1.6,0,2.2c0,0.6,0,1.3,0,2.1l0,23.2c0,0.6,0,1.1,0,1.6
				c0,0.5,0,1.1,0,1.7l0,5.9l-2.9,0c-1.3,0-2.3-0.4-3-1.2c-0.7-0.8-1.1-1.8-1.1-3.2L2296.3,442.2z M2322,441.8
				c0.1,0.5,0.2,1,0.2,1.5c0,0.5,0,0.9,0,1.3c0,0.4,0,0.9-0.1,1.5c-0.1,0.6-0.2,1.2-0.4,1.7l-14.5,0c-0.5,0-1.1,0-1.9,0
				c-0.8,0-1.6,0-2.4,0c-0.8,0-1.5,0-2.1-0.1l0-5.9L2322,441.8z M2318.6,459.9c0.1,0.5,0.2,1,0.3,1.5c0.1,0.6,0.1,1,0.1,1.4
				c0,0.4,0,0.9-0.1,1.4c-0.1,0.5-0.2,1-0.3,1.5l-11.4,0c-0.5,0-1.1,0-1.9,0c-0.8,0-1.6,0-2.4,0c-0.8,0-1.5,0-2.1,0l0-5.7
				c0.6,0,1.3,0,2.1,0c0.8,0,1.6,0,2.4,0c0.8,0,1.4,0,1.9,0L2318.6,459.9z M2323.4,478.4c0,2.1-0.3,3.7-1,4.6
				c-0.7,1-1.9,1.4-3.7,1.4l-17.8,0l0-5.8c1-0.1,2.1-0.1,3.1-0.2c1-0.1,2.2-0.1,3.5-0.1L2323.4,478.4z"/>
			<path class="st2" d="M2334.7,484.4l-3,0c-1.2,0-2.2-0.4-3-1.1c-0.8-0.8-1.2-1.8-1.2-3.3l-0.1-38.2l0.4-0.4l2.7,0
				c1.5,0,2.5,0.4,3.1,1.1c0.6,0.7,0.9,1.9,0.9,3.5L2334.7,484.4z M2352.4,478.2c0,2.4-0.4,4-1.1,4.9c-0.7,0.9-2,1.3-3.7,1.3
				l-15.9,0l-3.7-5.2c2-0.3,4.1-0.6,6.3-0.7c2.2-0.2,4.2-0.2,5.9-0.2L2352.4,478.2z"/>
		</g>
	</g>
</g>
<g>
	<path class="st0" d="M1477.5,673.8l-176.1,0.3c-8.6,0-15.5-6.9-15.5-15.5l-0.3-188.4c0-8.6,6.9-15.5,15.5-15.5l176.1-0.3
		c8.6,0,15.5,6.9,15.5,15.5l0.3,188.4C1493,666.9,1486.1,673.8,1477.5,673.8z"/>
	<g>
		<path class="st1" d="M1389.7,692.4c-22.4,0-44.9,0.1-67.3,0.1c-16.2,0-28.4-7.1-36.3-21.3c-3.8-6.8-4.6-14.3-4.6-21.8
			c-0.1-25.5-0.1-51-0.2-76.5c0-3.9,0.3-4.2,4.1-4.2c3,0,5.9,0,8.9,0c4.3,0,4.5,0.2,4.5,4.4c0,11-0.1,22-0.1,33
			c0,14.6,0,29.2,0.1,43.8c0,6.5,1.2,12.7,5.8,17.7c4.9,5.3,11,7.7,18.1,7.6c19.9,0,39.8-0.1,59.7-0.1c24.4,0,48.9-0.4,73.3,0.1
			c14,0.2,26.8-10.6,24.8-27.7c-0.3-2.5-0.3-5.1-0.2-7.6c0.1-20.6,0.2-41.3,0.3-61.9c0-1.5,0-3-0.2-4.4c-0.5-4.5,0-5.1,4.3-5.2
			c3.3,0,6.6,0.1,9.8,0c2.6-0.1,3.5,1,3.5,3.6c-0.1,9.9,0,19.9,0,29.8c0,14.7,0.1,29.4,0,44.1c0,5.1,0,10.2-1,15.2
			c-3.6,18.2-19.1,31.1-37.6,31.2C1436,692.3,1412.8,692.2,1389.7,692.4C1389.7,692.3,1389.7,692.3,1389.7,692.4z"/>
		<path class="st2" d="M1389.3,462.3c-13.1,0-26.2,0.1-39.3,0.1c-11.8,0-12.4-0.7-12.4-13.4c0-3-0.1-6,0.1-9c0.4-5.1,2-6.6,6.6-6.8
			c2.7-0.1,5.5-0.3,8.2-0.5c7.3-0.6,12.7-4.5,16.5-11.2c1.4-2.5,2.6-5,4-7.5c2.6-4.6,6.4-6.9,11.3-7c2.7-0.1,5.5,0.1,8.2-0.1
			c6.3-0.4,10.7,2.7,13.9,8.3c1.6,2.8,3.2,5.7,5,8.4c4.1,6.3,9.9,9.1,16.8,9.5c2.4,0.1,4.9,0,7.3,0.1c2.9,0.1,4.8,1.6,5.1,4.9
			c0.6,6.2,0.5,12.4,0.1,18.6c-0.2,3.1-1.9,5-5,5.2c-1.7,0.1-3.4,0.3-5.1,0.4C1417,462.3,1403.2,462.3,1389.3,462.3z"/>
		<path class="st1" d="M1497.7,509.9c0,10.2,0,20.3,0.1,30.5c0,2.9-0.9,4-3.8,3.9c-3.5-0.2-7-0.1-10.5,0c-2.4,0.1-3.3-0.7-3.3-3.3
			c0-20.6-0.2-41.3-0.4-61.9c-0.1-11.6-7.2-19.9-18.5-22.1c-3.1-0.6-6.3-0.4-9.5-0.3c-2.2,0-3.4-0.7-3.3-3.1c0.1-3.8,0-7.6,0-11.4
			c0-1.7,0.5-2.8,2.5-2.9c10.8-0.5,21.1,1.1,30.2,7.6c11.3,8.2,16.1,19.6,16.4,33.1C1497.9,490,1497.7,499.9,1497.7,509.9
			C1497.7,509.9,1497.7,509.9,1497.7,509.9z"/>
		<path class="st1" d="M1281.1,508.1c0.3-9.4-0.6-21,0.4-32.7c1.6-19.4,18.2-35.2,37.7-35.9c2.7-0.1,5.5,0,8.2-0.1
			c1.9,0,2.7,0.8,2.7,2.7c0,4.2,0,8.5,0.1,12.7c0,1.7-0.6,2.1-2.3,2.1c-3.5-0.1-7-0.2-10.4,0.4c-11.3,1.9-18.1,9.6-18.6,21.1
			c-0.9,20.3-0.2,40.6-0.4,60.9c0,5.2,0,5.2-5.3,5.2c-2.9,0-5.7-0.1-8.6,0c-2.6,0.1-3.5-0.9-3.5-3.5
			C1281.2,530.8,1281.1,520.5,1281.1,508.1z"/>
		<g>
			<g>
				<path class="st2" d="M1409.9,523.6l-2.4,0c-1.8,0-3.2-1.4-3.2-3.2l0-28c0-1.8,1.4-3.2,3.2-3.2l2.4,0c1.8,0,3.2,1.4,3.2,3.2l0,28
					C1413.1,522.1,1411.7,523.6,1409.9,523.6z"/>
				<path class="st2" d="M1391.4,507.6l0-2.4c0-1.8,1.4-3.2,3.2-3.2l28,0c1.8,0,3.2,1.4,3.2,3.2l0,2.4c0,1.8-1.4,3.2-3.2,3.2l-28,0
					C1392.9,510.8,1391.4,509.4,1391.4,507.6z"/>
			</g>
		</g>
		<g>
			<g>
				
					<linearGradient id="SVGID_00000003065992178614329960000000021828960248212147_" gradientUnits="userSpaceOnUse" x1="1524.8274" y1="365.6424" x2="1524.8274" y2="277.81" gradientTransform="matrix(1 -1.586149e-03 1.586149e-03 1 -135.1457 219.7832)">
					<stop  offset="5.327789e-09" style="stop-color:#F89B9B"/>
					<stop  offset="0.214" style="stop-color:#F8A39B"/>
					<stop  offset="1" style="stop-color:#F8BC9B"/>
				</linearGradient>
				<path style="fill:url(#SVGID_00000003065992178614329960000000021828960248212147_);" d="M1276.1,556.3c0.1-2.5,2.2-4.6,4.8-4.9
					c12.1-1.1,24.3-0.9,36.4,0.4c3.6,0.4,5.3-0.1,6.7-2.4c9.3-16.2,18.8-32.4,28.2-48.6c0.4-0.8,0.9-1.5,1.4-2.2
					c1.9-2.7,4.6-3.8,7.9-3.2c3.4,0.6,5.1,2.7,5.6,5.5c1.6,9.6,3.1,19.2,4.6,28.8c1.6,10.1,3.2,20.1,4.8,30.2c0.4,0,0.3,0,0.7,0.1
					c2.2-5.9,4.4-11.8,6.4-17.8c0.9-2.5,2.3-4.5,5.4-5c3.4-0.6,6.1,0.5,8.1,3c2.6,3.2,5.3,6.4,7.8,9.7c1.2,1.5,2.1,2,3.6,0.3
					c6.4-6.9,13-13.8,19.4-20.7c4.6-5,10.3-4.7,13.8,0.9c4.6,7.2,9.3,14.4,13.9,21.7c0.9,1.4,1.6,2.1,3.3,0.8
					c1.6-1.2,3.6-1.1,5.5-1.1c11.6,0,23.3-0.1,34.9,0c2.6,0,4.8,2,4.9,4.5l0,0c0.2,2.8-2.1,5.1-4.9,5.1c-10.4,0.1-20.7,0-31.1,0
					c-2,0-3.4,0.6-4.5,2.1c-4.4,5.6-10.3,5.2-14-0.8c-4.5-7.2-9.1-14.3-13.8-21.4c-1.9-3-2.1-3-4.7-0.2
					c-5.9,6.2-11.8,12.5-17.6,18.8c-5.9,6.4-11.1,5.5-16.6-3c-0.9-1.5-2.2-2.7-3.5-3.9c-0.5-0.5-0.7-1.5-1.7-1.3
					c-0.8,0.2-0.8,1-1,1.6c-2.6,7.3-5.2,14.6-7.7,21.9c-0.4,1-0.7,2-1.1,3c-1.3,3.3-4,5.1-7.3,4.9c-3.7-0.2-6-2-6.8-5.7
					c-1-4.7-1.6-9.5-2.4-14.3c-0.1-0.7-0.2-1.3-0.3-2c-2.5-15.9-5-31.7-8.1-47.8c-2.3,3.9-4.6,7.9-6.9,11.8
					c-6.3,10.8-12.6,21.6-18.9,32.5c-1.9,3.3-5.1,4.1-8.8,4.1c-13.8,0-27.6,0.1-41.4,0C1278.3,561.7,1275.9,559.2,1276.1,556.3
					L1276.1,556.3z"/>
				
					<linearGradient id="SVGID_00000168802851268743925060000005844669787775755654_" gradientUnits="userSpaceOnUse" x1="1648.5363" y1="353.2587" x2="1648.5363" y2="324.0458" gradientTransform="matrix(1 -1.586149e-03 1.586149e-03 1 -135.1457 219.7832)">
					<stop  offset="5.327789e-09" style="stop-color:#F89B9B"/>
					<stop  offset="0.214" style="stop-color:#F8A39B"/>
					<stop  offset="1" style="stop-color:#F8BC9B"/>
				</linearGradient>
				<path style="fill:url(#SVGID_00000168802851268743925060000005844669787775755654_);" d="M1513.9,541.2
					c-8.1,0-14.6,6.6-14.6,14.6c0,8.1,6.6,14.6,14.6,14.6c8.1,0,14.6-6.6,14.6-14.6C1528.5,547.7,1522,541.2,1513.9,541.2z
					 M1514.2,564.2c-4.8,0.1-8.5-3.4-8.5-8.1c-0.1-4.6,3.7-8.6,8.2-8.6c4.5,0,8.3,3.8,8.3,8.4
					C1522.3,560.5,1518.8,564.1,1514.2,564.2z"/>
				
					<linearGradient id="SVGID_00000093859138054080654900000010725313531422443655_" gradientUnits="userSpaceOnUse" x1="1400.6793" y1="354.1843" x2="1400.6793" y2="324.9714" gradientTransform="matrix(1 -1.586149e-03 1.586149e-03 1 -135.1457 219.7832)">
					<stop  offset="5.327789e-09" style="stop-color:#F89B9B"/>
					<stop  offset="0.214" style="stop-color:#F8A39B"/>
					<stop  offset="1" style="stop-color:#F8BC9B"/>
				</linearGradient>
				<path style="fill:url(#SVGID_00000093859138054080654900000010725313531422443655_);" d="M1266,542.5c-8.1,0-14.6,6.6-14.6,14.6
					c0,8.1,6.6,14.6,14.6,14.6c8.1,0,14.6-6.6,14.6-14.6C1280.7,549,1274.1,542.5,1266,542.5z M1266.3,565.5
					c-4.8,0.1-8.5-3.4-8.5-8.1c-0.1-4.6,3.7-8.6,8.2-8.6c4.5,0,8.3,3.8,8.3,8.4C1274.4,561.8,1271,565.4,1266.3,565.5z"/>
			</g>
		</g>
		<g>
			<path class="st2" d="M1333.5,649.3c-0.6,0.1-1.2,0.2-1.8,0.2c-0.6,0-1.2,0.1-1.8,0.1c-0.5,0-1.1,0-1.8-0.1
				c-0.6,0-1.2-0.1-1.8-0.2l-0.1-42.2l0.4-0.4l6.7,0l0,3.2c0,1.6,0,3.3,0,4.9c0,1.7,0,3.3,0,4.9L1333.5,649.3z M1351.7,606.7
				c0.1,0.4,0.2,0.9,0.3,1.4c0.1,0.5,0.1,1,0.1,1.4c0,1.1-0.3,2-1,2.5c-0.7,0.5-1.6,0.8-3,0.8l-9,0c-1.7,0-3.2,0-4.6,0
				c-1.4,0-2.7-0.1-3.9-0.1l0-5.9L1351.7,606.7z M1348.4,624.9c0.1,0.4,0.2,0.9,0.3,1.5c0.1,0.6,0.1,1,0.1,1.4c0,0.4,0,0.9-0.1,1.4
				c-0.1,0.6-0.1,1.1-0.3,1.5l-12.4,0c-0.8,0-1.6,0-2.6,0c-0.9,0-1.8,0-2.6,0l0-5.8c0.8,0,1.6,0,2.6,0c0.9,0,1.8,0,2.6,0
				L1348.4,624.9z"/>
			<path class="st2" d="M1355.4,606.7c0.5-0.1,1.1-0.2,1.8-0.2c0.7,0,1.2-0.1,1.7-0.1c0.5,0,1.1,0,1.8,0.1c0.7,0,1.3,0.1,1.8,0.2
				l0.1,42.6c-0.5,0.1-1.1,0.2-1.8,0.2c-0.7,0-1.3,0.1-1.8,0.1c-0.5,0-1.1,0-1.7-0.1c-0.7,0-1.3-0.1-1.8-0.2L1355.4,606.7z"/>
			
				<linearGradient id="SVGID_00000034809220730162266440000004492178774899192253_" gradientUnits="userSpaceOnUse" x1="1520.1624" y1="432.107" x2="1520.1624" y2="388.9279" gradientTransform="matrix(1 -1.586149e-03 1.586149e-03 1 -135.1457 219.7832)">
				<stop  offset="5.327789e-09" style="stop-color:#F89B9B"/>
				<stop  offset="0.214" style="stop-color:#F8A39B"/>
				<stop  offset="1" style="stop-color:#F8BC9B"/>
			</linearGradient>
			<path style="fill:url(#SVGID_00000034809220730162266440000004492178774899192253_);" d="M1368.1,606.7c0.8-0.1,1.6-0.2,2.6-0.3
				c0.9,0,1.7-0.1,2.3-0.1c0.6,0,1.3,0,2.1,0.1c0.8,0,1.6,0.1,2.4,0.3l5.6,18.9c0.1,0.5,0.3,1.2,0.6,2.1c0.2,0.9,0.5,1.9,0.8,2.9
				c0.3,1,0.5,2,0.7,3c0.2,0.9,0.3,1.6,0.4,2.1l0.4,0c0.1-0.5,0.2-1.2,0.4-2.1c0.2-0.9,0.4-1.9,0.7-3c0.3-1,0.5-2,0.7-2.9
				c0.2-0.9,0.4-1.6,0.6-2.1l5.5-18.9c0.8-0.1,1.6-0.2,2.4-0.3c0.8,0,1.5-0.1,2.1-0.1c0.6,0,1.3,0,2.2,0.1c0.9,0,1.8,0.1,2.6,0.3
				l3.4,42.4c-0.5,0.1-1.1,0.2-1.8,0.3c-0.7,0.1-1.3,0.1-1.9,0.1c-0.5,0-1.1,0-1.6-0.1c-0.5,0-1-0.1-1.6-0.2l-1.4-22
				c-0.1-1.2-0.1-2.5-0.2-4.1c-0.1-1.5-0.1-3.1-0.2-4.6c-0.1-1.6-0.1-3-0.1-4.2l-0.4,0l-8.1,28.4c-0.5,0.1-1.1,0.2-1.8,0.2
				c-0.7,0.1-1.3,0.1-1.8,0.1c-0.5,0-1.1,0-1.8-0.1c-0.7-0.1-1.3-0.1-1.8-0.2l-8.2-28.4l-0.3,0c0,1.2-0.1,2.6-0.1,4.2
				c0,1.6-0.1,3.1-0.2,4.6c-0.1,1.5-0.1,2.9-0.2,4.1l-1.4,22c-0.5,0.1-1,0.1-1.6,0.2c-0.5,0-1.1,0.1-1.7,0.1c-0.6,0-1.2,0-1.8-0.1
				c-0.6-0.1-1.2-0.2-1.7-0.3L1368.1,606.7z"/>
			<path class="st2" d="M1409.4,607.2l0.4-0.4l6.5,0l0,5.9c0,0.9,0,1.6,0,2.2c0,0.6,0,1.3,0,2.1l0,23.2c0,0.6,0,1.1,0,1.6
				c0,0.5,0,1.1,0,1.7l0,5.9l-2.9,0c-1.3,0-2.3-0.4-3-1.2c-0.7-0.8-1.1-1.8-1.1-3.2L1409.4,607.2z M1435.1,606.8
				c0.1,0.5,0.2,1,0.2,1.5c0,0.5,0,0.9,0,1.3c0,0.4,0,0.9-0.1,1.5c-0.1,0.6-0.2,1.2-0.4,1.7l-14.5,0c-0.5,0-1.1,0-1.9,0
				c-0.8,0-1.6,0-2.4,0c-0.8,0-1.5,0-2.1-0.1l0-5.9L1435.1,606.8z M1431.7,624.9c0.1,0.5,0.2,1,0.3,1.5c0.1,0.6,0.1,1,0.1,1.4
				c0,0.4,0,0.9-0.1,1.4c-0.1,0.5-0.2,1-0.3,1.5l-11.4,0c-0.5,0-1.1,0-1.9,0c-0.8,0-1.6,0-2.4,0c-0.8,0-1.5,0-2.1,0l0-5.7
				c0.6,0,1.3,0,2.1,0c0.8,0,1.6,0,2.4,0c0.8,0,1.4,0,1.9,0L1431.7,624.9z M1436.5,643.4c0,2.1-0.3,3.7-1,4.6
				c-0.7,1-1.9,1.4-3.7,1.4l-17.8,0l0-5.8c1-0.1,2.1-0.1,3.1-0.2c1-0.1,2.2-0.1,3.5-0.1L1436.5,643.4z"/>
			<path class="st2" d="M1447.8,649.4l-3,0c-1.2,0-2.2-0.4-3-1.1c-0.8-0.8-1.2-1.8-1.2-3.3l-0.1-38.2l0.4-0.4l2.7,0
				c1.5,0,2.5,0.4,3.1,1.1c0.6,0.7,0.9,1.9,0.9,3.5L1447.8,649.4z M1465.5,643.2c0,2.4-0.4,4-1.1,4.9s-2,1.3-3.7,1.3l-15.9,0
				l-3.7-5.2c2-0.3,4.1-0.6,6.3-0.7c2.2-0.2,4.2-0.2,5.9-0.2L1465.5,643.2z"/>
		</g>
	</g>
</g>
<g>
	<path class="st11" d="M735.1-278.5c0-35.5,0-71,0-106.5c0-6.4,0.5-6.9,6.8-6.9c1,0,2,0,3,0c3.2-0.1,7,0.9,9.3-0.5
		c2.3-1.5,0.6-5.5,0.8-8.5c0.2-3.1,2.1-4.1,4.7-3.8c2.9,0.3,3.6-0.9,3.6-3.6c0-7.7,0.2-7.8,7.8-7.8c53.3,0,106.6,0,160,0
		c6.7,0,6.9,0.3,6.9,7.2c0,34.2,0,68.3,0,102.5c0,6.5-0.2,6.8-6.7,6.8c-1,0-2,0.1-3,0c-3.5-0.6-4.4,0.9-4.4,4.3
		c0.1,32.7,0.1,65.3,0.1,98c0,6.9-0.3,7.3-7.4,7.3c-5.8,0-11.7,0.1-17.5-0.1c-2.7-0.1-3.4,0.8-3.3,3.4c0.2,5.2,0,10.3,0.1,15.5
		c0.1,3.7-1.3,5.4-5.3,5.4c-50-0.1-100-0.1-150,0c-4.6,0-5.5-2.2-5.5-6.2C735.1-207.5,735.1-243,735.1-278.5z M917-304
		c0.2-0.3,0.2-0.6,0.2-0.9c0.3-0.3,0.6-0.7,0.9-1c0.5-0.3,1-0.5,1.5-0.8c0.8,0,1.6,0,2.4,0c9,0.7,9,0.7,9-8.1
		c0-29.5-0.1-58.9,0.1-88.4c0-4.4-0.9-5.8-5.6-5.8c-49.9,0.2-99.9,0.1-149.8,0.1c-1.2,0-2.3,0-3.5,0c-1.2,0-1.8,0.6-1.8,1.8
		c0,1.2,0,2.4,1.8,2.2c2.2,0.1,4.3,0.2,6.5,0.2c41.8,0,83.6,0,125.3,0c6.1,0,6.9,0.8,6.9,6.9c0,64.3,0,128.5,0,192.8
		c0,2,0.2,4-0.8,5.9c-4,2.8-8.7,0.4-12.9,1.9c5.1,0.3,10.2,0.3,15.3,0.2c1.4,0,3.4,1,4.3-1.2c0-0.6,0-1.1,0.1-1.7
		c0.1-1.2,0.3-2.3,0.3-3.5C917-236.9,917-270.5,917-304z M748-384.8c-1.6,0-3.3,0.1-4.9,0.1c-0.6-0.2-0.9,0.1-0.8,0.7
		c0,3.6,0,7.2-0.1,10.9c-0.1,0.7-0.3,1.3-0.3,2c0.1,64.6,0.2,129.3,0.1,193.9c0,3.9,1.7,4.2,4.8,4.2c25.2-0.1,50.3,0,75.5,0
		c20.7,0,41.3-0.1,62,0.1c3.5,0,4.8-0.9,4.5-4.5c-0.3-3.6-0.3-7.3-0.3-11c0.1-63.6,0.1-127.3,0.3-190.9c0-4.4-1.1-5.6-5.5-5.6
		c-40.3,0.1-80.6,0-120.9-0.1C757.6-385,752.8-384.8,748-384.8z M903.2-301.5c0-30.3-0.1-60.7,0.1-91c0-3.8-0.8-5-4.8-5
		c-27.5,0.2-55,0.1-82.5,0.1c-16.7,0-33.3,0-50,0c-2.2,0-4.3-0.4-4.1,3.1c0.2,4,3.1,2.3,4.8,2.3c40.3,0.1,80.7,0.1,121,0.1
		c8.1,0,8.1,0,8.1,8c0,58,0,116,0,174c0,2.4-1.1,5.1,3.5,5.2c4.8,0.1,3.9-2.7,3.9-5.4C903.2-240.5,903.2-271,903.2-301.5z"/>
	<path class="st12" d="M742.2-373c0-3.6,0-7.2,0.1-10.9c0.3-0.2,0.5-0.5,0.8-0.7c1.6,0,3.3-0.1,4.9-0.1c1.7,1.2,3.6,0.7,5.3,0.7
		c26.8,0,53.6,0,80.4,0c2.9,0,5.2,0.7,7.7,2.7c7.6,6.2,13.2,13.9,18.7,21.9c10.8,15.9,16.9,33.6,17.8,52.7
		c1.7,34.9-10.5,64.4-36.3,88c-26.6,24.3-57.9,32.6-93.1,27.8c-4.1-0.6-5.6-2.3-5.6-6.8c0.2-56.4,0.1-112.9,0.1-169.4
		C742.9-369.2,743.5-371.2,742.2-373z M815.3-232c26.5,0,47.8-21.1,47.8-47.4c0.1-26.3-21.2-47.7-47.6-47.7
		c-26.4,0-47.8,21.1-48,47.4C767.4-253.6,789.1-232,815.3-232z"/>
	<path class="st13" d="M742.2-373c1.3,1.8,0.7,3.9,0.7,5.8c0,56.5,0.1,112.9-0.1,169.4c0,4.5,1.5,6.2,5.6,6.8
		c35.3,4.8,66.6-3.5,93.1-27.8c25.9-23.7,38-53.2,36.3-88c-0.9-19.1-7-36.8-17.8-52.7c-5.4-8-11.1-15.7-18.7-21.9
		c-2.4-2-4.7-2.7-7.7-2.7c-26.8,0.1-53.6,0-80.4,0c-1.8,0-3.7,0.5-5.3-0.7c4.8-0.1,9.6-0.3,14.5-0.2c40.3,0,80.6,0.2,120.9,0.1
		c4.4,0,5.5,1.2,5.5,5.6c-0.2,63.6-0.2,127.3-0.3,190.9c0,3.7-0.1,7.3,0.3,11c0.3,3.5-1,4.5-4.5,4.5c-20.7-0.1-41.3-0.1-62-0.1
		c-25.2,0-50.3,0-75.5,0c-3.1,0-4.8-0.3-4.8-4.2c0-64.6-0.1-129.3-0.1-193.9C742-371.7,742.1-372.4,742.2-373z"/>
	<path class="st14" d="M916.7-199.9c0,0.6,0,1.1-0.1,1.7c-2.3,0-4.8,1.2-6.8-0.9c1-1.8,0.8-3.9,0.8-5.9c0-64.3,0-128.5,0-192.8
		c0-6.1-0.8-6.9-6.9-6.9c-41.8,0-83.6,0-125.3,0c-2.2,0-4.3-0.1-6.5-0.2c-0.2-4.3,3.1-3,5.3-3c47.9-0.1,95.9,0,143.8,0
		c8.9,0,8.9,0,8.9,8.8c0,27.3,0,54.6,0,81.9c0,7.8,0,7.8-7.3,9.8c-0.3,0.1-0.4,0.5-0.7,0.7c-0.8,0-1.6,0-2.4,0
		c-0.5,0.3-1,0.5-1.5,0.8c-0.3,0.3-0.6,0.7-0.9,1c-0.3,0.4-0.7,0.7-1,1.1c0,33.4,0,66.7-0.1,100.1
		C916-202.5,915.8-201.1,916.7-199.9z"/>
	<path class="st15" d="M922-306.8c0.2-0.2,0.4-0.6,0.7-0.7c7.3-2.1,7.3-2,7.3-9.8c0-27.3,0-54.6,0-81.9c0-8.8,0-8.8-8.9-8.8
		c-47.9,0-95.9,0-143.8,0c-2.2,0-5.5-1.3-5.3,3c-1.8,0.2-1.8-1-1.8-2.2c0-1.2,0.7-1.8,1.8-1.8c1.2,0,2.3,0,3.5,0
		c49.9,0,99.9,0.1,149.8-0.1c4.7,0,5.7,1.4,5.6,5.8c-0.2,29.5-0.1,58.9-0.1,88.4C930.9-306.1,930.9-306.1,922-306.8z"/>
	<path class="st16" d="M916.7-199.9c-0.9-1.2-0.7-2.5-0.7-3.8c0-33.4,0-66.7,0.1-100.1c0.3-0.1,0.6-0.1,0.9-0.1
		c0,33.5,0,67.1,0,100.6C917-202.2,916.8-201.1,916.7-199.9z"/>
	<path class="st16" d="M909.9-199.1c2,2.1,4.5,0.9,6.8,0.9c-0.9,2.2-2.8,1.1-4.3,1.2c-5.1,0.1-10.2,0.1-15.3-0.2
		C901.2-198.7,905.9-196.4,909.9-199.1z"/>
	<path class="st17" d="M743.1-384.7c-0.3,0.2-0.5,0.5-0.8,0.7C742.2-384.6,742.4-384.8,743.1-384.7z"/>
	<path class="st15" d="M918-306c0.5-0.3,1-0.5,1.5-0.8C919-306.5,918.5-306.3,918-306z"/>
	<path class="st15" d="M917-304c-0.3,0-0.6,0.1-0.9,0.1c0.3-0.4,0.7-0.7,1-1.1C917.2-304.6,917.1-304.3,917-304z"/>
	<path class="st18" d="M815.3-232c-26.2,0-47.9-21.6-47.7-47.7c0.2-26.3,21.6-47.4,48-47.4c26.3,0,47.6,21.4,47.6,47.7
		C863.1-253.1,841.7-232,815.3-232z M775-279.8c-0.1,22.6,17.9,40.7,40.5,40.7c22.3,0,40.5-18.1,40.5-40.2
		c0-22.4-17.9-40.5-40.1-40.6C793.1-320.1,775.1-302.3,775-279.8z"/>
	<path class="st19" d="M842.6-279.7c0,10.4,0,10.7-10.7,10.3c-5.1-0.2-6.3,1.2-6.2,6.2c0.4,10.7,0.1,10.7-10.9,10.7
		c-1.3,0-2.7-0.1-4,0c-4.3,0.3-5.8-1.8-5.8-6c0-10.6-0.1-10.8-10.7-10.7c-4.5,0-6.2-1.6-6.2-6.1c-0.1-13.9-0.2-14,13.7-14.5
		c2.6-0.1,3.7-0.7,3.3-3.4c0-0.2,0-0.3,0-0.5c0.6-4-2.1-9.4,1.5-11.8c4.6-3,10.7-1,16.1-1c2.5,0,3.1,2.1,3.1,4.3c0,3,0.2,6,0,9
		c-0.2,2.7,0.9,3.6,3.4,3.3c1-0.1,2,0,3,0C842.6-289.8,842.6-289.8,842.6-279.7z M802.8-276.2c1,0,2,0.1,3,0
		c4.8-0.6,6.8,1.4,6.3,6.2c-0.2,2.3,0.1,4.7-0.1,7c-0.2,2.6,0.8,3.5,3.4,3.5c2.4,0,3.1-0.9,3.2-3.2c0.2-4.1-1.8-9.1,1-12.1
		c3.1-3.3,8.2-1.1,12.4-1.3c2.8-0.1,3.3-1.3,3.3-3.7c0-2.4-0.9-3.1-3.3-3.1c-4.1-0.1-9,1.7-12.1-1c-3.4-3-1.2-8.2-1.4-12.4
		c-0.1-2.5-0.8-3.5-3.4-3.5c-2.8,0-3.3,1.3-3.2,3.7c0.1,2.8,0,5.7,0,8.5c0.1,3.3-1.3,4.9-4.8,4.8c-3.2-0.1-6.3,0.1-9.5,0
		c-2.3-0.1-2.8,1.1-2.8,3.1c0.1,1.9-0.1,3.8,2.7,3.7C799.5-276.3,801.2-276.2,802.8-276.2z"/>
	<path class="st14" d="M802.8-276.2c-1.7,0-3.3-0.1-5,0c-2.8,0.1-2.6-1.8-2.7-3.7c-0.1-2,0.5-3.1,2.8-3.1c3.2,0.1,6.3-0.1,9.5,0
		c3.4,0.1,4.8-1.5,4.8-4.8c-0.1-2.8,0.1-5.7,0-8.5c-0.1-2.4,0.4-3.7,3.2-3.7c2.7,0,3.3,1,3.4,3.5c0.2,4.2-2,9.4,1.4,12.4
		c3.1,2.7,8,0.8,12.1,1c2.3,0.1,3.3,0.7,3.3,3.1c0,2.4-0.5,3.5-3.3,3.7c-4.2,0.2-9.4-2-12.4,1.3c-2.8,3-0.8,8-1,12.1
		c-0.1,2.3-0.9,3.2-3.2,3.2c-2.6,0.1-3.6-0.9-3.4-3.5c0.2-2.3-0.2-4.7,0.1-7c0.5-4.8-1.6-6.8-6.3-6.2
		C804.9-276.1,803.8-276.2,802.8-276.2z"/>
</g>
<g>
	<path d="M381-405.1c-3.7,6-9.9,7.2-16.1,7.2c-69.2,0.1-138.4,0.1-207.7,0c-3.3,0-6.6-0.9-9.9-1.4c-9.1-5.9-12.4-14.1-12.4-24.9
		c0.3-58.5,0.1-117,0.1-175.5c0-18.1,7.8-25.9,25.9-26c1.5,0,3.1-0.1,4.6,0c5.7,0.6,8.2-1.1,8.4-7.6c0.3-9.3,6.9-16.2,14.7-17.5
		c7.2-1.2,14.5,3.7,18.5,12.2c1.6,13.7,1.6,13.7,15.6,13.7c29,0,58,0.1,87,0.2c-8.3,5.3-17.4,2.7-26.2,2.1
		c-21.6-1.5-43.2-0.5-64.9-0.5c-0.7,0-1.5,0.4-2.2,0.8c-8.6,4-9.9,3.6-11.9-7.7c-0.3-1.8,0.3-3.7-0.2-5.4c-1.3-5.2-3.9-9.4-8.9-11.8
		c-4.7-2.2-7.2-0.1-8.8,4.2c-0.2,0.5-1.3,0.9-2,0.9c-6.9,0.7-7.7,5.9-8,11.2c-0.3,6.5-3.8,9.2-10,9c-1.8,0-3.6,0.2-5.4,0
		c-15.5-1.6-23.7,7.4-23.5,23.7c0.6,58.2,0.2,116.5,0.2,174.7c0,14.6,8.3,22.8,23.2,22.8c53.4,0,106.7,0.4,160.1-0.2
		c19.8-0.2,40,4,59.2-4.8L381-405.1z"/>
	<path d="M386.2-610.7c0.3,4.4,0.7,8.7,0.7,13.1c0.1,58.3,0,116.7,0.1,175c0,6.6-0.6,12.8-6,17.5c0,0-0.4-0.4-0.4-0.4
		c5.6-13.5,3.1-27.8,3.4-41.7c0.3-17,0.1-34,0.1-51c0-34.2-0.4-68.5,0.2-102.7c0.2-11.7-7.3-22.6-21.3-20.9c-4.1,0.5-8.2,0.1-12.3,0
		c-3.7-0.1-7.2-1.5-7.6-5.3c-0.6-5.3-3.3-9.5-5.3-14.2c-2.4-5.9-9.4-8.1-14.8-4.6c-7.1,4.7-10.3,11.5-11.6,19.5
		c-0.3-0.6-0.5-1.2-0.8-1.7c0.8-5.3,0-11.1,3.9-15.5c4.4-5,9.7-8.5,17-6.6c7.9,2.1,13.7,8,13.7,16.5c0,6.9,3.1,8.5,8.9,8
		c2.6-0.2,5.2,0,7.7-0.2C373.2-626.2,381.6-621.6,386.2-610.7z"/>
	<path d="M309.8-624.6c0.5-0.6,1.1-1.1,1.6-1.7c1.3-8.1,4.5-14.9,11.6-19.5c5.3-3.5,12.3-1.3,14.8,4.6c1.9,4.7,4.7,8.9,5.3,14.2
		c0.4,3.7,3.9,5.2,7.6,5.3c4.1,0.1,8.3,0.5,12.3,0c14-1.7,21.5,9.2,21.3,20.9c-0.6,34.2-0.2,68.5-0.2,102.7c0,17,0.2,34-0.1,51
		c-0.3,14,2.2,28.2-3.4,41.7c-19.1,8.8-39.4,4.6-59.2,4.8c-53.3,0.6-106.7,0.2-160.1,0.2c-14.9,0-23.2-8.2-23.2-22.8
		c0-58.3,0.4-116.5-0.2-174.7c-0.2-16.3,8.1-25.3,23.5-23.7c1.8,0.2,3.6,0,5.4,0c6.2,0.2,9.7-2.5,10-9c0.2-5.3,1.1-10.5,8-11.2
		c0.7-0.1,1.8-0.4,2-0.9c1.6-4.3,4.1-6.4,8.8-4.2c5.1,2.4,7.7,6.6,8.9,11.8c0.4,1.7-0.1,3.6,0.2,5.4c2,11.3,3.3,11.7,11.9,7.7
		c0.7-0.3,1.4-0.8,2.2-0.8c21.6,0,43.2-1,64.9,0.5C292.4-621.9,301.4-619.3,309.8-624.6z M374.9-609.4c-0.5-2.6-2-4.3-4.7-4.6
		c-4.5-2.4-9.3-1.1-14.1-0.9c-1.5,0-2.9,0-4.4,0c-1.6,0-3.1,0-4.7,0c-3.2,1.6-1.7,4.5-1.7,6.8c-0.2,6.8,0.4,13.7-1.4,20.5
		c-0.3,0.3-0.3,0.6-0.2,0.9c-0.5,0.7-1,1.4-1.5,2.1c-5.6,6.3-12.2,9.5-20.5,5.9c-8.2-3.5-10.7-10.5-10.4-18.9
		c0.1-3.3-0.3-6.7,0.1-10c0.7-6.3-2-7.8-7.9-7.8c-25.2,0.3-50.4,0.1-75.6,0.1c-19.3,0-19.3,0-19.8,18.9c-0.2,11.2-7.2,19.1-17,19.2
		c-9.2,0.1-16.8-8.4-17.1-19.2c-0.1-4.6,0-9.3-0.1-13.9c0-1.7,0.3-3.6-1.7-4.7c-4.9-2.7-20.8,0.7-24.7,5.4
		c-3.7,10.2-1.1,20.8-1.6,31.2c0,2.6,0,5.1,0,7.7c0.7,5.1,4.7,3,7.3,3c72.1,0.1,144.2,0.1,216.3,0.1c2.4,0,5.2,1.1,7.1-1.5
		c2.3-10.8,0.4-21.8,0.9-32.7C377.5-604.6,377.2-607.4,374.9-609.4L374.9-609.4z M198.5-624.8c2.2-2.5,2.1-5.1,0-7.7
		c-1.3-4.5-3.2-8.7-8.9-7.5c-5.6,1.1-5.6,6-5.6,10.5c0,10.6,0,21.1,0,31.7c0,4.9,0.3,10,6.6,10.3c6.7,0.3,7.5-5,7.5-10.2
		C198.3-606.8,198.4-615.8,198.5-624.8z M261.3-558.3c-36.1,0-72.1,0.1-108.2-0.1c-4.9,0-7.5,0.7-7.4,6.6
		c0.2,43.8,0.1,87.6,0.1,131.3c0,8.1,4.2,12.1,12.3,12.1c68.2,0,136.5,0,204.7,0c10.3,0,13.5-3,13.5-13.2c0-43-0.1-86,0.1-129
		c0-6-1.5-7.9-7.8-7.9C332.9-558.1,297.1-558.3,261.3-558.3z M335-613.3C335-613.3,334.9-613.3,335-613.3
		c-0.1-6.4,0.1-12.9-0.2-19.3c-0.2-4.1-1.9-7.8-6.9-7.6c-4.7,0.1-7,3.4-7,7.6c-0.2,12.3-0.2,24.7,0,37c0.1,4.6,2.2,8.2,7.4,8
		c4.9-0.2,6.4-3.9,6.6-8C335.2-601.4,335-607.3,335-613.3z"/>
	<path class="st14" d="M347-614.9c1.6,0,3.1,0,4.7,0c1.5,1.3,2.9,1.3,4.4,0c4.7-0.2,9.5-1.5,14.1,0.9c0.1,3,1.7,4.6,4.7,4.6
		c0,0,0,0,0,0c0,13.4-0.1,26.9-0.1,40.3c-73.1,0-146.2,0-219.2,0c-3.3,0-6.7,0.3-9.8-1.6c0-2.6,0-5.1,0-7.7c2.3-1.7,1.6-4.2,1.6-6.4
		c0-8.2,0-16.5,0-24.7c3.9-4.7,19.8-8.2,24.7-5.4c2,1.1,1.7,3,1.7,4.7c0.1,4.6-0.1,9.3,0.1,13.9c0.3,10.8,8,19.3,17.1,19.2
		c9.7-0.1,16.7-8,17-19.2c0.4-18.9,0.4-18.9,19.8-18.9c25.2,0,50.4,0.2,75.6-0.1c6-0.1,8.7,1.5,7.9,7.8c-0.4,3.3,0,6.7-0.1,10
		c-0.3,8.4,2.2,15.3,10.4,18.9c8.3,3.6,14.9,0.4,20.5-5.9c0.5-0.7,1-1.4,1.5-2.1c-0.1-0.3,0-0.6,0.2-0.9c3.8-0.5,3-3.5,3.1-5.9
		C347-600.7,347-607.8,347-614.9z"/>
	<path class="st20" d="M198.5-624.8c-0.1,9-0.2,18-0.3,27c-0.1,5.2-0.8,10.5-7.5,10.2c-6.2-0.3-6.6-5.4-6.6-10.3
		c0-10.6,0-21.1,0-31.7c0-4.5,0-9.3,5.6-10.5c5.7-1.2,7.6,3,8.9,7.5C198.5-629.9,198.5-627.4,198.5-624.8z"/>
	<path class="st21" d="M335-613.3c0,5.9,0.2,11.8-0.1,17.7c-0.2,4.1-1.7,7.8-6.6,8c-5.3,0.2-7.4-3.4-7.4-8c-0.2-12.3-0.2-24.7,0-37
		c0.1-4.3,2.3-7.5,7-7.6c5-0.1,6.7,3.5,6.9,7.6C335.1-626.1,334.9-619.7,335-613.3C334.9-613.3,335-613.3,335-613.3z"/>
	<path class="st14" d="M145.7-570.7c3,1.8,6.4,1.6,9.8,1.6c73.1,0,146.2,0,219.2,0c0.6,0,1.1,0,1.7,0.1c-1.9,2.6-4.7,1.5-7.1,1.5
		c-72.1,0.1-144.2,0.1-216.3-0.1C150.4-567.7,146.4-565.6,145.7-570.7z"/>
	<path class="st14" d="M376.4-569.1c-0.6,0-1.1,0-1.7-0.1c0-13.4,0.1-26.9,0.1-40.3c2.4,2,2.7,4.9,2.5,7.7
		C376.9-590.9,378.7-579.9,376.4-569.1z"/>
	<path class="st14" d="M347-614.9c0,7.1,0,14.2-0.1,21.3c0,2.4,0.7,5.4-3.1,5.9c1.8-6.7,1.2-13.6,1.4-20.5
		C345.3-610.4,343.8-613.4,347-614.9z"/>
	<path class="st14" d="M147.3-609.5c0,8.2,0.1,16.5,0,24.7c0,2.2,0.6,4.7-1.6,6.4C146.2-588.8,143.6-599.3,147.3-609.5z"/>
	<path class="st14" d="M374.9-609.4c-3.1,0-4.6-1.6-4.7-4.6C372.8-613.7,374.3-612,374.9-609.4z"/>
	<path class="st14" d="M356.1-614.9c-1.5,1.3-2.9,1.3-4.4,0C353.1-614.9,354.6-614.9,356.1-614.9z"/>
	<path class="st22" d="M343.6-586.8c-0.5,0.7-1,1.4-1.5,2.1C342.6-585.4,343.1-586.1,343.6-586.8z"/>
	<path class="st23" d="M343.9-531.1c0,17.7,0,17.7-16.8,17.7c-17.3,0-17.3,0-17.2-17.4c0-19.7,0-19.7,19.3-19.6
		c14.4,0,14.8,0.4,14.8,14.7C343.9-534.2,343.9-532.7,343.9-531.1z"/>
	<path class="st23" d="M255.8-436c0.2,19.5,0.8,18.7-18.3,18.5c-2.6,0-5.1-0.1-7.7,0c-5.3,0.2-7.7-2.9-7.9-7.5
		c-0.4-7.2-0.3-14.4,0-21.6c0.2-5.2,3.2-7.9,8.5-7.9c2.3,0,4.6,0,6.9,0C259.8-455,255.6-452.1,255.8-436z"/>
	<path class="st24" d="M221.7-484.1c0-2.8,0-5.6,0-8.5c0-6.6,3.2-9.9,9.9-9.9c5.1,0,10.3-0.1,15.4,0c6.9,0.2,10.6,3.8,9.6,10.7
		c-0.9,5.9-0.7,11.7-0.7,17.6c0,6.3-2.9,8.8-8.9,8.7c-4.9-0.1-9.7,0-14.6,0c-8.8-0.1-10.5-1.8-10.7-11
		C221.6-479,221.7-481.6,221.7-484.1z M246.3-483c0.3-4.9,1.1-9.3-6.5-9.2c-6.5,0.1-7.9,2.4-7.6,8.1c0.3,4.9-0.8,9.5,7.1,9.4
		C246.3-474.8,247-477.9,246.3-483z"/>
	<path class="st25" d="M266.3-484.5c0-18,0-18,18.3-18c2.3,0,4.6,0,6.9,0c5.6,0,8.7,2.8,8.8,8.4c0.1,6.7,0.2,13.4,0,20.1
		c-0.2,5.8-3,9-9.3,8.6c-4.9-0.3-9.8,0-14.7-0.1c-8.8-0.1-10.1-1.4-10.2-10.5C266.3-478.8,266.3-481.6,266.3-484.5z M289.6-484
		c1.2-5.2-0.1-7.9-6.8-8.1c-8.1-0.3-6.8,4.6-7,9.4c-0.2,4.9,0.1,8,6.7,8.1C289.8-474.6,290.5-478.1,289.6-484z"/>
	<path class="st25" d="M266.3-436.5c0-18.1,0-18.1,18.3-18.1c2.6,0,5.1-0.1,7.7,0c5.3,0.2,8,3.1,8.1,8.3c0.1,6.9,0.3,13.9-0.1,20.8
		c-0.2,5-2.8,8.1-8.4,7.9c-5.1-0.2-10.3,0-15.4,0c-8.8-0.1-10.1-1.5-10.2-10.5C266.3-430.8,266.3-433.6,266.3-436.5z M275.9-436
		c-0.6,5.3-0.7,9.4,7,9.2c6.4-0.2,7.3-2.8,6.9-8c-0.3-4.7,1.4-9.7-6.8-9.5C276.3-444.1,275-441.5,275.9-436z"/>
	<path class="st25" d="M266.3-531.8c0.2-16-3.8-19,18.6-18.6c14.9,0.3,15.6,0.8,15.6,15.8c-0.1,20.1,2.6,21.4-15.7,21.3
		C265-513.4,266.2-512.9,266.3-531.8z M275.9-531c-0.7,5.1-0.2,8.4,6.8,8.4c7,0,7.1-3.4,7.2-8.5c0.1-5.4,0-9-7.5-9
		C275-540,275.5-536,275.9-531z"/>
	<path class="st24" d="M255.8-531.9c0.2,19.3,1.2,18.7-18.3,18.5c-2.6,0-5.1-0.1-7.7,0c-5.2,0.2-7.8-2.8-8-7.4
		c-0.4-7.2-0.4-14.4-0.1-21.6c0.2-5,3.4-7.8,8.5-8.1c2.3-0.1,4.6,0,6.9,0C259.6-551,255.6-547.9,255.8-531.9z M246.1-531.1
		c0.8-5.1,0.8-9.1-6.9-8.9c-6.2,0.2-7.4,2.6-7,7.9c0.4,4.7-1.4,9.7,6.8,9.6C245.7-522.8,247.2-525.2,246.1-531.1z"/>
	<path class="st25" d="M343.9-483.7c0,18.2,0,18.2-17.9,18.2c-1.5,0-3.1,0-4.6,0c-10.5,0-11.6-1.1-11.6-11.4c0-5.7,0.2-11.3,0-17
		c-0.2-6,3-8.3,8.4-8.6c2.3-0.1,4.6,0,6.9-0.1C344.9-502.7,344.1-503.4,343.9-483.7z M334.3-483.8c1.5-6.4-1.3-8.2-7.7-8.3
		c-6.7-0.2-7.6,2.7-7.5,8.3c0.1,5.4,0.2,9.3,7.6,9.2C333.7-474.8,335.3-477.8,334.3-483.8z"/>
	<path class="st26" d="M212.4-483.6c0,18.1,0,18.1-18,18.1c-2.1,0-4.1-0.2-6.2,0c-7.4,0.7-10.3-2.8-10-10c0.3-5.9,0.1-11.8,0-17.7
		c0-6.4,3.1-9.4,9.5-9.3c4.1,0.1,8.2,0,12.3,0c10.4,0,12.2,1.8,12.3,11.9C212.4-488.2,212.4-485.9,212.4-483.6z M202.8-484
		c1-5.7-0.6-8.2-7.2-8.2c-6.6,0-8.3,2.2-8,8.5c0.2,5.7,0.7,9.1,7.9,9C202.7-474.7,203.6-478.3,202.8-484z"/>
	<path class="st27" d="M343.9-435.3c0,17.8,0,17.8-17.6,17.8c-16.5,0-16.5,0-16.5-16.6c0-20.4,0-20.4,20.1-20.4
		c13.3,0,14,0.7,14.1,13.9C343.9-438.9,343.9-437.1,343.9-435.3z M334.3-435.6c1.2-6-0.6-8.6-7.4-8.6c-7-0.1-7.9,2.8-7.8,8.7
		c0.1,5.8,1.1,8.8,8,8.9C334.3-426.6,335.3-429.9,334.3-435.6z"/>
	<path class="st28" d="M178.3-436.4c0-18.1,0-18.1,18.3-18.1c2.6,0,5.2-0.1,7.7,0c5.2,0.3,8,3.1,8.1,8.4c0.1,7,0,13.9,0,20.9
		c0,5-2.6,7.7-7.6,7.7c-5.7,0.1-11.3-0.2-17,0.1c-7,0.3-10-2.9-9.6-9.7C178.4-430.3,178.3-433.4,178.3-436.4z M202.8-435.7
		c0.5-5.4,0.5-9.6-7.1-9.7c-7.6-0.1-8.3,3.5-8.2,9.5c0.1,5.5,0.3,9.3,7.7,9.2C202.4-426.9,203.7-430,202.8-435.7z"/>
	<path class="st29" d="M246.3-483c0.8,5.1,0,8.2-6.9,8.3c-7.9,0.1-6.8-4.4-7.1-9.4c-0.4-5.7,1.1-8.1,7.6-8.1
		C247.3-492.2,246.5-487.9,246.3-483z"/>
	<path class="st30" d="M289.6-484c0.9,6,0.2,9.5-7.2,9.3c-6.6-0.1-6.9-3.2-6.7-8.1c0.2-4.8-1.1-9.6,7-9.4
		C289.5-492,290.8-489.3,289.6-484z"/>
	<path class="st31" d="M275.9-436c-1-5.5,0.4-8.2,7.1-8.3c8.2-0.2,6.5,4.9,6.8,9.5c0.4,5.2-0.5,7.8-6.9,8
		C275.3-426.5,275.3-430.6,275.9-436z"/>
	<path class="st31" d="M275.9-531c-0.4-4.9-0.9-9,6.5-9c7.4-0.1,7.5,3.5,7.5,9c-0.1,5.2-0.2,8.5-7.2,8.5
		C275.7-522.6,275.2-525.9,275.9-531z"/>
	<path class="st29" d="M246.1-531.1c1.1,5.9-0.5,8.4-7.1,8.5c-8.3,0.2-6.4-4.9-6.8-9.6c-0.4-5.3,0.8-7.7,7-7.9
		C246.9-540.3,247-536.2,246.1-531.1z"/>
	<path class="st32" d="M334.3-483.8c1,6-0.6,9-7.6,9.1c-7.4,0.1-7.5-3.8-7.6-9.2c-0.1-5.5,0.7-8.4,7.5-8.3
		C333-492,335.8-490.3,334.3-483.8z"/>
	<path class="st33" d="M202.8-484c0.8,5.7-0.2,9.2-7.4,9.3c-7.2,0.1-7.7-3.4-7.9-9c-0.2-6.2,1.4-8.5,8-8.5
		C202.2-492.1,203.9-489.7,202.8-484z"/>
	<path class="st33" d="M334.3-435.6c1,5.7,0,9-7.3,8.9c-6.9-0.1-7.9-3-8-8.9c-0.1-5.8,0.8-8.7,7.8-8.7
		C333.7-444.2,335.5-441.6,334.3-435.6z"/>
	<path class="st33" d="M202.8-435.7c0.9,5.7-0.5,8.9-7.5,9c-7.4,0.1-7.6-3.7-7.7-9.2c-0.1-6,0.6-9.6,8.2-9.5
		C203.4-445.3,203.4-441.1,202.8-435.7z"/>
</g>
<g>
	<path class="st34" d="M21.8,254.9c0-65.2,0-130.5,0-195.7c0.4,0,0.5-0.4,0.6-0.7c3.2-7.7,7.6-10.6,16.1-10.6c23.5,0,47,0,70.4,0
		c24.5,0,48.9,0,73.4,0c1.5,0,2.3-0.2,2.6-2c1.3-7.4,7.6-12.8,15.2-12.9c19.5-0.1,38.9-0.1,58.4,0c7.2,0,13,4.8,15,11.6
		c0.1,0.4-0.1,1,0.6,1.2c0,20.8,0,41.6,0,62.4c-0.5,0.1-0.5,0.5-0.7,0.9c-3.1,7.9-8.2,11.4-16.7,11.4c-6.5,0-13.1,0.1-19.6,0.1
		c-7.9,0-15.8,0-23.7,0c-7.2-0.7-14.6,1.5-21.5-2.4c-0.1,0.4-0.1,0.6-0.1,0.7c0,17.4,0,34.9,0,52.3c0,1.7,0,3.4-0.3,5.1
		c-2,8.7-9,14.2-18.4,14.2c-8,0-15.9,0-23.9,0c-1.5,0-2,0.4-1.9,1.9c0.1,2.8,0.1,5.6,0,8.4c-0.1,1.9,0.3,2.5,2.4,2.5
		c10.1-0.1,20.2-0.1,30.3,0c15.6,0.1,26.6,11.1,26.7,26.7c0,8.3,0,16.5,0,24.8c0,4.2,0,4.2,4.4,3.9c5.2,0,10.3,0.1,15.5,0.1
		c1.5,0,2.7-0.6,3.8-1.5c2.4-1.8,3-4.3,3-7.1c0-38.1,0-76.1,0-114.2c0-3.7,0.6-4.5,3.8-5.5c2.4,0.6,3.6,1.9,3.6,4.5
		c0,38.8,0,77.7,0,116.5c0,2.8-0.7,5.4-2.2,7.7c-3.2,5-7.8,7.1-13.7,7.1c-62.4,0-124.8,0-187.1,0c-0.5,0-1,0-1.5,0
		c-6.4-0.3-10.7-3.6-13.3-9.3C22.5,256.3,22.6,255.4,21.8,254.9z M76.9,258.8c2.4,0,4.7,0,7.1,0.1c1.4,0.1,1.8-0.5,1.8-1.8
		c-0.1-5,0-10,0-14.9c0-9.7,0-19.4,0-29.2c0-0.8,0.6-2.2-1.1-2.2c-2.6,0-5.2-0.1-7.7,0.8c-7.2,1.4-13.4,8.4-13.7,16.3
		c-0.3,9.2-0.1,18.5-0.1,27.7c0,2,1.1,3.2,3.2,3.3C69.9,258.9,73.4,258.9,76.9,258.8z M179.9,211c-1.3,0.1-3.3-1.4-3.3,1.6
		c0,14.9,0,29.8,0,44.7c0,1.2,0.3,1.8,1.6,1.7c2-0.1,4.1-0.1,6.1-0.1c3.8,0,7.7,0.1,11.5,0.1c2.2,0,3.3-1.2,3.3-3.4
		c0-9.2,0.2-18.5-0.1-27.7C198.8,218.1,189.6,210.3,179.9,211z M139.8,207.2c0-2.9,0.1-5.9,0.1-8.8c-0.1-2.6,1.2-6.2-0.5-7.4
		c-1.7-1.3-5.2-0.3-7.8-0.3c-0.2,0-0.3,0.1-0.5,0.1c-2.2-0.1-4.4,0-6.6-0.3c-1.8-0.2-2,0.6-2,2.1c0.1,4.7,0.1,9.3,0,14
		c0,3-1.3,4.1-4.3,4.2c-2.4,0.1-4.8,0.1-7.1,0c-1.2,0-1.6,0.4-1.6,1.6c0.1,2.7-0.1,5.4,0.1,8.1c0.1,3.2,2.1,5.3,5.3,5.3
		c9.2,0.1,18.4,0,27.5-0.1c1.7,0,3.4,0.2,5.1,0.1c3.2-0.2,5.1-2.2,5.2-5.4c0.1-2.7,0-5.4,0-8.1c0-1-0.1-1.6-1.3-1.5
		c-2.5,0.1-5.1,0.1-7.6,0.2C141.7,210.7,140.1,209.6,139.8,207.2z M156.3,79.3c-0.2-0.1-0.4-0.3-0.7-0.3c-6.5-0.6-13-0.2-19.4-0.3
		c-1.7,0-1.2,1.2-1.2,2.1c0,8.3,0,16.5-0.1,24.8c0,1.4,0.5,2.2,1.6,3c4,2.7,8.1,5.3,12.4,7.4c6.6,3.3,13.4,6,21,6.3
		c2.8,0.1,4,1.5,4,4.5c0,12,0.1,24.1,0,36.1c-0.1,7.7-2.4,14.5-8.4,19.7c-0.1,0.1-0.2,0.4-0.3,0.8c2.2,0.1,4.2,0.2,6.2-0.1
		c7.8,0.9,12.9-3.5,12.9-11.3c0-19.7,0-39.4,0-59.2c0-3.1-0.3-6.2-1.1-9.2C180,90.9,168.2,80.3,156.3,79.3z M160.2,258.8
		c2.5,0,4.9,0,7.4,0.1c1.3,0.1,1.6-0.5,1.6-1.7c0-14.9,0-29.8,0-44.7c0-1.3-0.4-1.8-1.7-1.7c-1.7,0.1-3.5,0.1-5.2,0
		c-1.7-0.1-2.3,0.4-2.2,2.1c0.1,3.7,0.3,7.4-0.3,11c-2.7,6.6-6.6,9.2-13.8,9.2c-10.1,0-20.2,0-30.3,0c-8.2,0-13.5-5.3-13.5-13.6
		c0-2.4-0.1-4.8,0-7.1c0-1.3-0.4-1.8-1.7-1.7c-1.7,0.1-3.5,0.1-5.2,0c-1.7-0.1-2.2,0.4-2.2,2.2c0.1,14.6,0.1,29.2,0,43.7
		c0,1.9,0.5,2.3,2.3,2.3c13-0.1,25.9,0,38.9,0C143,258.9,151.6,258.9,160.2,258.8z M254.3,40.5c-0.5,0-1-0.1-1.5-0.1
		c-17.2,0-34.3,0-51.5,0c-6.1,0-9.5,3.5-9.6,9.7c0,6.5,0,12.9,0,19.4c0,11.5,0,22.9,0,34.4c0,5.4,3.4,9.4,8.3,9.4
		c18.1,0.1,36.1,0,54.2,0c1.2,0,2.5,0.1,3.7,0.1c4.8-0.1,8.6-3.6,8.6-8.3c0.1-18.7,0.1-37.5,0-56.2c0-4.5-3.6-8-8.1-8.3
		C257.1,40.4,255.7,40.5,254.3,40.5z M147.9,182.1c0.9-0.1,1.8-0.2,2.6-0.4c11.3-2.6,16-8.5,16.1-20.1c0-10.1,0-20.1,0-30.2
		c0-1.4-0.2-2-1.7-2.3c-2.4-0.4-4.8-1-7.2-1.5c-2.8-1-5.5-2.1-8.3-3.1c-5.2-2.7-10.6-5.2-15.3-8.8c-2.5-1.9-4.2-1.7-6.1,0.4
		c-9.7,6-19.6,11.5-31.2,13.2c-1,0.1-1.1,0.7-1.1,1.5c0,11-0.2,22,0.2,32.9c0.3,9.4,4.8,14.7,13.9,17.3c5.3,1.5,10.8,2,16.3,2.2
		C133.4,183.5,140.7,183.5,147.9,182.1z M174.9,78.9c3.4,2.8,6.6,5.7,9.5,9.8c0-11.3,0-21.8,0-32.3c0-1.1-0.5-1.2-1.4-1.2
		c-2.5,0.1-5.1,0.1-7.6,0.1c-0.9,0-1.8-0.1-2.7-0.1c-44.7,0-89.5,0-134.2,0c-6.7,0-9.4,2.6-9.4,9.3c0,61.7,0,123.4,0,185.1
		c0,0.8,0,1.6,0,2.5c0.3,3.2,2.9,6.5,6,6.6c6.9,0.2,13.9,0.1,20.9,0.1c-0.1-1.1-0.3-2.1-0.3-3c0-9,0-18,0-27c0-2.6,0.5-5,1.3-7.5
		c3.7-11,13.3-17.8,25.6-17.8c10.1-0.1,20.2,0,30.3,0c1.7,0,2.3-0.3,2.2-2.1c-0.2-2.7-0.2-5.4,0-8.1c0.1-1.9-0.4-2.5-2.4-2.5
		c-7.9,0.1-15.8,0.1-23.6,0c-9.8-0.1-17.3-6.3-18.4-15.7c-0.4-3.4-0.2-6.9-0.2-10.3c0-2.8,0.9-3.8,3.8-4.5c2.6,0.5,3.7,2.1,3.6,4.7
		c-0.1,2.8-0.1,5.6,0,8.4c0.2,4.3,2.4,7.5,6.3,9.2c4.2,1.7,8.6,0.6,13.4,1c-6.3-6.4-8.4-10.1-8.9-17.4c-0.9-13.3-0.2-26.7-0.3-40
		c0-2.3,1.4-3.6,3.7-3.8c1.5-0.2,3.1-0.2,4.6-0.4c11.2-2,20.7-7.5,29.9-13.8c0.9-0.6,1-1.4,1-2.3c0-8.4-0.1-16.7,0-25.1
		c0-1.7-0.6-2-2.1-2c-4.5,0.1-9,0-13.5,0c-19.4,0.2-33.9,14.8-34,34.3c0,10.8-0.1,21.6,0,32.4c0,2.8-0.9,4.6-3.6,5.3
		c-3.3-1.1-3.8-1.8-3.8-5.3c0-5.1-0.1-10.2,0-15.2c0.1-7.9-0.5-15.9,0.4-23.8c2.2-18.2,18.8-34,37.1-34.8c12.8-0.5,25.6,0,38.4-0.3
		C156.8,71,166.3,73,174.9,78.9z"/>
	<path class="st35" d="M149.4,124.6c2.8,1,5.5,2.1,8.3,3.1c0,12,0,24,0,36c0,3.4-0.9,6.7-2.3,9.9c-1.7,3.6-4.7,6-7.5,8.5
		c-7.2,1.5-14.5,1.4-21.8,1.2c-5.5-0.2-11-0.7-16.3-2.2c-9.1-2.6-13.6-7.9-13.9-17.3c-0.3-11-0.1-22-0.2-32.9c0-0.8,0.1-1.4,1.1-1.5
		c11.6-1.7,21.5-7.2,31.2-13.2c0.8,0,1.6,0.2,2.3,0.7c2.4,1.7,5.1,2.9,7.8,4.1C141.7,122.5,145.4,124.3,149.4,124.6z M130.5,171.4
		c3,0,5.9-0.4,8.5-2c2.1-1.3,2.7-3.4,1.6-5.2c-1.1-1.8-2.9-2.3-5.1-1.3c-2.9,1.4-5.7,1.8-8.6,0c-1.7-1.1-3.5-0.7-4.8,1
		c-1.2,1.6-0.9,3.5,0.7,5C124.9,170.8,127.6,171.4,130.5,171.4z M115.7,151.6c-0.1-1.5,0-2.8-0.3-4.1c-0.4-1.9-1.7-2.9-3.7-2.8
		c-1.9,0.1-3.1,1-3.4,2.9c-0.3,2.5-0.3,5,0,7.5c0.3,1.8,1.6,2.8,3.4,2.9c1.8,0.1,3.2-0.9,3.6-2.7C115.7,154,115.6,152.7,115.7,151.6
		z M146.8,151.3c0,1.1,0,2.1,0,3.2c0.1,2.1,1.3,3.4,3.4,3.5c2.1,0.2,3.5-1,3.9-3c0.4-2.5,0.4-5.1,0-7.5c-0.4-2-1.9-3-4-2.8
		c-2,0.2-3.1,1.4-3.2,3.4C146.8,149.1,146.8,150.2,146.8,151.3z"/>
	<path class="st14" d="M254.3,113.2c-18.1,0-36.1,0.1-54.2,0c-4.9,0-8.3-4-8.3-9.4c0-11.5,0-22.9,0-34.4c0-6.5,0-12.9,0-19.4
		c0-6.2,3.4-9.6,9.6-9.7c17.2,0,34.3,0,51.5,0c0.5,0,1,0.1,1.5,0.1c2.6,2.9,3.5,6.2,3.5,10.1c-0.1,17.7-0.1,35.3,0,53
		C257.8,107.3,256.7,110.4,254.3,113.2z M202.4,76.9c0,6.2,4.9,11.1,11.2,11.3c4.5,0.1,4.5,0.1,4.6,4.4c0.2,6.4,5,11.3,11.2,11.4
		c6.3,0.1,11.4-4.8,11.6-11.2c0.2-4.4,0.2-4.4,4.7-4.5c6.3-0.2,11.2-5.2,11.1-11.4c0-6.2-5-11.1-11.3-11.2c-4.4-0.1-4.4-0.1-4.5-4.5
		c-0.2-6.5-5.1-11.3-11.5-11.3c-6.3,0-11.1,4.8-11.3,11.2c-0.1,4.4-0.1,4.4-4.7,4.5C207.2,65.7,202.4,70.6,202.4,76.9z"/>
	<path class="st36" d="M74.3,160.3c0-3.2,0-6.5,0-9.7c2.8-0.7,3.7-2.5,3.6-5.3c-0.1-10.8-0.1-21.6,0-32.4c0-19.4,14.5-34,34-34.3
		c4.5-0.1,9,0,13.5,0c1.5,0,2.2,0.3,2.1,2c-0.1,8.4,0,16.7,0,25.1c0,0.9,0,1.7-1,2.3c-9.2,6.3-18.7,11.8-29.9,13.8
		c-1.5,0.3-3.1,0.2-4.6,0.4c-2.3,0.3-3.7,1.6-3.7,3.8c0.1,13.3-0.6,26.7,0.3,40c0.5,7.2,2.7,11,8.9,17.4c-4.8-0.4-9.2,0.7-13.4-1
		c-4-1.7-6.1-4.9-6.3-9.2c-0.1-2.8-0.1-5.6,0-8.4C78,162.4,76.9,160.8,74.3,160.3z"/>
	<path class="st23" d="M160.2,258.8c-8.6,0-17.2,0.1-25.8,0.1c-13,0-25.9,0-38.9,0c-1.8,0-2.3-0.4-2.3-2.3c0.1-14.6,0.1-29.2,0-43.7
		c0-1.7,0.5-2.3,2.2-2.2c1.7,0.1,3.4,0.1,5.2,0c1.3-0.1,1.7,0.4,1.7,1.7c-0.1,2.4,0,4.8,0,7.1c0.1,8.3,5.3,13.5,13.5,13.6
		c10.1,0,20.2,0,30.3,0c7.2,0,11.1-2.6,13.8-9.2c0.7,0.8,0.4,1.7,0.4,2.6C160.2,237.3,160.2,248.1,160.2,258.8z"/>
	<path class="st36" d="M171.5,183.3c-2,0.3-4,0.2-6.2,0.1c0.1-0.4,0.2-0.6,0.3-0.8c6-5.2,8.3-12,8.4-19.7c0.1-12,0-24.1,0-36.1
		c0-3-1.2-4.4-4-4.5c-7.6-0.2-14.4-3-21-6.3c-4.3-2.2-8.4-4.7-12.4-7.4c-1.1-0.8-1.6-1.6-1.6-3c0.1-8.3,0-16.5,0.1-24.8
		c0-0.9-0.5-2.1,1.2-2.1c6.5,0.1,13-0.3,19.4,0.3c0.2,0,0.4,0.2,0.7,0.3c3.4,2.4,6.8,4.8,9.6,7.9c5.9,6.6,9.5,14.3,9.6,23.2
		c0.2,19.9,0,39.8,0.1,59.7C175.6,175,174.8,179.5,171.5,183.3z"/>
	<path class="st37" d="M171.5,183.3c3.3-3.8,4.1-8.2,4-13.2c-0.2-19.9,0.1-39.8-0.1-59.7c-0.1-8.9-3.6-16.6-9.6-23.2
		c-2.8-3.1-6.2-5.5-9.6-7.9c11.9,1,23.7,11.7,27,24.3c0.8,3,1.1,6.1,1.1,9.2c0,19.7,0,39.4,0,59.2
		C184.4,179.8,179.3,184.2,171.5,183.3z"/>
	<path class="st38" d="M142.4,225.7c-9.2,0-18.4,0.1-27.5,0.1c-3.2,0-5.1-2.1-5.3-5.3c-0.1-2.7,0-5.4-0.1-8.1c0-1.2,0.4-1.6,1.6-1.6
		c2.4,0.1,4.8,0.1,7.1,0c3-0.1,4.2-1.3,4.3-4.2c0.1-4.7,0.1-9.3,0-14c0-1.5,0.2-2.3,2-2.1c2.2,0.2,4.4,0.2,6.6,0.3
		c0,3.8,0,7.5,0,11.3c0,3,1.6,4.8,4.5,5.1c1.4,0.1,2.8,0,4.2,0c0.3,2.4,1.8,3.5,4.1,3.7C143.6,215.9,145,221,142.4,225.7z"/>
	<path class="st39" d="M179.9,211c9.7-0.7,18.9,7.1,19.2,16.9c0.3,9.2,0.1,18.5,0.1,27.7c0,2.2-1.1,3.4-3.3,3.4
		c-3.8,0-7.7-0.1-11.5-0.1c0.4-1.3,0.5-2.5,0.5-3.9c0-10.1,0-20.1,0-30.2c0-1-0.1-1.9-0.2-2.9C184.1,217.8,181.8,214.5,179.9,211z"
		/>
	<path class="st40" d="M254.3,113.2c2.4-2.8,3.5-5.9,3.5-9.6c-0.1-17.7-0.1-35.3,0-53c0-3.9-0.9-7.2-3.5-10.1c1.4,0,2.8-0.1,4.2-0.1
		c4.5,0.2,8.1,3.7,8.1,8.3c0.1,18.7,0.1,37.5,0,56.2c0,4.7-3.8,8.2-8.6,8.3C256.8,113.3,255.5,113.3,254.3,113.2z"/>
	<path class="st23" d="M76.9,258.8c-3.5,0-7,0.1-10.6,0.1c-2.1,0-3.2-1.2-3.2-3.3c0-9.2-0.2-18.5,0.1-27.7
		c0.3-7.9,6.4-14.9,13.7-16.3C76.9,227.4,76.9,243.1,76.9,258.8z"/>
	<path class="st41" d="M147.9,182.1c2.8-2.6,5.9-4.9,7.5-8.5c1.4-3.2,2.3-6.4,2.3-9.9c0.1-12,0-24,0-36c2.4,0.5,4.8,1.1,7.2,1.5
		c1.5,0.2,1.7,0.9,1.7,2.3c-0.1,10.1,0,20.1,0,30.2c0,11.5-4.8,17.5-16.1,20.1C149.7,181.8,148.8,181.9,147.9,182.1z"/>
	<path class="st39" d="M160.2,258.8c0-10.8,0-21.5,0-32.3c0-0.9,0.3-1.8-0.4-2.6c0.7-3.7,0.4-7.3,0.3-11c0-1.8,0.5-2.3,2.2-2.1
		c1.7,0.1,3.4,0.1,5.2,0c1.3-0.1,1.7,0.5,1.7,1.7c0,14.9,0,29.8,0,44.7c0,1.2-0.3,1.8-1.6,1.7C165.1,258.8,162.7,258.9,160.2,258.8z
		"/>
	<path class="st39" d="M76.9,258.8c0-15.7,0-31.5,0-47.2c2.5-1,5.1-0.8,7.7-0.8c1.7,0,1.1,1.4,1.1,2.2c0,9.7,0,19.4,0,29.2
		c0,5,0,10,0,14.9c0,1.4-0.3,1.9-1.8,1.8C81.7,258.8,79.3,258.9,76.9,258.8z"/>
	<path class="st23" d="M179.9,211c1.9,3.5,4.2,6.8,4.7,10.9c0.1,1,0.2,1.9,0.2,2.9c0,10.1,0,20.1,0,30.2c0,1.3-0.1,2.6-0.5,3.9
		c-2,0-4.1,0-6.1,0.1c-1.4,0.1-1.6-0.5-1.6-1.7c0-14.9,0-29.8,0-44.7C176.6,209.6,178.6,211.1,179.9,211z"/>
	<path class="st42" d="M139.8,207.2c-1.4,0-2.8,0.1-4.2,0c-2.9-0.3-4.5-2.1-4.5-5.1c0-3.8,0-7.5,0-11.3c0.2,0,0.3-0.1,0.5-0.1
		c2.7,0,6.1-1,7.8,0.3c1.7,1.2,0.4,4.9,0.5,7.4C140,201.4,139.9,204.3,139.8,207.2z"/>
	<path class="st43" d="M142.4,225.7c2.5-4.7,1.2-9.8,1.5-14.7c2.5-0.1,5.1-0.1,7.6-0.2c1.2,0,1.3,0.6,1.3,1.5c0,2.7,0,5.4,0,8.1
		c-0.1,3.2-2,5.2-5.2,5.4C145.9,225.9,144.2,225.7,142.4,225.7z"/>
	<path class="st44" d="M149.4,124.6c-4.1-0.3-7.7-2.1-11.3-3.7c-2.7-1.2-5.4-2.4-7.8-4.1c-0.7-0.5-1.5-0.7-2.3-0.7
		c1.9-2.1,3.7-2.3,6.1-0.4C138.8,119.3,144.2,121.8,149.4,124.6z"/>
	<path class="st45" d="M130.5,171.4c-2.9,0-5.5-0.5-7.7-2.5c-1.7-1.5-1.9-3.4-0.7-5c1.3-1.7,3-2.1,4.8-1c2.9,1.8,5.7,1.5,8.6,0
		c2.2-1.1,4.1-0.5,5.1,1.3c1.1,1.8,0.5,3.9-1.6,5.2C136.4,170.9,133.5,171.3,130.5,171.4z"/>
	<path class="st46" d="M115.7,151.6c-0.1,1.1,0,2.5-0.3,3.7c-0.4,1.8-1.8,2.8-3.6,2.7c-1.8-0.1-3.2-1-3.4-2.9c-0.4-2.5-0.3-5,0-7.5
		c0.2-1.8,1.5-2.8,3.4-2.9c2-0.1,3.3,0.9,3.7,2.8C115.7,148.8,115.6,150.1,115.7,151.6z"/>
	<path class="st46" d="M146.8,151.3c0-1.1-0.1-2.1,0-3.2c0.1-2,1.2-3.2,3.2-3.4c2.1-0.2,3.6,0.8,4,2.8c0.5,2.5,0.4,5.1,0,7.5
		c-0.3,2-1.8,3.2-3.9,3c-2-0.2-3.2-1.4-3.4-3.5C146.8,153.4,146.8,152.3,146.8,151.3z"/>
	<path class="st47" d="M202.4,76.9c0-6.3,4.8-11.2,11.1-11.4c4.6-0.1,4.6-0.1,4.7-4.5c0.2-6.4,5-11.2,11.3-11.2
		c6.4,0,11.3,4.8,11.5,11.3c0.1,4.4,0.1,4.4,4.5,4.5c6.3,0.1,11.3,5.1,11.3,11.2c0,6.2-4.9,11.2-11.1,11.4c-4.5,0.2-4.5,0.2-4.7,4.5
		c-0.2,6.4-5.2,11.3-11.6,11.2c-6.2-0.1-11-5-11.2-11.4c-0.1-4.3-0.1-4.3-4.6-4.4C207.3,88,202.5,83.1,202.4,76.9z M244.4,80.8
		c3.2,0.1,4.9-1.4,4.8-4c-0.1-2.6-1.7-3.8-4.8-3.7c-2.1,0-4.2-0.1-6.3-0.1c-2.9-0.1-4-0.9-4.6-3.9c0-2.5,0.1-5,0.1-7.6
		c-0.1-3.4-2.1-4.8-5.5-3.9c-1.8,0.5-2.4,1.8-2.4,3.5c0,2.5,0,4.9,0,7.4c-0.1,3-1.4,4.3-4.4,4.4c-2.4,0-4.8,0-7.1,0
		c-2.8,0-4.2,1.5-4.2,4c0,2.4,1.5,3.8,4.1,3.9c2.3,0.1,4.6,0,6.9,0c3.4,0,4.7,1.3,4.7,4.8c0,2.3,0,4.6,0,6.9c0,2,0.8,3.5,3,3.8
		c3,0.4,4.8-0.8,4.9-3.7c0.1-2.6,0-5.2-0.1-7.8c0.6-3,1.6-3.9,4.6-3.9C240.2,80.8,242.3,80.8,244.4,80.8z"/>
	<path class="st48" d="M228.6,96.3c-2.2-0.3-3-1.7-3-3.8c0-2.3,0-4.6,0-6.9c0-3.5-1.3-4.7-4.7-4.8c-2.3,0-4.6,0-6.9,0
		c-2.6-0.1-4-1.5-4.1-3.9c0-2.5,1.4-4,4.2-4c2.4,0,4.8,0,7.1,0c3-0.1,4.3-1.4,4.4-4.4c0.1-2.5,0-4.9,0-7.4c0-1.7,0.6-3,2.4-3.5
		c2.1,2,1,4.6,1.1,7c0.2,3.5,0.9,4.3,4.4,4.4c0.7,2.9,1.7,3.8,4.6,3.9c2.1,0,4.2,0.1,6.3,0.1c0.7,2.6,0.7,5.2,0,7.7
		c-2.1,0-4.2,0.1-6.4,0.1c-3,0-4,0.9-4.6,3.9c-3.5,0.1-4.3,0.8-4.3,4.3C229.1,91.5,229.5,93.9,228.6,96.3z"/>
	<path class="st49" d="M233.5,69.1c-3.5-0.1-4.1-1-4.4-4.4c-0.1-2.3,1-4.9-1.1-7c3.4-0.9,5.5,0.4,5.5,3.9
		C233.6,64,233.5,66.5,233.5,69.1z"/>
	<path class="st50" d="M228.6,96.3c0.8-2.4,0.5-4.8,0.5-7.2c0.1-3.4,0.8-4.2,4.3-4.3c0,2.6,0.1,5.2,0.1,7.8
		C233.5,95.4,231.7,96.7,228.6,96.3z"/>
	<path class="st50" d="M244.4,80.8c0.7-2.6,0.7-5.2,0-7.7c3.1-0.1,4.8,1.1,4.8,3.7C249.3,79.4,247.6,80.8,244.4,80.8z"/>
</g>
</svg>
