<?xml version="1.0" encoding="utf-8"?>
<!-- Generator: Adobe Illustrator 26.1.0, SVG Export Plug-In . SVG Version: 6.00 Build 0)  -->
<svg version="1.1" id="Capa_1" xmlns="http://www.w3.org/2000/svg" xmlns:xlink="http://www.w3.org/1999/xlink" x="0px" y="0px"
	 viewBox="0 0 286 294" style="enable-background:new 0 0 286 294;" xml:space="preserve">
<style type="text/css">
	.st0{fill:#FFFFFF;}
	.st1{fill:#666666;}
	.st2{fill:#75BDE0;}
	.st3{fill:url(#SVGID_1_);}
	.st4{fill:url(#SVGID_00000134208811357979714100000006711630327014890895_);}
	.st5{fill:url(#SVGID_00000050650390838912700390000005480168402470545052_);}
	.st6{fill:url(#SVGID_00000022549353552702863150000014363599806279371660_);}
	.st7{fill:url(#SVGID_00000156586649237364899570000010578517431134618240_);}
	.st8{fill:url(#SVGID_00000180337749490864334270000007275119798215886232_);}
	.st9{fill:url(#SVGID_00000074435275340611302220000010631660741789063607_);}
	.st10{fill:url(#SVGID_00000141416744898089824540000008028040966839730080_);}
</style>
<g>
	<path class="st0" d="M2364.5,508.8l-176.1,0.3c-8.6,0-15.5-6.9-15.5-15.5l-0.3-188.4c0-8.6,6.9-15.5,15.5-15.5l176.1-0.3
		c8.6,0,15.5,6.9,15.5,15.5l0.3,188.4C2380,501.9,2373,508.8,2364.5,508.8z"/>
	<g>
		<path class="st1" d="M2276.6,527.4c-22.4,0-44.9,0.1-67.3,0.1c-16.2,0-28.4-7.1-36.3-21.3c-3.8-6.8-4.6-14.3-4.6-21.8
			c-0.1-25.5-0.1-51-0.2-76.5c0-3.9,0.3-4.2,4.1-4.2c3,0,5.9,0,8.9,0c4.3,0,4.5,0.2,4.5,4.4c0,11-0.1,22-0.1,33
			c0,14.6,0,29.2,0.1,43.8c0,6.5,1.2,12.7,5.8,17.7c4.9,5.3,11,7.7,18.1,7.6c19.9,0,39.8-0.1,59.7-0.1c24.4,0,48.9-0.4,73.3,0.1
			c14,0.2,26.8-10.6,24.8-27.7c-0.3-2.5-0.3-5.1-0.2-7.6c0.1-20.6,0.2-41.3,0.3-61.9c0-1.5,0-3-0.2-4.4c-0.5-4.5,0-5.1,4.3-5.2
			c3.3,0,6.6,0.1,9.8,0c2.6-0.1,3.5,1,3.5,3.6c-0.1,9.9,0,19.9,0,29.8c0,14.7,0.1,29.4,0,44.1c0,5.1,0,10.2-1,15.2
			c-3.6,18.2-19.1,31.1-37.6,31.2C2322.9,527.3,2299.7,527.2,2276.6,527.4C2276.6,527.3,2276.6,527.3,2276.6,527.4z"/>
		<path class="st2" d="M2276.2,297.3c-13.1,0-26.2,0.1-39.3,0.1c-11.8,0-12.4-0.7-12.4-13.4c0-3-0.1-6,0.1-9c0.4-5.1,2-6.6,6.6-6.8
			c2.7-0.1,5.5-0.3,8.2-0.5c7.3-0.6,12.7-4.5,16.5-11.2c1.4-2.5,2.6-5,4-7.5c2.6-4.6,6.4-6.9,11.3-7c2.7-0.1,5.5,0.1,8.2-0.1
			c6.3-0.4,10.7,2.7,13.9,8.3c1.6,2.8,3.2,5.7,5,8.4c4.1,6.3,9.9,9.1,16.8,9.5c2.4,0.1,4.9,0,7.3,0.1c2.9,0.1,4.8,1.6,5.1,4.9
			c0.6,6.2,0.5,12.4,0.1,18.6c-0.2,3.1-1.9,5-5,5.2c-1.7,0.1-3.4,0.3-5.1,0.4C2303.9,297.3,2290.1,297.3,2276.2,297.3z"/>
		<path class="st1" d="M2384.6,344.9c0,10.2,0,20.3,0.1,30.5c0,2.9-0.9,4-3.8,3.9c-3.5-0.2-7-0.1-10.5,0c-2.4,0.1-3.3-0.7-3.3-3.3
			c0-20.6-0.2-41.3-0.4-61.9c-0.1-11.6-7.2-19.9-18.5-22.1c-3.1-0.6-6.3-0.4-9.5-0.3c-2.2,0-3.4-0.7-3.3-3.1c0.1-3.8,0-7.6,0-11.4
			c0-1.7,0.5-2.8,2.5-2.9c10.8-0.5,21.1,1.1,30.2,7.6c11.3,8.2,16.1,19.6,16.4,33.1C2384.8,325,2384.6,334.9,2384.6,344.9
			C2384.6,344.9,2384.6,344.9,2384.6,344.9z"/>
		<path class="st1" d="M2168,343.1c0.3-9.4-0.6-21,0.4-32.7c1.6-19.4,18.2-35.2,37.7-35.9c2.7-0.1,5.5,0,8.2-0.1
			c1.9,0,2.7,0.8,2.7,2.7c0,4.2,0,8.5,0.1,12.7c0,1.7-0.6,2.1-2.3,2.1c-3.5-0.1-7-0.2-10.4,0.4c-11.3,1.9-18.1,9.6-18.6,21.1
			c-0.9,20.3-0.2,40.6-0.4,60.9c0,5.2,0,5.2-5.3,5.2c-2.9,0-5.7-0.1-8.6,0c-2.6,0.1-3.5-0.9-3.5-3.5
			C2168.1,365.8,2168.1,355.5,2168,343.1z"/>
		<g>
			<g>
				<path class="st2" d="M2296.8,358.6l-2.4,0c-1.8,0-3.2-1.4-3.2-3.2l0-28c0-1.8,1.4-3.2,3.2-3.2l2.4,0c1.8,0,3.2,1.4,3.2,3.2l0,28
					C2300,357.1,2298.6,358.6,2296.8,358.6z"/>
				<path class="st2" d="M2278.4,342.6l0-2.4c0-1.8,1.4-3.2,3.2-3.2l28,0c1.8,0,3.2,1.4,3.2,3.2l0,2.4c0,1.8-1.4,3.2-3.2,3.2l-28,0
					C2279.8,345.8,2278.4,344.4,2278.4,342.6z"/>
			</g>
		</g>
		<g>
			<g>
				
					<linearGradient id="SVGID_1_" gradientUnits="userSpaceOnUse" x1="2412.002" y1="202.0496" x2="2412.002" y2="114.2172" gradientTransform="matrix(1 -1.586149e-03 1.586149e-03 1 -135.1457 219.7832)">
					<stop  offset="5.327789e-09" style="stop-color:#F89B9B"/>
					<stop  offset="0.214" style="stop-color:#F8A39B"/>
					<stop  offset="1" style="stop-color:#F8BC9B"/>
				</linearGradient>
				<path class="st3" d="M2163,391.3c0.1-2.5,2.2-4.6,4.8-4.9c12.1-1.1,24.3-0.9,36.4,0.4c3.6,0.4,5.3-0.1,6.7-2.4
					c9.3-16.2,18.8-32.4,28.2-48.6c0.4-0.8,0.9-1.5,1.4-2.2c1.9-2.7,4.6-3.8,7.9-3.2c3.4,0.6,5.1,2.7,5.6,5.5
					c1.6,9.6,3.1,19.2,4.6,28.8c1.6,10.1,3.2,20.1,4.8,30.2c0.4,0,0.3,0,0.7,0.1c2.2-5.9,4.4-11.8,6.4-17.8c0.9-2.5,2.3-4.5,5.4-5
					c3.4-0.6,6.1,0.5,8.1,3c2.6,3.2,5.3,6.4,7.8,9.7c1.2,1.5,2.1,2,3.6,0.3c6.4-6.9,13-13.8,19.4-20.7c4.6-5,10.3-4.7,13.8,0.9
					c4.6,7.2,9.3,14.4,13.9,21.7c0.9,1.4,1.6,2.1,3.3,0.8c1.6-1.2,3.6-1.1,5.5-1.1c11.6,0,23.3-0.1,34.9,0c2.6,0,4.8,2,4.9,4.5l0,0
					c0.2,2.8-2.1,5.1-4.9,5.1c-10.4,0.1-20.7,0-31.1,0c-2,0-3.4,0.6-4.5,2.1c-4.4,5.6-10.3,5.2-14-0.8c-4.5-7.2-9.1-14.3-13.8-21.4
					c-1.9-3-2.1-3-4.7-0.2c-5.9,6.2-11.8,12.5-17.6,18.8c-5.9,6.4-11.1,5.5-16.6-3c-0.9-1.5-2.2-2.7-3.5-3.9
					c-0.5-0.5-0.7-1.5-1.7-1.3c-0.8,0.2-0.8,1-1,1.6c-2.6,7.3-5.2,14.6-7.7,21.9c-0.4,1-0.7,2-1.1,3c-1.3,3.3-4,5.1-7.3,4.9
					c-3.7-0.2-6-2-6.8-5.7c-1-4.7-1.6-9.5-2.4-14.3c-0.1-0.7-0.2-1.3-0.3-2c-2.5-15.9-5-31.7-8.1-47.8c-2.3,3.9-4.6,7.9-6.9,11.8
					c-6.3,10.8-12.6,21.6-18.9,32.5c-1.9,3.3-5.1,4.1-8.8,4.1c-13.8,0-27.6,0.1-41.4,0C2165.3,396.7,2162.9,394.2,2163,391.3
					L2163,391.3z"/>
				
					<linearGradient id="SVGID_00000022558922685144245100000007080100251256986546_" gradientUnits="userSpaceOnUse" x1="2535.7109" y1="189.6659" x2="2535.7109" y2="160.453" gradientTransform="matrix(1 -1.586149e-03 1.586149e-03 1 -135.1457 219.7832)">
					<stop  offset="5.327789e-09" style="stop-color:#F89B9B"/>
					<stop  offset="0.214" style="stop-color:#F8A39B"/>
					<stop  offset="1" style="stop-color:#F8BC9B"/>
				</linearGradient>
				<path style="fill:url(#SVGID_00000022558922685144245100000007080100251256986546_);" d="M2400.8,376.2
					c-8.1,0-14.6,6.6-14.6,14.6c0,8.1,6.6,14.6,14.6,14.6s14.6-6.6,14.6-14.6C2415.4,382.7,2408.9,376.2,2400.8,376.2z
					 M2401.1,399.2c-4.8,0.1-8.5-3.4-8.5-8.1c-0.1-4.6,3.7-8.6,8.2-8.6c4.5,0,8.3,3.8,8.3,8.4
					C2409.2,395.5,2405.7,399.1,2401.1,399.2z"/>
				
					<linearGradient id="SVGID_00000037666291723764517220000012845281259300113555_" gradientUnits="userSpaceOnUse" x1="2287.854" y1="190.5914" x2="2287.854" y2="161.3786" gradientTransform="matrix(1 -1.586149e-03 1.586149e-03 1 -135.1457 219.7832)">
					<stop  offset="5.327789e-09" style="stop-color:#F89B9B"/>
					<stop  offset="0.214" style="stop-color:#F8A39B"/>
					<stop  offset="1" style="stop-color:#F8BC9B"/>
				</linearGradient>
				<path style="fill:url(#SVGID_00000037666291723764517220000012845281259300113555_);" d="M2153,377.5c-8.1,0-14.6,6.6-14.6,14.6
					c0,8.1,6.6,14.6,14.6,14.6c8.1,0,14.6-6.6,14.6-14.6C2167.6,384,2161,377.5,2153,377.5z M2153.3,400.5c-4.8,0.1-8.5-3.4-8.5-8.1
					c-0.1-4.6,3.7-8.6,8.2-8.6c4.5,0,8.3,3.8,8.3,8.4C2161.3,396.8,2157.9,400.4,2153.3,400.5z"/>
			</g>
		</g>
		<g>
			<path class="st2" d="M2220.5,484.3c-0.6,0.1-1.2,0.2-1.8,0.2c-0.6,0-1.2,0.1-1.8,0.1c-0.5,0-1.1,0-1.8-0.1
				c-0.6,0-1.2-0.1-1.8-0.2l-0.1-42.2l0.4-0.4l6.7,0l0,3.2c0,1.6,0,3.3,0,4.9c0,1.7,0,3.3,0,4.9L2220.5,484.3z M2238.6,441.7
				c0.1,0.4,0.2,0.9,0.3,1.4c0.1,0.5,0.1,1,0.1,1.4c0,1.1-0.3,2-1,2.5c-0.7,0.5-1.6,0.8-3,0.8l-9,0c-1.7,0-3.2,0-4.6,0
				c-1.4,0-2.7-0.1-3.9-0.1l0-5.9L2238.6,441.7z M2235.3,459.9c0.1,0.4,0.2,0.9,0.3,1.5c0.1,0.6,0.1,1,0.1,1.4c0,0.4,0,0.9-0.1,1.4
				c-0.1,0.6-0.1,1.1-0.3,1.5l-12.4,0c-0.8,0-1.6,0-2.6,0c-0.9,0-1.8,0-2.6,0l0-5.8c0.8,0,1.6,0,2.6,0c0.9,0,1.8,0,2.6,0
				L2235.3,459.9z"/>
			<path class="st2" d="M2242.3,441.7c0.5-0.1,1.1-0.2,1.8-0.2c0.7,0,1.2-0.1,1.7-0.1c0.5,0,1.1,0,1.8,0.1c0.7,0,1.3,0.1,1.8,0.2
				l0.1,42.6c-0.5,0.1-1.1,0.2-1.8,0.2c-0.7,0-1.3,0.1-1.8,0.1c-0.5,0-1.1,0-1.7-0.1c-0.7,0-1.3-0.1-1.8-0.2L2242.3,441.7z"/>
			
				<linearGradient id="SVGID_00000159439716476645570170000009500233296014934420_" gradientUnits="userSpaceOnUse" x1="2407.3369" y1="268.5142" x2="2407.3369" y2="225.3351" gradientTransform="matrix(1 -1.586149e-03 1.586149e-03 1 -135.1457 219.7832)">
				<stop  offset="5.327789e-09" style="stop-color:#F89B9B"/>
				<stop  offset="0.214" style="stop-color:#F8A39B"/>
				<stop  offset="1" style="stop-color:#F8BC9B"/>
			</linearGradient>
			<path style="fill:url(#SVGID_00000159439716476645570170000009500233296014934420_);" d="M2255,441.7c0.8-0.1,1.6-0.2,2.6-0.3
				c0.9,0,1.7-0.1,2.3-0.1c0.6,0,1.3,0,2.1,0.1c0.8,0,1.6,0.1,2.4,0.3l5.6,18.9c0.1,0.5,0.3,1.2,0.6,2.1c0.2,0.9,0.5,1.9,0.8,2.9
				c0.3,1,0.5,2,0.7,3c0.2,0.9,0.3,1.6,0.4,2.1l0.4,0c0.1-0.5,0.2-1.2,0.4-2.1c0.2-0.9,0.4-1.9,0.7-3c0.3-1,0.5-2,0.7-2.9
				c0.2-0.9,0.4-1.6,0.6-2.1l5.5-18.9c0.8-0.1,1.6-0.2,2.4-0.3c0.8,0,1.5-0.1,2.1-0.1c0.6,0,1.3,0,2.2,0.1c0.9,0,1.8,0.1,2.6,0.3
				l3.4,42.4c-0.5,0.1-1.1,0.2-1.8,0.3c-0.7,0.1-1.3,0.1-1.9,0.1c-0.5,0-1.1,0-1.6-0.1c-0.5,0-1-0.1-1.6-0.2l-1.4-22
				c-0.1-1.2-0.1-2.5-0.2-4.1c-0.1-1.5-0.1-3.1-0.2-4.6c-0.1-1.6-0.1-3-0.1-4.2l-0.4,0l-8.1,28.4c-0.5,0.1-1.1,0.2-1.8,0.2
				c-0.7,0.1-1.3,0.1-1.8,0.1c-0.5,0-1.1,0-1.8-0.1c-0.7-0.1-1.3-0.1-1.8-0.2l-8.2-28.4l-0.3,0c0,1.2-0.1,2.6-0.1,4.2
				c0,1.6-0.1,3.1-0.2,4.6c-0.1,1.5-0.1,2.9-0.2,4.1l-1.4,22c-0.5,0.1-1,0.1-1.6,0.2c-0.5,0-1.1,0.1-1.7,0.1c-0.6,0-1.2,0-1.8-0.1
				c-0.6-0.1-1.2-0.2-1.7-0.3L2255,441.7z"/>
			<path class="st2" d="M2296.3,442.2l0.4-0.4l6.5,0l0,5.9c0,0.9,0,1.6,0,2.2c0,0.6,0,1.3,0,2.1l0,23.2c0,0.6,0,1.1,0,1.6
				c0,0.5,0,1.1,0,1.7l0,5.9l-2.9,0c-1.3,0-2.3-0.4-3-1.2c-0.7-0.8-1.1-1.8-1.1-3.2L2296.3,442.2z M2322,441.8
				c0.1,0.5,0.2,1,0.2,1.5c0,0.5,0,0.9,0,1.3c0,0.4,0,0.9-0.1,1.5c-0.1,0.6-0.2,1.2-0.4,1.7l-14.5,0c-0.5,0-1.1,0-1.9,0
				c-0.8,0-1.6,0-2.4,0c-0.8,0-1.5,0-2.1-0.1l0-5.9L2322,441.8z M2318.6,459.9c0.1,0.5,0.2,1,0.3,1.5c0.1,0.6,0.1,1,0.1,1.4
				c0,0.4,0,0.9-0.1,1.4c-0.1,0.5-0.2,1-0.3,1.5l-11.4,0c-0.5,0-1.1,0-1.9,0c-0.8,0-1.6,0-2.4,0c-0.8,0-1.5,0-2.1,0l0-5.7
				c0.6,0,1.3,0,2.1,0c0.8,0,1.6,0,2.4,0c0.8,0,1.4,0,1.9,0L2318.6,459.9z M2323.4,478.4c0,2.1-0.3,3.7-1,4.6
				c-0.7,1-1.9,1.4-3.7,1.4l-17.8,0l0-5.8c1-0.1,2.1-0.1,3.1-0.2c1-0.1,2.2-0.1,3.5-0.1L2323.4,478.4z"/>
			<path class="st2" d="M2334.7,484.4l-3,0c-1.2,0-2.2-0.4-3-1.1c-0.8-0.8-1.2-1.8-1.2-3.3l-0.1-38.2l0.4-0.4l2.7,0
				c1.5,0,2.5,0.4,3.1,1.1c0.6,0.7,0.9,1.9,0.9,3.5L2334.7,484.4z M2352.4,478.2c0,2.4-0.4,4-1.1,4.9c-0.7,0.9-2,1.3-3.7,1.3
				l-15.9,0l-3.7-5.2c2-0.3,4.1-0.6,6.3-0.7c2.2-0.2,4.2-0.2,5.9-0.2L2352.4,478.2z"/>
		</g>
	</g>
</g>
<g>
	<path class="st0" d="M229.5,269.8l-176.1,0.3c-8.6,0-15.5-6.9-15.5-15.5L37.6,66.2c0-8.6,6.9-15.5,15.5-15.5l176.1-0.3
		c8.6,0,15.5,6.9,15.5,15.5l0.3,188.4C245,262.9,238.1,269.8,229.5,269.8z"/>
	<g>
		<path class="st1" d="M141.7,288.4c-22.4,0-44.9,0.1-67.3,0.1c-16.2,0-28.4-7.1-36.3-21.3c-3.8-6.8-4.6-14.3-4.6-21.8
			c-0.1-25.5-0.1-51-0.2-76.5c0-3.9,0.3-4.2,4.1-4.2c3,0,5.9,0,8.9,0c4.3,0,4.5,0.2,4.5,4.4c0,11-0.1,22-0.1,33
			c0,14.6,0,29.2,0.1,43.8c0,6.5,1.2,12.7,5.8,17.7c4.9,5.3,11,7.7,18.1,7.6c19.9,0,39.8-0.1,59.7-0.1c24.4,0,48.9-0.4,73.3,0.1
			c14,0.2,26.8-10.6,24.8-27.7c-0.3-2.5-0.3-5.1-0.2-7.6c0.1-20.6,0.2-41.3,0.3-61.9c0-1.5,0-3-0.2-4.4c-0.5-4.5,0-5.1,4.3-5.2
			c3.3,0,6.6,0.1,9.8,0c2.6-0.1,3.5,1,3.5,3.6c-0.1,9.9,0,19.9,0,29.8c0,14.7,0.1,29.4,0,44.1c0,5.1,0,10.2-1,15.2
			c-3.6,18.2-19.1,31.1-37.6,31.2C188,288.3,164.8,288.2,141.7,288.4C141.7,288.3,141.7,288.3,141.7,288.4z"/>
		<path class="st2" d="M141.3,58.3c-13.1,0-26.2,0.1-39.3,0.1c-11.8,0-12.4-0.7-12.4-13.4c0-3-0.1-6,0.1-9c0.4-5.1,2-6.6,6.6-6.8
			c2.7-0.1,5.5-0.3,8.2-0.5c7.3-0.6,12.7-4.5,16.5-11.2c1.4-2.5,2.6-5,4-7.5c2.6-4.6,6.4-6.9,11.3-7c2.7-0.1,5.5,0.1,8.2-0.1
			c6.3-0.4,10.7,2.7,13.9,8.3c1.6,2.8,3.2,5.7,5,8.4c4.1,6.3,9.9,9.1,16.8,9.5c2.4,0.1,4.9,0,7.3,0.1c2.9,0.1,4.8,1.6,5.1,4.9
			c0.6,6.2,0.5,12.4,0.1,18.6c-0.2,3.1-1.9,5-5,5.2c-1.7,0.1-3.4,0.3-5.1,0.4C169,58.3,155.2,58.3,141.3,58.3z"/>
		<path class="st1" d="M249.7,105.9c0,10.2,0,20.3,0.1,30.5c0,2.9-0.9,4-3.8,3.9c-3.5-0.2-7-0.1-10.5,0c-2.4,0.1-3.3-0.7-3.3-3.3
			c0-20.6-0.2-41.3-0.4-61.9c-0.1-11.6-7.2-19.9-18.5-22.1c-3.1-0.6-6.3-0.4-9.5-0.3c-2.2,0-3.4-0.7-3.3-3.1c0.1-3.8,0-7.6,0-11.4
			c0-1.7,0.5-2.8,2.5-2.9c10.8-0.5,21.1,1.1,30.2,7.6c11.3,8.2,16.1,19.6,16.4,33.1C249.9,86,249.7,95.9,249.7,105.9
			C249.7,105.9,249.7,105.9,249.7,105.9z"/>
		<path class="st1" d="M33.1,104.1c0.3-9.4-0.6-21,0.4-32.7C35.1,52,51.7,36.1,71.2,35.5c2.7-0.1,5.5,0,8.2-0.1
			c1.9,0,2.7,0.8,2.7,2.7c0,4.2,0,8.5,0.1,12.7c0,1.7-0.6,2.1-2.3,2.1c-3.5-0.1-7-0.2-10.4,0.4c-11.3,1.9-18.1,9.6-18.6,21.1
			c-0.9,20.3-0.2,40.6-0.4,60.9c0,5.2,0,5.2-5.3,5.2c-2.9,0-5.7-0.1-8.6,0c-2.6,0.1-3.5-0.9-3.5-3.5
			C33.2,126.8,33.1,116.5,33.1,104.1z"/>
		<g>
			<g>
				<path class="st2" d="M161.9,119.6l-2.4,0c-1.8,0-3.2-1.4-3.2-3.2l0-28c0-1.8,1.4-3.2,3.2-3.2l2.4,0c1.8,0,3.2,1.4,3.2,3.2l0,28
					C165.1,118.1,163.7,119.6,161.9,119.6z"/>
				<path class="st2" d="M143.4,103.6l0-2.4c0-1.8,1.4-3.2,3.2-3.2l28,0c1.8,0,3.2,1.4,3.2,3.2l0,2.4c0,1.8-1.4,3.2-3.2,3.2l-28,0
					C144.9,106.8,143.4,105.4,143.4,103.6z"/>
			</g>
		</g>
		<g>
			<g>
				
					<linearGradient id="SVGID_00000070104638453315051630000008739562001731122855_" gradientUnits="userSpaceOnUse" x1="277.4713" y1="-40.3361" x2="277.4713" y2="-128.1685" gradientTransform="matrix(1 -1.586149e-03 1.586149e-03 1 -135.1457 219.7832)">
					<stop  offset="5.327789e-09" style="stop-color:#F89B9B"/>
					<stop  offset="0.214" style="stop-color:#F8A39B"/>
					<stop  offset="1" style="stop-color:#F8BC9B"/>
				</linearGradient>
				<path style="fill:url(#SVGID_00000070104638453315051630000008739562001731122855_);" d="M28.1,152.3c0.1-2.5,2.2-4.6,4.8-4.9
					c12.1-1.1,24.3-0.9,36.4,0.4c3.6,0.4,5.3-0.1,6.7-2.4c9.3-16.2,18.8-32.4,28.2-48.6c0.4-0.8,0.9-1.5,1.4-2.2
					c1.9-2.7,4.6-3.8,7.9-3.2c3.4,0.6,5.1,2.7,5.6,5.5c1.6,9.6,3.1,19.2,4.6,28.8c1.6,10.1,3.2,20.1,4.8,30.2c0.4,0,0.3,0,0.7,0.1
					c2.2-5.9,4.4-11.8,6.4-17.8c0.9-2.5,2.3-4.5,5.4-5c3.4-0.6,6.1,0.5,8.1,3c2.6,3.2,5.3,6.4,7.8,9.7c1.2,1.5,2.1,2,3.6,0.3
					c6.4-6.9,13-13.8,19.4-20.7c4.6-5,10.3-4.7,13.8,0.9c4.6,7.2,9.3,14.4,13.9,21.7c0.9,1.4,1.6,2.1,3.3,0.8
					c1.6-1.2,3.6-1.1,5.5-1.1c11.6,0,23.3-0.1,34.9,0c2.6,0,4.8,2,4.9,4.5l0,0c0.2,2.8-2.1,5.1-4.9,5.1c-10.4,0.1-20.7,0-31.1,0
					c-2,0-3.4,0.6-4.5,2.1c-4.4,5.6-10.3,5.2-14-0.8c-4.5-7.2-9.1-14.3-13.8-21.4c-1.9-3-2.1-3-4.7-0.2
					c-5.9,6.2-11.8,12.5-17.6,18.8c-5.9,6.4-11.1,5.5-16.6-3c-0.9-1.5-2.2-2.7-3.5-3.9c-0.5-0.5-0.7-1.5-1.7-1.3
					c-0.8,0.2-0.8,1-1,1.6c-2.6,7.3-5.2,14.6-7.7,21.9c-0.4,1-0.7,2-1.1,3c-1.3,3.3-4,5.1-7.3,4.9c-3.7-0.2-6-2-6.8-5.7
					c-1-4.7-1.6-9.5-2.4-14.3c-0.1-0.7-0.2-1.3-0.3-2c-2.5-15.9-5-31.7-8.1-47.8c-2.3,3.9-4.6,7.9-6.9,11.8
					c-6.3,10.8-12.6,21.6-18.9,32.5c-1.9,3.3-5.1,4.1-8.8,4.1c-13.8,0-27.6,0.1-41.4,0C30.3,157.7,27.9,155.2,28.1,152.3L28.1,152.3
					z"/>
				
					<linearGradient id="SVGID_00000053523137500276867140000004463254342932428955_" gradientUnits="userSpaceOnUse" x1="401.1802" y1="-52.7198" x2="401.1802" y2="-81.9327" gradientTransform="matrix(1 -1.586149e-03 1.586149e-03 1 -135.1457 219.7832)">
					<stop  offset="5.327789e-09" style="stop-color:#F89B9B"/>
					<stop  offset="0.214" style="stop-color:#F8A39B"/>
					<stop  offset="1" style="stop-color:#F8BC9B"/>
				</linearGradient>
				<path style="fill:url(#SVGID_00000053523137500276867140000004463254342932428955_);" d="M265.9,137.2
					c-8.1,0-14.6,6.6-14.6,14.6c0,8.1,6.6,14.6,14.6,14.6c8.1,0,14.6-6.6,14.6-14.6C280.5,143.7,274,137.2,265.9,137.2z
					 M266.2,160.2c-4.8,0.1-8.5-3.4-8.5-8.1c-0.1-4.6,3.7-8.6,8.2-8.6c4.5,0,8.3,3.8,8.3,8.4C274.3,156.5,270.8,160.1,266.2,160.2z"
					/>
				
					<linearGradient id="SVGID_00000035489254972246289200000014972018660090783402_" gradientUnits="userSpaceOnUse" x1="153.3233" y1="-51.7942" x2="153.3233" y2="-81.0071" gradientTransform="matrix(1 -1.586149e-03 1.586149e-03 1 -135.1457 219.7832)">
					<stop  offset="5.327789e-09" style="stop-color:#F89B9B"/>
					<stop  offset="0.214" style="stop-color:#F8A39B"/>
					<stop  offset="1" style="stop-color:#F8BC9B"/>
				</linearGradient>
				<path style="fill:url(#SVGID_00000035489254972246289200000014972018660090783402_);" d="M18,138.5c-8.1,0-14.6,6.6-14.6,14.6
					c0,8.1,6.6,14.6,14.6,14.6c8.1,0,14.6-6.6,14.6-14.6C32.7,145,26.1,138.5,18,138.5z M18.3,161.5c-4.8,0.1-8.5-3.4-8.5-8.1
					c-0.1-4.6,3.7-8.6,8.2-8.6c4.5,0,8.3,3.8,8.3,8.4C26.4,157.8,23,161.4,18.3,161.5z"/>
			</g>
		</g>
		<g>
			<path class="st2" d="M85.5,245.3c-0.6,0.1-1.2,0.2-1.8,0.2c-0.6,0-1.2,0.1-1.8,0.1c-0.5,0-1.1,0-1.8-0.1c-0.6,0-1.2-0.1-1.8-0.2
				l-0.1-42.2l0.4-0.4l6.7,0l0,3.2c0,1.6,0,3.3,0,4.9c0,1.7,0,3.3,0,4.9L85.5,245.3z M103.7,202.7c0.1,0.4,0.2,0.9,0.3,1.4
				c0.1,0.5,0.1,1,0.1,1.4c0,1.1-0.3,2-1,2.5c-0.7,0.5-1.6,0.8-3,0.8l-9,0c-1.7,0-3.2,0-4.6,0c-1.4,0-2.7-0.1-3.9-0.1l0-5.9
				L103.7,202.7z M100.4,220.9c0.1,0.4,0.2,0.9,0.3,1.5c0.1,0.6,0.1,1,0.1,1.4c0,0.4,0,0.9-0.1,1.4c-0.1,0.6-0.1,1.1-0.3,1.5
				l-12.4,0c-0.8,0-1.6,0-2.6,0c-0.9,0-1.8,0-2.6,0l0-5.8c0.8,0,1.6,0,2.6,0c0.9,0,1.8,0,2.6,0L100.4,220.9z"/>
			<path class="st2" d="M107.4,202.7c0.5-0.1,1.1-0.2,1.8-0.2c0.7,0,1.2-0.1,1.7-0.1c0.5,0,1.1,0,1.8,0.1c0.7,0,1.3,0.1,1.8,0.2
				l0.1,42.6c-0.5,0.1-1.1,0.2-1.8,0.2c-0.7,0-1.3,0.1-1.8,0.1c-0.5,0-1.1,0-1.7-0.1c-0.7,0-1.3-0.1-1.8-0.2L107.4,202.7z"/>
			
				<linearGradient id="SVGID_00000149360336270561376900000017740981668224542645_" gradientUnits="userSpaceOnUse" x1="272.8062" y1="26.1285" x2="272.8062" y2="-17.0505" gradientTransform="matrix(1 -1.586149e-03 1.586149e-03 1 -135.1457 219.7832)">
				<stop  offset="5.327789e-09" style="stop-color:#F89B9B"/>
				<stop  offset="0.214" style="stop-color:#F8A39B"/>
				<stop  offset="1" style="stop-color:#F8BC9B"/>
			</linearGradient>
			<path style="fill:url(#SVGID_00000149360336270561376900000017740981668224542645_);" d="M120.1,202.7c0.8-0.1,1.6-0.2,2.6-0.3
				c0.9,0,1.7-0.1,2.3-0.1c0.6,0,1.3,0,2.1,0.1c0.8,0,1.6,0.1,2.4,0.3l5.6,18.9c0.1,0.5,0.3,1.2,0.6,2.1c0.2,0.9,0.5,1.9,0.8,2.9
				c0.3,1,0.5,2,0.7,3c0.2,0.9,0.3,1.6,0.4,2.1l0.4,0c0.1-0.5,0.2-1.2,0.4-2.1c0.2-0.9,0.4-1.9,0.7-3c0.3-1,0.5-2,0.7-2.9
				c0.2-0.9,0.4-1.6,0.6-2.1l5.5-18.9c0.8-0.1,1.6-0.2,2.4-0.3c0.8,0,1.5-0.1,2.1-0.1c0.6,0,1.3,0,2.2,0.1c0.9,0,1.8,0.1,2.6,0.3
				l3.4,42.4c-0.5,0.1-1.1,0.2-1.8,0.3c-0.7,0.1-1.3,0.1-1.9,0.1c-0.5,0-1.1,0-1.6-0.1c-0.5,0-1-0.1-1.6-0.2l-1.4-22
				c-0.1-1.2-0.1-2.5-0.2-4.1c-0.1-1.5-0.1-3.1-0.2-4.6c-0.1-1.6-0.1-3-0.1-4.2l-0.4,0l-8.1,28.4c-0.5,0.1-1.1,0.2-1.8,0.2
				c-0.7,0.1-1.3,0.1-1.8,0.1c-0.5,0-1.1,0-1.8-0.1c-0.7-0.1-1.3-0.1-1.8-0.2l-8.2-28.4l-0.3,0c0,1.2-0.1,2.6-0.1,4.2
				c0,1.6-0.1,3.1-0.2,4.6c-0.1,1.5-0.1,2.9-0.2,4.1l-1.4,22c-0.5,0.1-1,0.1-1.6,0.2c-0.5,0-1.1,0.1-1.7,0.1c-0.6,0-1.2,0-1.8-0.1
				c-0.6-0.1-1.2-0.2-1.7-0.3L120.1,202.7z"/>
			<path class="st2" d="M161.4,203.2l0.4-0.4l6.5,0l0,5.9c0,0.9,0,1.6,0,2.2c0,0.6,0,1.3,0,2.1l0,23.2c0,0.6,0,1.1,0,1.6
				c0,0.5,0,1.1,0,1.7l0,5.9l-2.9,0c-1.3,0-2.3-0.4-3-1.2c-0.7-0.8-1.1-1.8-1.1-3.2L161.4,203.2z M187.1,202.8
				c0.1,0.5,0.2,1,0.2,1.5s0,0.9,0,1.3c0,0.4,0,0.9-0.1,1.5c-0.1,0.6-0.2,1.2-0.4,1.7l-14.5,0c-0.5,0-1.1,0-1.9,0
				c-0.8,0-1.6,0-2.4,0c-0.8,0-1.5,0-2.1-0.1l0-5.9L187.1,202.8z M183.7,220.9c0.1,0.5,0.2,1,0.3,1.5c0.1,0.6,0.1,1,0.1,1.4
				c0,0.4,0,0.9-0.1,1.4c-0.1,0.5-0.2,1-0.3,1.5l-11.4,0c-0.5,0-1.1,0-1.9,0c-0.8,0-1.6,0-2.4,0c-0.8,0-1.5,0-2.1,0l0-5.7
				c0.6,0,1.3,0,2.1,0c0.8,0,1.6,0,2.4,0c0.8,0,1.4,0,1.9,0L183.7,220.9z M188.5,239.4c0,2.1-0.3,3.7-1,4.6c-0.7,1-1.9,1.4-3.7,1.4
				l-17.8,0l0-5.8c1-0.1,2.1-0.1,3.1-0.2c1-0.1,2.2-0.1,3.5-0.1L188.5,239.4z"/>
			<path class="st2" d="M199.8,245.4l-3,0c-1.2,0-2.2-0.4-3-1.1c-0.8-0.8-1.2-1.8-1.2-3.3l-0.1-38.2l0.4-0.4l2.7,0
				c1.5,0,2.5,0.4,3.1,1.1c0.6,0.7,0.9,1.9,0.9,3.5L199.8,245.4z M217.5,239.2c0,2.4-0.4,4-1.1,4.9c-0.7,0.9-2,1.3-3.7,1.3l-15.9,0
				l-3.7-5.2c2-0.3,4.1-0.6,6.3-0.7c2.2-0.2,4.2-0.2,5.9-0.2L217.5,239.2z"/>
		</g>
	</g>
</g>
</svg>
