<?xml version="1.0" encoding="utf-8"?>
<!-- Generator: Adobe Illustrator 26.1.0, SVG Export Plug-In . SVG Version: 6.00 Build 0)  -->
<svg version="1.1" id="Capa_1" xmlns="http://www.w3.org/2000/svg" xmlns:xlink="http://www.w3.org/1999/xlink" x="0px" y="0px"
	 viewBox="0 0 617 218" style="enable-background:new 0 0 617 218;" xml:space="preserve">
<style type="text/css">
	.st0{fill:#3BD6C6;}
	.st1{fill:url(#SVGID_1_);}
	.st2{fill:#FFFFFF;}
	.st3{fill:#666666;}
	.st4{fill:#89ECDA;}
	.st5{fill:url(#SVGID_00000099619679221761962050000012812660954946133147_);}
	.st6{fill:url(#SVGID_00000041294938880555495600000014011207840042575524_);}
	.st7{fill:url(#SVGID_00000001633503328418241870000008762739082243123352_);}
</style>
<g>
	<path class="st0" d="M40.6,171c-2,0.4-4.1,0.6-6.2,0.8c-2.1,0.1-4.1,0.2-6.1,0.2c-1.9,0-3.9-0.1-6.1-0.2c-2.2-0.1-4.3-0.4-6.2-0.8
		V25.4l1.4-1.3h23v11.2c0,5.6,0,11.2,0.1,16.9c0.1,5.7,0.1,11.3,0.1,16.8V171z M103.5,24.1c0.5,1.4,0.8,2.9,1,4.7
		c0.2,1.8,0.3,3.4,0.3,4.9c0,3.9-1.1,6.8-3.4,8.7c-2.3,1.8-5.7,2.7-10.3,2.7h-31c-5.8,0-11.1-0.1-16-0.2c-4.8-0.1-9.3-0.3-13.5-0.5
		V24.1H103.5z M91.9,87c0.4,1.5,0.7,3.2,0.9,5.2c0.2,1.9,0.3,3.6,0.3,4.9c0,1.4-0.1,3.1-0.3,5c-0.2,1.9-0.5,3.7-0.9,5.3H49
		c-2.7,0-5.7-0.1-8.9-0.2c-3.2-0.1-6.1-0.2-8.9-0.2V87.3c2.7,0,5.7,0,8.9-0.1c3.2-0.1,6.1-0.1,8.9-0.1H91.9z"/>
	<path class="st0" d="M116.2,24.1c1.9-0.4,3.9-0.6,6.2-0.8c2.3-0.1,4.3-0.2,6-0.2c1.9,0,3.9,0.1,6.2,0.2c2.3,0.1,4.3,0.4,6.2,0.8
		V171c-1.9,0.4-3.9,0.6-6.2,0.8c-2.3,0.1-4.3,0.2-6.2,0.2c-1.7,0-3.7-0.1-6-0.2c-2.3-0.1-4.4-0.4-6.2-0.8V24.1z"/>
	<linearGradient id="SVGID_1_" gradientUnits="userSpaceOnUse" x1="220.6525" y1="22.9432" x2="220.6525" y2="172.0137">
		<stop  offset="2.823728e-07" style="stop-color:#F8D49B"/>
		<stop  offset="1" style="stop-color:#F8BC9B"/>
	</linearGradient>
	<path class="st1" d="M160,24.1c2.7-0.5,5.7-0.8,8.9-1c3.2-0.1,5.8-0.2,7.8-0.2c2,0,4.4,0.1,7.3,0.2c2.8,0.1,5.6,0.5,8.3,1
		l19.3,65.2c0.5,1.7,1.1,4.1,1.9,7.2c0.8,3.2,1.6,6.5,2.6,10.2c0.9,3.6,1.8,7,2.5,10.2c0.7,3.2,1.2,5.6,1.4,7.3h1.3
		c0.3-1.6,0.8-4.1,1.5-7.3c0.7-3.2,1.5-6.6,2.4-10.2c0.9-3.6,1.8-7,2.6-10.2c0.8-3.2,1.5-5.6,2-7.2L249,24.1c2.9-0.5,5.7-0.8,8.4-1
		c2.8-0.1,5.1-0.2,7.2-0.2c2,0,4.6,0.1,7.7,0.2c3.1,0.1,6.1,0.5,9,1l11.4,146.5c-1.8,0.4-3.8,0.8-6.1,1c-2.3,0.2-4.4,0.4-6.5,0.4
		c-1.9,0-3.7-0.1-5.5-0.2c-1.8-0.1-3.6-0.4-5.4-0.6l-4.8-75.9c-0.2-4.1-0.4-8.8-0.7-14.1c-0.3-5.3-0.5-10.6-0.6-16
		c-0.2-5.4-0.3-10.2-0.4-14.5h-1.3l-28.3,98c-1.8,0.3-3.9,0.5-6.2,0.7c-2.4,0.2-4.5,0.3-6.3,0.3c-1.7,0-3.8-0.1-6.1-0.3
		c-2.4-0.2-4.4-0.4-6.2-0.7l-28.3-98h-1.2c-0.1,4.3-0.3,9.1-0.5,14.5c-0.2,5.4-0.4,10.7-0.6,16c-0.2,5.3-0.4,10-0.6,14.1l-4.8,75.9
		c-1.8,0.3-3.6,0.5-5.5,0.6c-1.9,0.1-3.8,0.2-5.7,0.2c-2,0-4.1-0.1-6.3-0.4c-2.2-0.3-4.2-0.6-5.9-1L160,24.1z"/>
	<path class="st0" d="M302.6,26.2l1.4-1.4h22.6V45c0,3,0,5.5,0.1,7.5c0.1,2,0.1,4.4,0.1,7.4v80.2c0,2,0,3.9-0.1,5.6
		c-0.1,1.8-0.1,3.7-0.1,5.9V172h-9.9c-4.4,0-7.8-1.3-10.3-4c-2.5-2.7-3.8-6.4-3.8-11V26.2z M391.5,24.8c0.4,1.8,0.6,3.5,0.7,5.2
		c0.1,1.6,0.2,3.2,0.2,4.5c0,1.4-0.2,3.2-0.5,5.2c-0.3,2-0.8,4-1.5,5.9h-50c-1.7,0-3.8,0-6.5,0c-2.7,0-5.4,0-8.2-0.1
		c-2.8-0.1-5.3-0.1-7.4-0.2V24.8H391.5z M379.7,87.4c0.4,1.6,0.8,3.3,1,5.3c0.2,1.9,0.3,3.6,0.3,4.9c0,1.4-0.1,3-0.3,4.8
		c-0.2,1.9-0.5,3.6-1,5.3h-39.3c-1.7,0-3.8,0-6.5-0.1c-2.7,0-5.4-0.1-8.2-0.1c-2.8,0-5.3-0.1-7.4-0.1V87.7c2.2-0.1,4.6-0.1,7.4-0.2
		c2.8,0,5.5-0.1,8.2-0.1c2.7,0,4.8-0.1,6.5-0.1H379.7z M395.9,151.1c0,7.3-1.1,12.6-3.4,15.9c-2.3,3.3-6.5,4.9-12.9,4.9h-61.3v-19.9
		c3.6-0.2,7.1-0.4,10.6-0.6c3.5-0.2,7.5-0.3,12-0.3H395.9z"/>
	<path class="st0" d="M434.9,172h-10.3c-4.2,0-7.7-1.3-10.3-3.9c-2.7-2.6-4-6.4-4-11.2V25.1l1.4-1.4h9.3c5,0,8.6,1.3,10.8,3.8
		c2.2,2.5,3.2,6.5,3.2,12V172z M496.1,150.6c0,8.2-1.3,13.8-3.8,16.8c-2.5,3-6.8,4.6-12.7,4.6h-55l-12.8-18.1c7-1.1,14.3-2,21.8-2.5
		c7.5-0.5,14.4-0.8,20.5-0.8H496.1z"/>
</g>
<g>
	<path class="st2" d="M561.8,206.9l-96.2-13.6c-8.5-1.2-14.4-9.1-13.2-17.5l14.7-103.8c1.2-8.5,9.1-14.4,17.5-13.2l96.2,13.6
		c8.5,1.2,14.4,9.1,13.2,17.5l-14.7,103.8C578.2,202.2,570.3,208.1,561.8,206.9z"/>
	<g>
		<path class="st3" d="M514.2,197.3c-13.7-1.9-27.5-3.9-41.2-5.9c-10-1.4-16.9-6-20.7-13.8c-1.8-3.7-1.8-7.5-1.3-11.3
			c1.7-12.8,3.6-25.5,5.4-38.3c0.3-2,0.5-2.1,2.8-1.8c1.8,0.2,3.6,0.5,5.4,0.8c2.7,0.4,2.7,0.5,2.4,2.6c-0.8,5.5-1.6,11-2.4,16.5
			c-1,7.3-2.1,14.6-3.1,21.9c-0.4,3.2-0.2,6.4,2.3,9.3c2.6,3.1,6.2,4.8,10.6,5.4c12.2,1.7,24.4,3.4,36.6,5.2c15,2.1,30,4.1,44.9,6.5
			c8.6,1.3,17.2-3,17.2-11.7c0-1.3,0.2-2.6,0.4-3.8c1.5-10.3,3.1-20.6,4.6-30.9c0.1-0.7,0.2-1.5,0.2-2.2c0-2.3,0.4-2.6,3-2.2
			c2,0.3,4,0.6,6,0.8c1.6,0.2,2.1,0.8,1.9,2.1c-0.8,5-1.4,9.9-2.1,14.9c-1,7.4-2.1,14.7-3.2,22.1c-0.4,2.5-0.8,5.1-1.7,7.5
			c-3.5,8.8-13.9,13.9-25.3,12.3C542.6,201.3,528.4,199.3,514.2,197.3C514.2,197.3,514.2,197.3,514.2,197.3z"/>
		<path class="st4" d="M532.2,70.3c-8-1.1-16.1-2.3-24.1-3.4c-7.2-1-7.5-1.5-6.4-9.3c0.3-1.8,0.5-3.7,0.9-5.5
			c0.7-3.1,1.8-3.9,4.7-3.6c1.7,0.2,3.4,0.3,5.1,0.4c4.5,0.3,8.2-1.6,11.1-5.4c1.1-1.4,2-2.8,3.1-4.2c2-2.6,4.5-3.6,7.6-3.3
			c1.7,0.2,3.4,0.5,5.1,0.7c3.9,0.3,6.3,2.6,7.8,6.3c0.7,1.9,1.5,3.8,2.3,5.6c2,4.2,5.3,6.4,9.5,7.3c1.5,0.3,3,0.4,4.5,0.7
			c1.8,0.3,2.8,1.4,2.7,3.5c-0.2,3.8-0.8,7.6-1.5,11.4c-0.4,1.9-1.6,2.9-3.5,2.8c-1-0.1-2.1-0.1-3.1-0.2
			C549.2,72.8,540.7,71.5,532.2,70.3z"/>
		<path class="st3" d="M594.5,109c-0.9,6.2-1.8,12.4-2.6,18.7c-0.2,1.8-0.9,2.4-2.7,2c-2.1-0.4-4.3-0.7-6.4-0.9
			c-1.5-0.2-1.9-0.7-1.7-2.3c1.8-12.6,3.5-25.3,5.2-38c0.9-7.1-2.7-12.8-9.4-15.2c-1.9-0.6-3.9-0.8-5.8-1c-1.4-0.2-2-0.7-1.8-2.2
			c0.4-2.3,0.7-4.7,1-7c0.1-1.1,0.6-1.7,1.8-1.5c6.7,0.7,12.8,2.5,17.8,7.3c6.2,6,8.1,13.4,7.2,21.7
			C596.3,96.8,595.3,102.9,594.5,109C594.5,109,594.5,109,594.5,109z"/>
		<path class="st3" d="M461.9,88.8c1-5.7,1.5-12.9,3.1-20c2.7-11.8,14.2-20,26.2-18.7c1.7,0.2,3.4,0.5,5.1,0.7
			c1.1,0.1,1.6,0.7,1.4,1.9c-0.4,2.6-0.8,5.2-1.1,7.8c-0.1,1.1-0.6,1.3-1.6,1.1c-2.1-0.4-4.3-0.7-6.4-0.7
			c-7.1,0.1-11.9,4.3-13.3,11.3c-2.3,12.4-3.7,24.9-5.6,37.3c-0.5,3.2-0.5,3.2-3.7,2.7c-1.7-0.2-3.5-0.6-5.3-0.7
			c-1.6-0.1-2.1-0.9-1.9-2.5C460,102.8,460.8,96.5,461.9,88.8z"/>
		<g>
			<g>
				<path class="st4" d="M538.7,109.6L538.7,109.6c-1.5-0.2-2.5-1.6-2.3-3.1l2.2-15.7c0.2-1.5,1.6-2.5,3.1-2.3h0
					c1.5,0.2,2.5,1.6,2.3,3.1l-2.2,15.7C541.6,108.7,540.2,109.8,538.7,109.6z"/>
				<path class="st4" d="M529.7,97.5L529.7,97.5c0.2-1.5,1.6-2.5,3.1-2.3l15.7,2.2c1.5,0.2,2.5,1.6,2.3,3.1l0,0
					c-0.2,1.5-1.6,2.5-3.1,2.3l-15.7-2.2C530.5,100.4,529.5,99,529.7,97.5z"/>
			</g>
		</g>
		<g>
			<g>
				<path class="st4" d="M488.7,161.6L488.7,161.6c-1.5-0.2-2.5-1.6-2.3-3.1l2.2-15.7c0.2-1.5,1.6-2.5,3.1-2.3l0,0
					c1.5,0.2,2.5,1.6,2.3,3.1l-2.2,15.7C491.6,160.7,490.2,161.8,488.7,161.6z"/>
				<path class="st4" d="M479.7,149.5L479.7,149.5c0.2-1.5,1.6-2.5,3.1-2.3l15.7,2.2c1.5,0.2,2.5,1.6,2.3,3.1l0,0
					c-0.2,1.5-1.6,2.5-3.1,2.3l-15.7-2.2C480.5,152.4,479.5,151,479.7,149.5z"/>
			</g>
		</g>
		<g>
			<g>
				<path class="st4" d="M546.6,155.3L546.6,155.3c-1-0.1-1.7-1-1.5-2l1.5-10.3c0.1-1,1-1.7,2-1.5l0,0c1,0.1,1.7,1,1.5,2l-1.5,10.3
					C548.5,154.7,547.6,155.4,546.6,155.3z"/>
				<path class="st4" d="M540.7,147.4L540.7,147.4c0.1-1,1-1.7,2-1.5l10.3,1.5c1,0.1,1.7,1,1.5,2v0c-0.1,1-1,1.7-2,1.5l-10.3-1.5
					C541.2,149.3,540.5,148.4,540.7,147.4z"/>
			</g>
		</g>
		<g>
			<g>
				
					<linearGradient id="SVGID_00000130622106193945590170000006425084547249328777_" gradientUnits="userSpaceOnUse" x1="460.5679" y1="182.6841" x2="460.5679" y2="128.3179" gradientTransform="matrix(0.9901 0.1404 -0.1404 0.9901 91.8643 -101.1972)">
					<stop  offset="2.823728e-07" style="stop-color:#F8D49B"/>
					<stop  offset="1" style="stop-color:#F8BC9B"/>
				</linearGradient>
				<path style="fill:url(#SVGID_00000130622106193945590170000006425084547249328777_);" d="M454.6,117.9c0.3-1.5,1.7-2.6,3.4-2.6
					c7.5,0.4,15,1.6,22.3,3.5c2.2,0.6,3.3,0.4,4.3-0.9c7.1-9.1,14.4-18.2,21.5-27.3c0.3-0.4,0.7-0.8,1.1-1.2
					c1.4-1.5,3.1-1.9,5.1-1.2c2,0.7,2.9,2.1,2.9,3.9c0.1,6,0.2,12,0.3,18.1c0.1,6.3,0.2,12.6,0.3,18.9c0.2,0.1,0.2,0,0.4,0.1
					c1.8-3.4,3.7-6.9,5.5-10.3c0.8-1.5,1.8-2.5,3.8-2.6c2.1-0.1,3.7,0.8,4.7,2.5c1.3,2.2,2.7,4.4,3.9,6.6c0.6,1,1.1,1.4,2.2,0.5
					c4.5-3.7,9.2-7.3,13.7-11c3.3-2.7,6.7-2,8.4,1.8c2.2,4.8,4.4,9.7,6.6,14.5c0.4,0.9,0.8,1.4,2,0.8c1.1-0.6,2.3-0.4,3.5-0.2
					c7.1,1,14.3,2,21.4,3c1.6,0.2,2.8,1.6,2.6,3.2v0c-0.1,1.7-1.7,3-3.5,2.7c-6.3-0.9-12.7-1.8-19-2.8c-1.2-0.2-2.1,0.1-3,0.9
					c-3.2,3.1-6.7,2.3-8.5-1.7c-2.1-4.8-4.3-9.6-6.6-14.3c-0.9-2-1-2-2.9-0.6c-4.2,3.3-8.3,6.6-12.4,9.9c-4.2,3.4-7.3,2.4-9.9-3.3
					c-0.4-1-1.1-1.8-1.8-2.7c-0.3-0.3-0.3-1-0.9-0.9c-0.5,0-0.6,0.6-0.8,0.9c-2.2,4.2-4.4,8.5-6.7,12.7c-0.3,0.6-0.6,1.2-0.9,1.7
					c-1.1,1.9-2.9,2.8-4.9,2.4c-2.2-0.4-3.5-1.7-3.7-4.1c-0.2-3-0.1-6-0.2-8.9c0-0.4,0-0.8,0-1.2c-0.1-9.9-0.3-19.9-0.8-30
					c-1.8,2.2-3.5,4.4-5.3,6.6c-4.8,6.1-9.6,12.1-14.4,18.2c-1.4,1.8-3.5,2-5.8,1.7c-8.5-1.2-16.9-2.4-25.4-3.6
					C455.5,121.4,454.3,119.7,454.6,117.9L454.6,117.9z"/>
				
					<linearGradient id="SVGID_00000150822333866102206360000005938877674205192325_" gradientUnits="userSpaceOnUse" x1="537.1409" y1="175.0188" x2="537.1409" y2="156.9367" gradientTransform="matrix(0.9901 0.1404 -0.1404 0.9901 91.8643 -101.1972)">
					<stop  offset="5.327789e-09" style="stop-color:#F8D49B"/>
					<stop  offset="1" style="stop-color:#F8BC9B"/>
				</linearGradient>
				<path style="fill:url(#SVGID_00000150822333866102206360000005938877674205192325_);" d="M601.6,129.6
					c-4.9-0.7-9.5,2.7-10.2,7.7c-0.7,4.9,2.7,9.5,7.7,10.2s9.5-2.7,10.2-7.7C610,134.9,606.6,130.3,601.6,129.6z M599.8,143.7
					c-2.9-0.4-4.9-2.8-4.5-5.7c0.4-2.8,3-4.9,5.8-4.6c2.8,0.4,4.7,3.1,4.4,5.9C605.1,142.2,602.6,144.1,599.8,143.7z"/>
				
					<linearGradient id="SVGID_00000120539281477142788270000006296429775189998491_" gradientUnits="userSpaceOnUse" x1="383.7233" y1="175.5917" x2="383.7233" y2="157.5096" gradientTransform="matrix(0.9901 0.1404 -0.1404 0.9901 91.8643 -101.1972)">
					<stop  offset="5.327789e-09" style="stop-color:#F8D49B"/>
					<stop  offset="1" style="stop-color:#F8BC9B"/>
				</linearGradient>
				<path style="fill:url(#SVGID_00000120539281477142788270000006296429775189998491_);" d="M449.7,108.6
					c-4.9-0.7-9.5,2.7-10.2,7.7c-0.7,4.9,2.7,9.5,7.7,10.2c4.9,0.7,9.5-2.7,10.2-7.7C458,113.9,454.6,109.3,449.7,108.6z
					 M447.8,122.7c-2.9-0.4-4.9-2.8-4.5-5.7c0.4-2.8,3-4.9,5.8-4.6c2.8,0.4,4.7,3.1,4.4,5.9C453.1,121.2,450.7,123.1,447.8,122.7z"
					/>
			</g>
		</g>
	</g>
</g>
</svg>
