<?xml version="1.0" encoding="utf-8"?>
<!-- Generator: Adobe Illustrator 26.1.0, SVG Export Plug-In . SVG Version: 6.00 Build 0)  -->
<svg version="1.1" id="Capa_1" xmlns="http://www.w3.org/2000/svg" xmlns:xlink="http://www.w3.org/1999/xlink" x="0px" y="0px"
	 viewBox="0 0 717 247" style="enable-background:new 0 0 717 247;" xml:space="preserve">
<style type="text/css">
	.st0{fill:#0E96CC;}
	.st1{fill:url(#SVGID_1_);}
	.st2{fill:#FFFFFF;}
	.st3{fill:#666666;}
	.st4{fill:#75BDE0;}
	.st5{fill:url(#SVGID_00000139291393931448781110000017785327557739487418_);}
	.st6{fill:url(#SVGID_00000073722493081821103240000008308453364830886578_);}
	.st7{fill:url(#SVGID_00000127039782543400706420000003851116292851338903_);}
</style>
<g>
	<g>
		<path class="st0" d="M39.3,191.1c-2.4,0.4-4.8,0.7-7.3,0.9c-2.5,0.2-4.9,0.3-7.2,0.3c-2.2,0-4.6-0.1-7.2-0.3
			c-2.6-0.2-5.1-0.5-7.4-0.9v-172l1.7-1.5H39v13.2c0,6.6,0,13.3,0.1,20c0.1,6.7,0.1,13.4,0.1,19.9V191.1z M113.6,17.6
			c0.6,1.6,1,3.5,1.2,5.6c0.2,2.1,0.3,4.1,0.3,5.8c0,4.7-1.3,8.1-4,10.2c-2.7,2.2-6.7,3.2-12.1,3.2H62.4c-6.9,0-13.1-0.1-18.9-0.2
			c-5.7-0.1-11-0.3-15.9-0.6V17.6H113.6z M99.9,91.9c0.5,1.8,0.9,3.8,1.1,6.1c0.2,2.3,0.3,4.2,0.3,5.8c0,1.7-0.1,3.7-0.3,5.9
			c-0.2,2.2-0.6,4.3-1.1,6.3H49.2c-3.2,0-6.7-0.1-10.5-0.2c-3.8-0.1-7.3-0.2-10.5-0.2V92.1c3.2,0,6.7,0,10.5-0.1
			c3.8-0.1,7.3-0.1,10.5-0.1H99.9z"/>
		<path class="st0" d="M128.6,17.6c2.2-0.4,4.7-0.7,7.4-0.9c2.7-0.2,5.1-0.3,7.1-0.3c2.2,0,4.6,0.1,7.3,0.3c2.7,0.2,5.1,0.5,7.3,0.9
			v173.5c-2.2,0.4-4.6,0.7-7.3,0.9c-2.7,0.2-5.1,0.3-7.3,0.3c-2,0-4.4-0.1-7.1-0.3c-2.7-0.2-5.2-0.5-7.4-0.9V17.6z"/>
		<linearGradient id="SVGID_1_" gradientUnits="userSpaceOnUse" x1="251.8988" y1="192.2195" x2="251.8988" y2="16.1786">
			<stop  offset="5.327789e-09" style="stop-color:#F89B9B"/>
			<stop  offset="0.214" style="stop-color:#F8A39B"/>
			<stop  offset="1" style="stop-color:#F8BC9B"/>
		</linearGradient>
		<path class="st1" d="M180.3,17.6c3.2-0.6,6.7-1,10.5-1.1c3.8-0.2,6.8-0.3,9.2-0.3c2.4,0,5.2,0.1,8.6,0.3c3.3,0.2,6.6,0.6,9.8,1.1
			l22.7,77c0.6,1.9,1.4,4.8,2.3,8.5c0.9,3.7,1.9,7.7,3,12c1.1,4.3,2.1,8.3,2.9,12.1c0.8,3.8,1.4,6.6,1.7,8.6h1.5
			c0.3-1.9,0.9-4.8,1.8-8.6c0.8-3.8,1.8-7.8,2.9-12.1c1.1-4.3,2.1-8.3,3-12c1-3.7,1.8-6.6,2.3-8.5l22.7-77c3.4-0.6,6.7-1,10-1.1
			c3.3-0.2,6.1-0.3,8.4-0.3c2.4,0,5.4,0.1,9.1,0.3c3.7,0.2,7.2,0.6,10.6,1.1l13.5,173c-2.1,0.5-4.5,0.9-7.2,1.2
			c-2.7,0.3-5.3,0.4-7.6,0.4c-2.2,0-4.4-0.1-6.5-0.3c-2.1-0.2-4.2-0.4-6.4-0.8l-5.7-89.7c-0.3-4.8-0.5-10.4-0.8-16.6
			c-0.3-6.3-0.6-12.6-0.8-18.9c-0.2-6.3-0.4-12.1-0.4-17.1H300l-33.4,115.7c-2.1,0.3-4.6,0.6-7.4,0.8c-2.8,0.2-5.3,0.3-7.5,0.3
			c-2,0-4.4-0.1-7.2-0.3c-2.8-0.2-5.3-0.5-7.4-0.8L203.7,48.8h-1.4c-0.2,5.1-0.4,10.8-0.6,17.1c-0.2,6.3-0.4,12.7-0.7,18.9
			c-0.3,6.3-0.5,11.8-0.8,16.6l-5.7,89.7c-2.1,0.3-4.3,0.6-6.5,0.8c-2.2,0.2-4.4,0.3-6.7,0.3c-2.4,0-4.9-0.1-7.5-0.4
			c-2.6-0.3-5-0.7-7-1.2L180.3,17.6z"/>
		<path class="st0" d="M348.7,20l1.7-1.6H377v23.9c0,3.6,0,6.5,0.1,8.8c0.1,2.3,0.1,5.2,0.1,8.7v94.8c0,2.4,0,4.6-0.1,6.7
			c-0.1,2.1-0.1,4.4-0.1,6.9v24.1h-11.7c-5.2,0-9.2-1.6-12.2-4.8c-3-3.2-4.4-7.5-4.4-13V20z M453.6,18.3c0.4,2.1,0.7,4.1,0.8,6.1
			s0.2,3.7,0.2,5.3c0,1.7-0.2,3.7-0.6,6.2c-0.4,2.4-1,4.7-1.7,6.9h-59.1c-1.9,0-4.5,0-7.6,0c-3.1,0-6.4,0-9.7-0.1
			c-3.3-0.1-6.2-0.2-8.8-0.3V18.3H453.6z M439.7,92.3c0.5,1.9,0.9,3.9,1.1,6.2c0.3,2.3,0.4,4.2,0.4,5.8c0,1.6-0.1,3.5-0.4,5.7
			c-0.3,2.2-0.6,4.3-1.1,6.2h-46.4c-1.9,0-4.5,0-7.6-0.1c-3.1,0-6.4-0.1-9.7-0.1c-3.3,0-6.2-0.1-8.8-0.1V92.6
			c2.5-0.1,5.5-0.1,8.8-0.2c3.3,0,6.5-0.1,9.7-0.1c3.1,0,5.7-0.1,7.6-0.1H439.7z M458.8,167.6c0,8.6-1.3,14.9-4,18.8
			s-7.7,5.8-15.2,5.8h-72.4v-23.5c4.2-0.3,8.4-0.5,12.6-0.8c4.1-0.3,8.9-0.4,14.2-0.4H458.8z"/>
		<path class="st0" d="M504.9,192.2h-12.2c-5,0-9.1-1.5-12.2-4.6c-3.1-3.1-4.7-7.5-4.7-13.3V18.7l1.7-1.7h10.9
			c5.9,0,10.2,1.5,12.7,4.5c2.5,3,3.8,7.7,3.8,14.2V192.2z M577.2,166.9c0,9.7-1.5,16.3-4.5,19.9s-8,5.4-15.1,5.4h-64.9l-15.1-21.3
			c8.3-1.4,16.9-2.3,25.8-3c8.9-0.6,17-1,24.3-1H577.2z"/>
	</g>
	<g>
		<path class="st2" d="M657.6,233.8l-119.2-16.9c-8.5-1.2-14.4-9.1-13.2-17.5l18.2-128.1c1.2-8.5,9.1-14.4,17.5-13.2l119.2,16.9
			c8.5,1.2,14.4,9.1,13.2,17.5l-18.2,128.1C673.9,229.1,666.1,235,657.6,233.8z"/>
		<g>
			<path class="st3" d="M598.6,222.1c-16.2-2.3-32.5-4.6-48.7-6.9c-11.8-1.7-20-7.1-24.5-16.3c-2.2-4.4-2.1-8.9-1.5-13.4
				c2.1-15.1,4.2-30.1,6.4-45.2c0.3-2.3,0.6-2.4,3.3-2.1c2.1,0.3,4.3,0.6,6.4,0.9c3.1,0.4,3.2,0.6,2.9,3.1c-1,6.5-1.9,13-2.9,19.5
				c-1.2,8.6-2.5,17.2-3.7,25.9c-0.5,3.8-0.2,7.6,2.7,11c3.1,3.6,7.3,5.7,12.5,6.4c14.4,2,28.8,4.1,43.2,6.1
				c17.7,2.5,35.4,4.9,53.1,7.6c10.1,1.6,20.3-3.5,20.3-13.8c0-1.5,0.2-3,0.5-4.5c1.8-12.2,3.6-24.3,5.5-36.5
				c0.1-0.9,0.3-1.8,0.3-2.6c0-2.7,0.4-3,3.6-2.6c2.4,0.3,4.7,0.7,7.1,1c1.9,0.2,2.5,0.9,2.2,2.5c-0.9,5.9-1.7,11.7-2.5,17.6
				c-1.2,8.7-2.4,17.4-3.7,26c-0.5,3-0.9,6-2,8.8c-4.2,10.4-16.4,16.4-29.9,14.5C632.1,226.8,615.4,224.4,598.6,222.1
				C598.6,222.1,598.6,222.1,598.6,222.1z"/>
			<path class="st4" d="M619.9,72.1c-9.5-1.3-19-2.7-28.5-4c-8.5-1.2-8.9-1.8-7.6-11c0.3-2.2,0.6-4.3,1-6.5c0.8-3.6,2.2-4.6,5.5-4.2
				c2,0.2,4,0.3,6,0.5c5.3,0.3,9.7-1.9,13.1-6.4c1.2-1.6,2.4-3.4,3.6-5c2.3-3.1,5.4-4.3,8.9-3.9c2,0.2,4,0.6,6,0.8
				c4.6,0.4,7.5,3.1,9.2,7.5c0.9,2.2,1.7,4.5,2.7,6.6c2.3,5,6.2,7.6,11.2,8.6c1.7,0.3,3.5,0.5,5.3,0.8c2.1,0.4,3.3,1.6,3.2,4.1
				c-0.2,4.5-0.9,9-1.8,13.5c-0.5,2.2-1.9,3.4-4.1,3.3c-1.2-0.1-2.5-0.1-3.7-0.3C639.9,75,629.9,73.6,619.9,72.1z"/>
			<path class="st3" d="M693.4,117.8c-1,7.4-2.1,14.7-3.1,22.1c-0.3,2.1-1.1,2.8-3.2,2.4c-2.5-0.5-5-0.8-7.6-1.1
				c-1.8-0.2-2.3-0.8-2-2.7c2.1-14.9,4.2-29.9,6.1-44.8c1.1-8.4-3.1-15.2-11.1-17.9c-2.2-0.8-4.5-0.9-6.8-1.2
				c-1.6-0.2-2.4-0.8-2.1-2.6c0.5-2.7,0.8-5.5,1.2-8.3c0.2-1.3,0.7-2,2.1-1.8c7.9,0.8,15.2,3,21,8.7c7.3,7.1,9.6,15.9,8.5,25.7
				C695.6,103.4,694.4,110.6,693.4,117.8C693.4,117.8,693.4,117.8,693.4,117.8z"/>
			<path class="st3" d="M536.8,94c1.2-6.8,1.8-15.3,3.7-23.6c3.2-13.9,16.8-23.6,31-22c2,0.2,4,0.6,6,0.8c1.4,0.2,1.8,0.9,1.6,2.2
				c-0.5,3.1-0.9,6.1-1.3,9.2c-0.1,1.3-0.7,1.5-1.8,1.3c-2.5-0.4-5-0.8-7.6-0.8c-8.4,0.2-14.1,5-15.7,13.3
				c-2.7,14.6-4.3,29.4-6.6,44c-0.6,3.7-0.5,3.7-4.3,3.2c-2.1-0.3-4.1-0.7-6.2-0.9c-1.9-0.2-2.5-1-2.2-2.9
				C534.5,110.5,535.6,103,536.8,94z"/>
			<g>
				<g>
					<path class="st4" d="M628,118.6l-1-0.1c-1.5-0.2-2.5-1.6-2.3-3.1l2.8-19.5c0.2-1.5,1.6-2.5,3.1-2.3l1,0.1
						c1.5,0.2,2.5,1.6,2.3,3.1l-2.8,19.5C630.9,117.7,629.5,118.8,628,118.6z"/>
					<path class="st4" d="M616.8,104.7l0.1-1c0.2-1.5,1.6-2.5,3.1-2.3l19.5,2.8c1.5,0.2,2.5,1.6,2.3,3.1l-0.1,1
						c-0.2,1.5-1.6,2.5-3.1,2.3l-19.5-2.8C617.6,107.6,616.5,106.2,616.8,104.7z"/>
				</g>
			</g>
			<g>
				<g>
					<path class="st4" d="M569,180l-1-0.1c-1.5-0.2-2.5-1.6-2.3-3.1l2.8-19.5c0.2-1.5,1.6-2.5,3.1-2.3l1,0.1
						c1.5,0.2,2.5,1.6,2.3,3.1l-2.8,19.5C571.9,179.1,570.5,180.2,569,180z"/>
					<path class="st4" d="M557.7,166.1l0.1-1c0.2-1.5,1.6-2.5,3.1-2.3l19.5,2.8c1.5,0.2,2.5,1.6,2.3,3.1l-0.1,1
						c-0.2,1.5-1.6,2.5-3.1,2.3l-19.5-2.8C558.5,169,557.5,167.6,557.7,166.1z"/>
				</g>
			</g>
			<g>
				<g>
					<path class="st4" d="M637.1,172.5l-0.6-0.1c-1-0.1-1.7-1-1.5-2l1.8-12.8c0.1-1,1-1.7,2-1.5l0.6,0.1c1,0.1,1.7,1,1.5,2
						l-1.8,12.8C639,172,638.1,172.6,637.1,172.5z"/>
					<path class="st4" d="M629.8,163.5l0.1-0.6c0.1-1,1-1.7,2-1.5l12.8,1.8c1,0.1,1.7,1,1.5,2l-0.1,0.6c-0.1,1-1,1.7-2,1.5
						l-12.8-1.8C630.3,165.3,629.6,164.4,629.8,163.5z"/>
				</g>
			</g>
			<g>
				<g>
					
						<linearGradient id="SVGID_00000033341851321830185610000015763197281410471321_" gradientUnits="userSpaceOnUse" x1="581.0895" y1="137.4601" x2="581.0895" y2="73.2578" gradientTransform="matrix(0.9901 0.1404 -0.1404 0.9901 51.9924 -58.1446)">
						<stop  offset="5.327789e-09" style="stop-color:#F89B9B"/>
						<stop  offset="0.214" style="stop-color:#F8A39B"/>
						<stop  offset="1" style="stop-color:#F8BC9B"/>
					</linearGradient>
					<path style="fill:url(#SVGID_00000033341851321830185610000015763197281410471321_);" d="M528.2,128.3c0.4-1.8,2.1-3.1,4-3
						c8.9,0.5,17.7,1.8,26.3,4.1c2.6,0.7,3.9,0.5,5.1-1.1c8.4-10.8,17-21.5,25.4-32.3c0.4-0.5,0.8-1,1.3-1.5c1.7-1.8,3.7-2.3,6-1.5
						c2.4,0.8,3.4,2.5,3.5,4.6c0.1,7.1,0.2,14.2,0.4,21.3c0.1,7.4,0.2,14.9,0.3,22.3c0.3,0.1,0.2,0.1,0.5,0.1
						c2.2-4.1,4.4-8.1,6.5-12.2c0.9-1.8,2.2-3,4.5-3.1c2.5-0.1,4.3,1,5.5,3c1.5,2.6,3.1,5.2,4.6,7.8c0.7,1.2,1.3,1.6,2.6,0.6
						c5.4-4.4,10.8-8.6,16.2-13c3.9-3.1,7.9-2.3,9.9,2.1c2.6,5.7,5.2,11.4,7.8,17.1c0.5,1.1,1,1.7,2.3,0.9c1.3-0.7,2.7-0.4,4.1-0.2
						c8.4,1.2,16.8,2.4,25.2,3.6c1.9,0.3,3.3,1.9,3.1,3.8l0,0c-0.2,2-2,3.5-4.1,3.2c-7.5-1-15-2.1-22.5-3.3c-1.5-0.2-2.5,0.1-3.5,1
						c-3.7,3.6-8,2.7-10-2c-2.5-5.7-5.1-11.3-7.7-16.9c-1.1-2.3-1.2-2.4-3.4-0.7c-4.9,3.9-9.8,7.8-14.7,11.7
						c-4.9,4-8.6,2.8-11.7-3.9c-0.5-1.2-1.3-2.2-2.1-3.2c-0.3-0.4-0.3-1.2-1.1-1.1c-0.6,0.1-0.7,0.7-0.9,1.1c-2.6,5-5.2,10-7.9,15
						c-0.4,0.7-0.7,1.4-1.1,2c-1.3,2.3-3.4,3.3-5.8,2.8c-2.6-0.5-4.2-2.1-4.3-4.9c-0.2-3.5-0.2-7-0.2-10.6c0-0.5,0-1,0-1.4
						c-0.2-11.7-0.4-23.5-0.9-35.4c-2.1,2.6-4.2,5.2-6.2,7.8c-5.7,7.2-11.4,14.3-17,21.5c-1.7,2.2-4.1,2.4-6.8,2
						c-10-1.4-20-2.8-29.9-4.3C529.3,132.5,527.8,130.5,528.2,128.3L528.2,128.3z"/>
					
						<linearGradient id="SVGID_00000031172351423074908600000011448971684685784239_" gradientUnits="userSpaceOnUse" x1="671.5162" y1="128.408" x2="671.5162" y2="107.0545" gradientTransform="matrix(0.9901 0.1404 -0.1404 0.9901 51.9924 -58.1446)">
						<stop  offset="5.327789e-09" style="stop-color:#F89B9B"/>
						<stop  offset="0.214" style="stop-color:#F8A39B"/>
						<stop  offset="1" style="stop-color:#F8BC9B"/>
					</linearGradient>
					<path style="fill:url(#SVGID_00000031172351423074908600000011448971684685784239_);" d="M701.8,142.1
						c-5.8-0.8-11.2,3.2-12.1,9.1c-0.8,5.8,3.2,11.2,9.1,12.1c5.8,0.8,11.2-3.2,12.1-9.1C711.7,148.4,707.7,143,701.8,142.1z
						 M699.7,158.8c-3.5-0.4-5.8-3.3-5.3-6.8c0.4-3.3,3.6-5.8,6.8-5.4c3.3,0.4,5.6,3.6,5.2,7C705.9,157,703,159.2,699.7,158.8z"/>
					
						<linearGradient id="SVGID_00000001647662566478470780000010871133045535619755_" gradientUnits="userSpaceOnUse" x1="490.3418" y1="129.0846" x2="490.3418" y2="107.731" gradientTransform="matrix(0.9901 0.1404 -0.1404 0.9901 51.9924 -58.1446)">
						<stop  offset="5.327789e-09" style="stop-color:#F89B9B"/>
						<stop  offset="0.214" style="stop-color:#F8A39B"/>
						<stop  offset="1" style="stop-color:#F8BC9B"/>
					</linearGradient>
					<path style="fill:url(#SVGID_00000001647662566478470780000010871133045535619755_);" d="M522.3,117.4
						c-5.8-0.8-11.2,3.2-12.1,9.1c-0.8,5.8,3.2,11.2,9.1,12.1c5.8,0.8,11.2-3.2,12.1-9.1C532.2,123.6,528.2,118.2,522.3,117.4z
						 M520.2,134c-3.5-0.4-5.8-3.3-5.3-6.8c0.4-3.3,3.6-5.8,6.8-5.4c3.3,0.4,5.6,3.6,5.2,7C526.4,132.2,523.5,134.4,520.2,134z"/>
				</g>
			</g>
		</g>
	</g>
</g>
</svg>
