<?xml version="1.0" standalone="no"?>
<!DOCTYPE svg PUBLIC "-//W3C//DTD SVG 20010904//EN"
 "http://www.w3.org/TR/2001/REC-SVG-20010904/DTD/svg10.dtd">
<svg version="1.0" xmlns="http://www.w3.org/2000/svg"
 width="588.000000pt" height="588.000000pt" viewBox="0 0 588.000000 588.000000"
 preserveAspectRatio="xMidYMid meet">
<metadata>
Created by potrace 1.14, written by Peter Selinger 2001-2017
</metadata>
<g transform="translate(0.000000,588.000000) scale(0.100000,-0.100000)"
fill="#000000" stroke="none">
<path d="M2865 5820 c-150 -7 -184 -18 -240 -83 -20 -23 -52 -71 -72 -107 -19
-36 -44 -83 -56 -105 -45 -84 -166 -187 -234 -200 -10 -2 -18 -4 -18 -5 0 -6
-77 -14 -228 -24 -128 -8 -141 -31 -143 -254 -2 -85 -5 -159 -7 -166 -4 -10
-61 -13 -132 -7 -7 1 -11 51 -12 136 -1 96 -5 140 -14 151 -11 14 -34 15 -159
11 -165 -6 -172 -7 -256 -35 -156 -51 -295 -153 -396 -289 -45 -61 -105 -177
-112 -217 -3 -14 -7 -29 -10 -34 -3 -5 -8 -22 -10 -38 -3 -16 -9 -40 -12 -54
-4 -14 -8 -331 -10 -705 -2 -748 -4 -721 58 -727 l33 -3 0 -62 c0 -50 -3 -63
-15 -64 -8 0 -34 -2 -57 -5 -30 -4 -47 -1 -57 9 -8 8 -13 17 -10 19 10 10 -91
102 -135 121 -67 31 -179 30 -244 -2 -170 -84 -220 -296 -104 -444 124 -159
376 -140 477 35 l30 53 55 1 c30 0 56 -2 56 -5 1 -3 2 -34 3 -68 1 -50 -1 -63
-14 -64 -30 -1 -53 -8 -63 -18 -8 -8 -11 -253 -9 -839 3 -959 2 -941 43 -1071
86 -274 331 -490 609 -538 53 -9 2976 -8 3035 1 196 31 400 164 510 335 44 68
94 176 102 221 2 14 8 41 13 60 17 66 29 387 15 409 -3 6 -3 11 2 11 9 0 8
432 -1 455 -3 8 -1 17 5 20 5 4 7 10 4 15 -3 4 -5 208 -6 451 0 496 1 489 -64
489 -21 0 -35 5 -36 13 -4 70 -3 110 2 119 3 5 37 10 75 10 l68 1 24 -38 c73
-115 190 -162 330 -131 56 12 111 55 170 131 39 51 49 198 18 268 -22 51 -97
124 -149 147 -144 64 -317 -2 -384 -145 l-18 -40 -60 0 c-33 -1 -64 0 -70 2
-8 3 -12 108 -6 145 0 4 12 5 25 2 14 -2 33 4 47 15 l24 19 -1 623 c0 584 -4
737 -20 806 -25 109 -84 253 -121 291 -7 7 -13 17 -13 21 0 11 -111 123 -155
156 -22 16 -42 32 -45 35 -3 3 -40 23 -83 44 -133 65 -246 89 -421 90 -128 0
-126 4 -126 -171 l0 -133 -75 0 c-65 0 -75 2 -75 18 0 154 -9 332 -19 353 -21
43 -46 51 -173 55 -137 5 -215 26 -287 75 -46 32 -120 119 -155 184 -9 17 -28
48 -41 70 -13 22 -27 47 -32 55 -27 56 -126 128 -185 136 -18 3 -37 6 -43 7
-5 1 -68 0 -140 -3z m2615 -2836 c36 -21 83 -81 75 -95 -3 -4 -2 -10 3 -13 21
-13 1 -95 -34 -143 -50 -66 -172 -74 -237 -15 -109 98 -33 294 112 288 26 -1
62 -11 81 -22z m-4979 -12 c64 -26 110 -101 104 -172 -7 -83 -78 -150 -160
-150 -72 0 -131 40 -157 106 -17 41 -15 116 3 122 5 2 9 10 9 17 0 17 38 56
71 72 43 21 86 23 130 5z m3883 -2494 c-2 -3 -25 -9 -52 -12 -77 -11 -2844 -9
-2877 1 -20 7 120 10 404 11 239 1 436 3 437 5 6 5 2092 1 2088 -5z"/>
</g>
</svg>
